<svg viewBox="0 0 330 200" xmlns="http://www.w3.org/2000/svg"><g><g><g><g><g><line x1="41.140000343322754" y1="177.95999908447266" x2="36.140000343322754" y2="177.95999908447266" style="visibility: inherit;" fill="rgb(0, 0, 0)" stroke="rgb(204, 204, 204)" stroke-width="1px"></line><line x1="41.140000343322754" y1="165.2485705784389" x2="36.140000343322754" y2="165.2485705784389" style="visibility: inherit;" fill="rgb(0, 0, 0)" stroke="rgb(204, 204, 204)" stroke-width="1px"></line><line x1="41.140000343322754" y1="152.53714207240515" x2="36.140000343322754" y2="152.53714207240515" style="visibility: inherit;" fill="rgb(0, 0, 0)" stroke="rgb(204, 204, 204)" stroke-width="1px"></line><line x1="41.140000343322754" y1="139.82571356637138" x2="36.140000343322754" y2="139.82571356637138" style="visibility: inherit;" fill="rgb(0, 0, 0)" stroke="rgb(204, 204, 204)" stroke-width="1px"></line><line x1="41.140000343322754" y1="127.11428506033761" x2="36.140000343322754" y2="127.11428506033761" style="visibility: inherit;" fill="rgb(0, 0, 0)" stroke="rgb(204, 204, 204)" stroke-width="1px"></line><line x1="41.140000343322754" y1="114.40285655430385" x2="36.140000343322754" y2="114.40285655430385" style="visibility: inherit;" fill="rgb(0, 0, 0)" stroke="rgb(204, 204, 204)" stroke-width="1px"></line><line x1="41.140000343322754" y1="101.6914280482701" x2="36.140000343322754" y2="101.6914280482701" style="visibility: inherit;" fill="rgb(0, 0, 0)" stroke="rgb(204, 204, 204)" stroke-width="1px"></line><line x1="41.140000343322754" y1="88.97999954223633" x2="36.140000343322754" y2="88.97999954223633" style="visibility: inherit;" fill="rgb(0, 0, 0)" stroke="rgb(204, 204, 204)" stroke-width="1px"></line><line x1="41.140000343322754" y1="76.26857103620257" x2="36.140000343322754" y2="76.26857103620257" style="visibility: inherit;" fill="rgb(0, 0, 0)" stroke="rgb(204, 204, 204)" stroke-width="1px"></line><line x1="41.140000343322754" y1="63.557142530168804" x2="36.140000343322754" y2="63.557142530168804" style="visibility: inherit;" fill="rgb(0, 0, 0)" stroke="rgb(204, 204, 204)" stroke-width="1px"></line><line x1="41.140000343322754" y1="50.84571402413505" x2="36.140000343322754" y2="50.84571402413505" style="visibility: inherit;" fill="rgb(0, 0, 0)" stroke="rgb(204, 204, 204)" stroke-width="1px"></line><line x1="41.140000343322754" y1="38.13428551810128" x2="36.140000343322754" y2="38.13428551810128" style="visibility: inherit;" fill="rgb(0, 0, 0)" stroke="rgb(204, 204, 204)" stroke-width="1px"></line><line x1="41.140000343322754" y1="25.42285701206754" x2="36.140000343322754" y2="25.42285701206754" style="visibility: inherit;" fill="rgb(0, 0, 0)" stroke="rgb(204, 204, 204)" stroke-width="1px"></line><line x1="41.140000343322754" y1="12.71142850603377" x2="36.140000343322754" y2="12.71142850603377" style="visibility: inherit;" fill="rgb(0, 0, 0)" stroke="rgb(204, 204, 204)" stroke-width="1px"></line><line x1="41.140000343322754" y1="0" x2="36.140000343322754" y2="0" style="visibility: inherit;" fill="rgb(0, 0, 0)" stroke="rgb(204, 204, 204)" stroke-width="1px"></line></g><g transform="translate(31.140000343322754, 0)"><text style="text-anchor: end; visibility: hidden; font-family: &quot;Helvetica Neue&quot;, sans-serif; font-size: 12px; font-weight: 200;" x="0" y="177.95999908447266" dx="0em" dy="0.3em" fill="rgb(50, 49, 63)" stroke="none" stroke-width="1px">-40</text><text style="text-anchor: end; visibility: inherit; font-family: &quot;Helvetica Neue&quot;, sans-serif; font-size: 12px; font-weight: 200;" x="0" y="165.2485705784389" dx="0em" dy="0.3em" fill="rgb(50, 49, 63)" stroke="none" stroke-width="1px">-20</text><text style="text-anchor: end; visibility: hidden; font-family: &quot;Helvetica Neue&quot;, sans-serif; font-size: 12px; font-weight: 200;" x="0" y="152.53714207240515" dx="0em" dy="0.3em" fill="rgb(50, 49, 63)" stroke="none" stroke-width="1px">0</text><text style="text-anchor: end; visibility: inherit; font-family: &quot;Helvetica Neue&quot;, sans-serif; font-size: 12px; font-weight: 200;" x="0" y="139.82571356637138" dx="0em" dy="0.3em" fill="rgb(50, 49, 63)" stroke="none" stroke-width="1px">20</text><text style="text-anchor: end; visibility: hidden; font-family: &quot;Helvetica Neue&quot;, sans-serif; font-size: 12px; font-weight: 200;" x="0" y="127.11428506033761" dx="0em" dy="0.3em" fill="rgb(50, 49, 63)" stroke="none" stroke-width="1px">40</text><text style="text-anchor: end; visibility: inherit; font-family: &quot;Helvetica Neue&quot;, sans-serif; font-size: 12px; font-weight: 200;" x="0" y="114.40285655430385" dx="0em" dy="0.3em" fill="rgb(50, 49, 63)" stroke="none" stroke-width="1px">60</text><text style="text-anchor: end; visibility: hidden; font-family: &quot;Helvetica Neue&quot;, sans-serif; font-size: 12px; font-weight: 200;" x="0" y="101.6914280482701" dx="0em" dy="0.3em" fill="rgb(50, 49, 63)" stroke="none" stroke-width="1px">80</text><text style="text-anchor: end; visibility: inherit; font-family: &quot;Helvetica Neue&quot;, sans-serif; font-size: 12px; font-weight: 200;" x="0" y="88.97999954223633" dx="0em" dy="0.3em" fill="rgb(50, 49, 63)" stroke="none" stroke-width="1px">100</text><text style="text-anchor: end; visibility: hidden; font-family: &quot;Helvetica Neue&quot;, sans-serif; font-size: 12px; font-weight: 200;" x="0" y="76.26857103620257" dx="0em" dy="0.3em" fill="rgb(50, 49, 63)" stroke="none" stroke-width="1px">120</text><text style="text-anchor: end; visibility: inherit; font-family: &quot;Helvetica Neue&quot;, sans-serif; font-size: 12px; font-weight: 200;" x="0" y="63.557142530168804" dx="0em" dy="0.3em" fill="rgb(50, 49, 63)" stroke="none" stroke-width="1px">140</text><text style="text-anchor: end; visibility: hidden; font-family: &quot;Helvetica Neue&quot;, sans-serif; font-size: 12px; font-weight: 200;" x="0" y="50.84571402413505" dx="0em" dy="0.3em" fill="rgb(50, 49, 63)" stroke="none" stroke-width="1px">160</text><text style="text-anchor: end; visibility: inherit; font-family: &quot;Helvetica Neue&quot;, sans-serif; font-size: 12px; font-weight: 200;" x="0" y="38.13428551810128" dx="0em" dy="0.3em" fill="rgb(50, 49, 63)" stroke="none" stroke-width="1px">180</text><text style="text-anchor: end; visibility: hidden; font-family: &quot;Helvetica Neue&quot;, sans-serif; font-size: 12px; font-weight: 200;" x="0" y="25.42285701206754" dx="0em" dy="0.3em" fill="rgb(50, 49, 63)" stroke="none" stroke-width="1px">200</text><text style="text-anchor: end; visibility: inherit; font-family: &quot;Helvetica Neue&quot;, sans-serif; font-size: 12px; font-weight: 200;" x="0" y="12.71142850603377" dx="0em" dy="0.3em" fill="rgb(50, 49, 63)" stroke="none" stroke-width="1px">220</text><text style="text-anchor: end; visibility: hidden; font-family: &quot;Helvetica Neue&quot;, sans-serif; font-size: 12px; font-weight: 200;" x="0" y="0" dx="0em" dy="0.3em" fill="rgb(50, 49, 63)" stroke="none" stroke-width="1px">240</text></g><line x1="41.140000343322754" y1="0" x2="41.140000343322754" y2="177.95999908447266" fill="rgb(0, 0, 0)" stroke="rgb(204, 204, 204)" stroke-width="1px"></line></g></g><g transform="translate(41, 0)" clip-path="url(#clip_0)"><clipPath id="clip_0"><rect width="288" height="177"></rect></clipPath><g><g><g><line x1="0" y1="0" x2="0" y2="177.95999908447266" fill="rgb(0, 0, 0)" stroke="rgb(60, 60, 60)" stroke-width="1px" opacity="0.25"></line><line x1="24.071666638056435" y1="0" x2="24.071666638056435" y2="177.95999908447266" fill="rgb(0, 0, 0)" stroke="rgb(60, 60, 60)" stroke-width="1px" opacity="0.25"></line><line x1="48.14333327611287" y1="0" x2="48.14333327611287" y2="177.95999908447266" fill="rgb(0, 0, 0)" stroke="rgb(60, 60, 60)" stroke-width="1px" opacity="0.25"></line><line x1="72.21499991416931" y1="0" x2="72.21499991416931" y2="177.95999908447266" fill="rgb(0, 0, 0)" stroke="rgb(60, 60, 60)" stroke-width="1px" opacity="0.25"></line><line x1="96.28666655222574" y1="0" x2="96.28666655222574" y2="177.95999908447266" fill="rgb(0, 0, 0)" stroke="rgb(60, 60, 60)" stroke-width="1px" opacity="0.25"></line><line x1="120.3583331902822" y1="0" x2="120.3583331902822" y2="177.95999908447266" fill="rgb(0, 0, 0)" stroke="rgb(60, 60, 60)" stroke-width="1px" opacity="0.25"></line><line x1="144.42999982833862" y1="0" x2="144.42999982833862" y2="177.95999908447266" fill="rgb(0, 0, 0)" stroke="rgb(60, 60, 60)" stroke-width="1px" opacity="0.25"></line><line x1="168.50166646639508" y1="0" x2="168.50166646639508" y2="177.95999908447266" fill="rgb(0, 0, 0)" stroke="rgb(60, 60, 60)" stroke-width="1px" opacity="0.25"></line><line x1="192.57333310445148" y1="0" x2="192.57333310445148" y2="177.95999908447266" fill="rgb(0, 0, 0)" stroke="rgb(60, 60, 60)" stroke-width="1px" opacity="0.25"></line><line x1="216.64499974250793" y1="0" x2="216.64499974250793" y2="177.95999908447266" fill="rgb(0, 0, 0)" stroke="rgb(60, 60, 60)" stroke-width="1px" opacity="0.25"></line><line x1="240.7166663805644" y1="0" x2="240.7166663805644" y2="177.95999908447266" fill="rgb(0, 0, 0)" stroke="rgb(60, 60, 60)" stroke-width="1px" opacity="0.25"></line><line x1="264.7883330186208" y1="0" x2="264.7883330186208" y2="177.95999908447266" fill="rgb(0, 0, 0)" stroke="rgb(60, 60, 60)" stroke-width="1px" opacity="0.25"></line><line x1="288.85999965667725" y1="0" x2="288.85999965667725" y2="177.95999908447266" fill="rgb(0, 0, 0)" stroke="rgb(60, 60, 60)" stroke-width="1px" opacity="0.25"></line></g><g><line x1="0" y1="177.95999908447266" x2="288.85999965667725" y2="177.95999908447266" fill="rgb(0, 0, 0)" stroke="rgb(60, 60, 60)" stroke-width="1px" opacity="0.25"></line><line x1="0" y1="165.2485705784389" x2="288.85999965667725" y2="165.2485705784389" fill="rgb(0, 0, 0)" stroke="rgb(60, 60, 60)" stroke-width="1px" opacity="0.25"></line><line x1="0" y1="152.53714207240515" x2="288.85999965667725" y2="152.53714207240515" fill="rgb(0, 0, 0)" stroke="rgb(60, 60, 60)" stroke-width="1px" opacity="0.25"></line><line x1="0" y1="139.82571356637138" x2="288.85999965667725" y2="139.82571356637138" fill="rgb(0, 0, 0)" stroke="rgb(60, 60, 60)" stroke-width="1px" opacity="0.25"></line><line x1="0" y1="127.11428506033761" x2="288.85999965667725" y2="127.11428506033761" fill="rgb(0, 0, 0)" stroke="rgb(60, 60, 60)" stroke-width="1px" opacity="0.25"></line><line x1="0" y1="114.40285655430385" x2="288.85999965667725" y2="114.40285655430385" fill="rgb(0, 0, 0)" stroke="rgb(60, 60, 60)" stroke-width="1px" opacity="0.25"></line><line x1="0" y1="101.6914280482701" x2="288.85999965667725" y2="101.6914280482701" fill="rgb(0, 0, 0)" stroke="rgb(60, 60, 60)" stroke-width="1px" opacity="0.25"></line><line x1="0" y1="88.97999954223633" x2="288.85999965667725" y2="88.97999954223633" fill="rgb(0, 0, 0)" stroke="rgb(60, 60, 60)" stroke-width="1px" opacity="0.25"></line><line x1="0" y1="76.26857103620257" x2="288.85999965667725" y2="76.26857103620257" fill="rgb(0, 0, 0)" stroke="rgb(60, 60, 60)" stroke-width="1px" opacity="0.25"></line><line x1="0" y1="63.557142530168804" x2="288.85999965667725" y2="63.557142530168804" fill="rgb(0, 0, 0)" stroke="rgb(60, 60, 60)" stroke-width="1px" opacity="0.25"></line><line x1="0" y1="50.84571402413505" x2="288.85999965667725" y2="50.84571402413505" fill="rgb(0, 0, 0)" stroke="rgb(60, 60, 60)" stroke-width="1px" opacity="0.25"></line><line x1="0" y1="38.13428551810128" x2="288.85999965667725" y2="38.13428551810128" fill="rgb(0, 0, 0)" stroke="rgb(60, 60, 60)" stroke-width="1px" opacity="0.25"></line><line x1="0" y1="25.42285701206754" x2="288.85999965667725" y2="25.42285701206754" fill="rgb(0, 0, 0)" stroke="rgb(60, 60, 60)" stroke-width="1px" opacity="0.25"></line><line x1="0" y1="12.71142850603377" x2="288.85999965667725" y2="12.71142850603377" fill="rgb(0, 0, 0)" stroke="rgb(60, 60, 60)" stroke-width="1px" opacity="0.25"></line><line x1="0" y1="0" x2="288.85999965667725" y2="0" fill="rgb(0, 0, 0)" stroke="rgb(60, 60, 60)" stroke-width="1px" opacity="0.25"></line></g></g></g><g><g><line x1="0" y1="152.53714207240515" x2="288.85999965667725" y2="152.53714207240515" fill="rgb(0, 0, 0)" stroke="rgb(153, 153, 153)" stroke-width="1.5px"></line></g></g><g><g><line x1="24.071666638056435" y1="0" x2="24.071666638056435" y2="177.95999908447266" fill="rgb(0, 0, 0)" stroke="rgb(153, 153, 153)" stroke-width="1.5px"></line></g></g><g><g><g><g><g><path style="fill: none;" stroke="rgb(0, 119, 187)" stroke-width="2px" d="M24.172767637936275,1.7096111013470932L24.29794030445417,7.055443130163098L24.47366347091198,14.305341867148769L24.62290780406793,21.409814417687954L24.634943637386957,25.31709858891142L24.728823137275377,29.53236713628388L24.817888303836188,33.762489106581086L24.83714563714663,36.6025519278908L25.212663636700313,44.83303163868669L25.36190796985626,51.94179699401877L25.465416136399906,57.60863875543916L25.482266303046543,61.219841567945736L25.597810302909213,64.86028786777436L25.629103469538688,67.42496715222372L25.79038363601367,70.83106156813713L26.0166573024114,75.2158335266355L26.512533635155357,82.01603339913058L26.637706301673255,86.97098341518294L27.280419800909357,93.55846625616553L27.290048467564585,97.55522248318822L27.405592467427255,100.46842619665767L27.422442634073892,102.28859192346636L27.52835796728134,103.81913998172419L28.14218546655178,106.80874168896443L28.245693633095424,108.8844633220075L28.25291513308684,110.14893855847005L28.58991846601963,111.71294148366303L28.686205132571857,112.85386769316095L28.97265796556473,114.07795965132709L29.11708796539307,115.05217560923981L29.36502613176505,116.00408178780418L29.516677631584802,116.77515364665894L29.62500013145606,117.37017511578837L29.82238779788812,117.94796410077852L29.935524631086984,118.41020236010726L30.053475797613462,118.80020174343491L30.05588296427727,119.03642125458735L30.084768964242937,119.2045462043676L30.166612630812327,119.37783748548847L30.53490913037459,119.76821216672019L30.667303296883905,120.09129536118783L31.38463896269798,120.66386093123609L31.846814962148667,121.17988785639244L31.885329628769558,121.50189714988781L32.02735246193409,121.7384811351981L32.78079562770526,122.05930139654451L32.78560996103287,122.25270420026396L32.90596829422315,122.39070032878968L33.07687712735335,122.50216059360308L33.25260029381116,122.59569766260539L33.269450460457804,122.65423665814426L33.527017293485,122.72352725652465L33.59441796007157,122.77323537035012L33.786991293176015,122.82463064215118L34.17213795938492,122.89206048867217L34.4634051257054,122.95528844891425L34.663199958801265,123.0067860088119L34.88465929187139,123.05101451490548L34.925581125156086,123.07983550941029L35.32757795801163,123.11695576997778L35.59718062435786,123.1502099984925L36.03769212383429,123.18487932695106L36.36265962344806,123.21443729365365L36.43006029003461,123.2337994065177L36.9379724560976,123.25591966272492L36.97167278939088,123.26979212576362L37.42903445551395,123.28526015725228L37.74196612180869,123.2985181465788L37.847881455016136,123.30767937763363L38.05249062143962,123.3153271438259L38.18729195461273,123.32121437247815L38.20414212125937,123.32490284827952L38.29080012115637,123.32789953622563L38.490594954252245,123.33137919091756L38.99609995365143,123.33705623215349L39.04183612026373,123.3407466097692L39.210337786730136,123.3439577959108L39.89638028591474,123.34925361027442L39.9661881191651,123.352722040402L40.19727611889044,123.35570986618279L40.22616211885612,123.35761021000974L40.570386951780314,123.35994618590948L40.83998961812655,123.36218665280137L41.294944117585814,123.36478489084195L41.8413709502697,123.36764143279817L42.02912995004654,123.36976073647497L42.036351450037955,123.37104783556155L42.15189544990063,123.37205963685622L42.81868061577479,123.37393910183408L42.84275228241285,123.37511042204719L42.927003115646045,123.37596159434486L43.30733544852734,123.37712109728938L43.487872948312756,123.37811064998058L43.7622899479866,123.37913982405433L43.86098378120264,123.37991055769353L44.20280144746303,123.38088893415369L44.23650178075632,123.38152638989143L44.5277689470768,123.38233460774279L44.55184061371485,123.38285445143472L44.77570711344878,123.38348639331022L45.44249227932294,123.38478978263034L45.56285061251322,123.38573571327268L45.579700779159865,123.38632460736878L45.71931644566059,123.38686705580753L46.3620299448967,123.3880449834933L46.862720610968275,123.38940344908576L47.06973694405556,123.39048522482486L47.10103011068503,123.39117502207962L47.41636894364357,123.3919923393255L47.76540810989539,123.39292690037735L47.91946677637895,123.39368450742981L48.80771127532323,123.39526016627744L48.82456144196988,123.3962259274917L49.10379277497133,123.39715548383654L49.29636610807577,123.39795469909623L49.39987427461942,123.3985632123212L49.604483441042895,123.39918434878444L49.96555844061374,123.40000799000194L50.02092327388127,123.40057103088967L50.31459760686556,123.40127544172411L50.32181910685698,123.40170681647007L50.468656273349126,123.40214796466351L50.487913606659575,123.4024378685104L50.59864327319463,123.40274855332794L50.7960309396267,123.40318129469641L51.55910277205308,123.40438746922803L51.68668260523478,123.4052692521671L51.83111260506312,123.40597773586133L51.91295627163251,123.40650465560616L52.19940910462538,123.40717478628946L52.377539437747,123.40779701044156L52.88304443714618,123.40879683898302L52.895080270465215,123.40941128318336L53.352441936588285,123.4103453460368L53.6557449362278,123.411282068101L54.57287543513775,123.41297586381104L55.06875176788171,123.41460311840677L55.21799610103766,123.41576373412013L55.4466769340992,123.41674231681228L55.51167043402195,123.41740996024515L55.62721443388462,123.41795310764448L56.332514266379675,123.41914891119714L56.67914626596769,123.42029407734752L56.80191176582177,123.42113343642768L56.8572765990893,123.42170493822795L57.31463826521237,123.42261032622625L57.492768598333996,123.4233727349623L57.9645732644399,123.42441012361266L58.303983764036495,123.4254495729663L58.47970693049431,123.42628853929546L58.58562226370176,123.42692284277216L58.84800343005657,123.42762636993359L59.30777226284345,123.42861291275867L59.37998726275762,123.42929309071155L59.425723429369924,123.4297574461751L59.647182762440046,123.43030760486198L59.71939776235421,123.430726922137L59.87345642883777,123.43116665467807L59.919192595450085,123.43148674289453L60.959088594214116,123.43295505924559L61.31775642712116,123.4342763405404L61.32257076044877,123.43507395834246L61.39960009369055,123.43564756991677L61.96046992635727,123.43667835882349L62.0182419262886,123.4373676279348L62.86556459194819,123.43881985059011L63.18571775823434,123.44008298541591L63.359033758028346,123.44105325361326L64.26412842361927,123.44274293187739L64.5337310899655,123.44408550274147L64.64927508982818,123.4450326367945L64.75037608970801,123.44572505227029L65.15237292256356,123.44663219270666L65.22699508914152,123.4472676386414L65.69639258858362,123.44822206097575L65.75657175517877,123.44886841955872L65.8095294217825,123.44932024184058L66.30059142119885,123.45019164452404L66.33429175449213,123.45075618775047L66.40409958774248,123.45117928672406L66.42335692105293,123.45145739123399L67.5571324197054,123.45300816571958L68.48629875193437,123.45507136268748L69.70673225048384,123.45779696178622L70.08706458336512,123.4598958880504L70.21464441654683,123.46131041261393L70.460175416255,123.46245782730168L71.08603874884446,123.46390854286892L71.34841991519927,123.46509803806454L71.38212024849257,123.46585343679827L71.56747208160559,123.4665326406108L71.84429624794325,123.46727571543914L72.06575558101336,123.46799116613484L72.20296408085028,123.46858724301762L72.29925074740251,123.4690622355561L72.34257974735101,123.4694005703559L72.36424424732526,123.4696287861666L72.54718891377449,123.4699887708102L72.80234858013789,123.47051509920637L72.82160591344834,123.47085417156484L72.99251474657854,123.47126515325661L73.27415324624378,123.47185408344771L73.51246274596056,123.4724964434617L73.51486991262436,123.47288476888518L73.56782757922808,123.47318274107636L73.60634224584898,123.47340904483761L74.0901827452739,123.47413155913827L74.09740424526532,123.47457379596396L74.2153554117918,123.47498169939897L74.27312741172314,123.47529723722727L74.81473991107941,123.47614408773543L74.96879857756296,123.47683840060637L75.12526441071033,123.47744507011504L75.18062924397786,123.47787695817244L75.39005274372896,123.47839017992509L75.56336874352296,123.47890856066846L75.8811147431453,123.4796046017119L76.66344390888214,123.48097166546358L77.04377624176342,123.48225256110447L77.61908907441298,123.48371741850144L77.73222590761185,123.48473307544904L77.82369824083646,123.4854539971962L77.89109890742301,123.48596801386714L78.16551590709686,123.48660906699541L79.05135323937733,123.48806533343195L79.76868890519142,123.48980706879686L79.79276057182948,123.49088023436173L79.89867590503692,123.49165311776981L79.96126223829587,123.4921924926071L80.06958473816712,123.49264801099372L80.12494957143466,123.49298726876783L80.30548707122009,123.49340902956432L80.46436007103125,123.49385410743842L80.7363699040413,123.49444991806848L81.04930157033603,123.49518659821373L81.07578040363789,123.49565964006192L81.123923736914,123.49600262327772L81.69442223623594,123.49689697477942L82.03383273583252,123.49784284340363L82.19752006897133,123.4986072349995L82.52248756858508,123.49945961079975L82.5273019019127,123.4999749155L82.6187742351373,123.50039562589876L82.67413906840484,123.50071496868517L83.33851706761519,123.50170763331286L83.57441940066815,123.50258835476866L83.59367673397858,123.50313909315787L84.01252373348078,123.50397577441773L84.09196023338636,123.50457379387173L84.27009056650797,123.50514693245606L84.36397006639639,123.50560331299027L84.57098639948369,123.50612735100887L84.85984639914037,123.5067909036313L85.050012565581,123.5074169393871L85.19203539874553,123.50796421633112L85.9021495645682,123.5091469807301L86.20545256420772,123.51022128606124L86.28970339744092,123.51096866859325L86.46783373056253,123.51163045521932L86.81687289681435,123.51244745277353L86.8770520634095,123.51301038668339L87.03111072989306,123.51353240998526L87.06481106318633,123.51388635577769L87.38737139613627,123.51448761507068L87.62808806251685,123.51513737254581L87.78936822899183,123.51572118803713L88.57651172805626,123.51701897684751L88.57891889472008,123.51779958974379L88.65354106129806,123.51835814934947L89.40698422706922,123.51959811320705L89.43587022703488,123.5203760346977L89.4454988936901,123.52085539505751L89.44790606035392,123.52114495088344L89.72473022669156,123.52165132750474L90.28078572603067,123.52262237933905L90.51668805908362,123.52348916331378L90.55760989236832,123.5240577239502L90.60093889231682,123.52445122980373L91.05107905844847,123.52522751471828L91.2701312248548,123.52595513302545L91.35197489142418,123.52649062412296L91.39530389137269,123.52686331844811L92.24503372369608,123.52810620013108L92.52667222336135,123.52918942129176L92.55796538999081,123.52987717638437L92.77942472306093,123.53055458621348L92.84923255631129,123.53104540514866L92.94311205619971,123.5314523938934L93.80728488850593,123.5327303993036L93.86987122176488,123.53357187753713L93.96856505498091,123.53419508069106L94.02874422157606,123.53464173796078L94.36334038784504,123.5353102618005L94.51258472100099,123.53588885042507L95.01327538707257,123.53683631291419L95.05179005369345,123.53745037124412L95.22992038681507,123.53803216334896L95.35027872000535,123.53852476975649L95.67765338628291,123.53921213483366L95.87504105271499,123.53986118630759L96.29870238554477,123.54075685541828L96.36128871880372,123.54136796206707L96.50812588529587,123.54191113057203L96.70551355172793,123.54247366410264L96.87160805153052,123.5430090244474L96.97030188474655,123.54344855686807L97.0738100512902,123.54383447175441L97.39155605091254,123.5444471540635L97.41803488421439,123.54484482740493L97.75985255047479,123.54549171932797L97.98612621687253,123.5461504300855L98.0198265501658,123.54658541854631L99.6711428815365,123.54881705544636L99.76020804809728,123.55026271613984L100.36922121404011,123.55185649652435L100.63882388038635,123.5531328004154L100.79528971353372,123.55408672492608L100.81213988018035,123.55467750592808L100.94694121335347,123.55519296216448L100.96860571332772,123.55552745083713L101.11062854649225,123.5558978599212L101.14192171312173,123.55615792776786L101.51984687933921,123.55676395801036L101.59928337924481,123.55722164724392L102.1481173785925,123.55814893957009L102.40568421161969,123.55901274316071L102.68250837795733,123.5598597892207L102.80045954448381,123.56050863858621L102.93526087765693,123.56105796603569L103.25300687727928,123.56176481666253L103.27226421058973,123.5622122023594L103.59001021021206,123.5628578879347L103.87405587654114,123.56358376123579L103.93904937646388,123.56409686961894L103.9438637097915,123.56441055347904L104.160508709534,123.56485576212836L104.32901037600041,123.56532363695945L104.4108540425698,123.5657003725562L104.47825470915636,123.56600690773183L105.26058387489319,123.56711893225216L105.28224837486744,123.5678123317002L105.3111343748331,123.56826231454511L105.35687054144542,123.56858661333382L105.39779237473012,123.56882968285859L105.52777937457562,123.56912972357344L105.55666537454128,123.56934466098349L105.61684454113642,123.56954441919679L105.70590970769723,123.56976998287318L105.95625504073303,123.57020208141859L106.00199120734533,123.5705156496276L106.25474370704492,123.57100443011268L106.78672753974595,123.57192807167407L106.83727803968588,123.57254238452285L106.9696722061952,123.57306808064718L107.17909570594628,123.57363176840978L107.3572260390679,123.57418139856416L107.80014470520814,123.57503487137369L109.12408637030126,123.57711706940505L109.17463687024117,123.5784265161358L109.19389420355161,123.57923448968998L109.23000170350869,123.57976097543883L109.48516136987209,123.5803794460579L109.70180636961459,123.58100655695762L110.17842536904813,123.5819462802206L110.19527553569476,123.58252951027902L110.36618436882496,123.58308116776058L110.61652970186076,123.58370795278407L110.65745153514544,123.58413251404971L110.81873170162042,123.58457830240026L111.3218295343558,123.58543929608975L111.39163736760617,123.5860383257311L112.24377436659336,123.58740343133333L112.31598936650752,123.58830880734246L112.36172553311984,123.58890537222467L112.57596336619854,123.58951643026715L112.70113603271643,123.5900304754574L112.77575819929442,123.5904271548294L112.91296669913133,123.59082711989282L113.54364436504841,123.59181093938986L113.62308086495399,123.59249627198116L114.23209403089683,123.59362512725909L114.31393769746622,123.59439748131891L114.97590853001277,123.59564352641505L115.245511196359,123.59670827971794L116.00617586212158,123.59824226174356L116.1385700286309,123.59931684995891L116.60074602808157,123.60050566351067L116.63926069470246,123.60126356267318L116.66573952800432,123.6017503057367L117.08940086083412,123.60253986155587L117.22901652733485,123.60317846190267L117.27715986061096,123.6036178708026L117.56601986026763,123.60422094790349L117.90543035986424,123.6049823538369L117.96320235979557,123.60550708374915L118.29057702607314,123.60620596448888L118.52166502579848,123.60689780814653L118.66368785896302,123.60747778119642L118.69016669226487,123.6078577685924L119.6409975244681,123.60920200662098L119.70839819105466,123.6100880734507L119.83116369090875,123.61076421449819L120.0646588572979,123.6114433841455L120.13928102387587,123.6119381683867L120.1513168571949,123.6122495860069L120.4064765235583,123.61273610633367L121.07085452276867,123.6138077417749L121.56191652218502,123.61502581742317L121.91577002176443,123.61617173936554L121.95428468838533,123.6169039035624L121.96391335504056,123.61735483974088L122.04334985494613,123.61771850273098L122.09149318822226,123.61799294921686L122.26721635468006,123.618363215775L122.86178652064005,123.61928072591733L123.07361718705495,123.62007950209073L123.3528485200564,123.62088462228527L123.41784201997916,123.62144333919446L123.58634368644556,123.62197543976131L123.75003101958434,123.62248672149761L123.94741868601639,123.62302430413685L124.06296268587907,123.62348262642476L124.10147735249996,123.62380126102393L124.86214201826255,123.6248817529971L125.20395968452294,123.6259296078539L125.49522685084344,123.62689872233398L125.76001518386205,123.62778955882698L125.98869601692358,123.62859172691142L126.25589151660601,123.62938433517712L126.29922051655451,123.62991129980321L126.8047255159537,123.63081712003788L127.49317518180212,123.63216458054961L127.53409701508681,123.63302057730318L127.62797651497523,123.6336447331289L128.24902551423708,123.63474270117766L128.82674551355043,123.63607355689359L128.91099634678363,123.63697099043635L129.04098334662913,123.63766074014688L129.11801267987093,123.63816381203608L129.29132867966493,123.6386673746161L129.35632217958766,123.63904515695656L129.36595084624292,123.63928249421619L129.51760234606266,123.63960237089267L129.93885651222865,123.64028404843936L129.97014967885812,123.64072990755858L130.16272301196258,123.6412204781873L130.1723516786178,123.6415264582249L130.25900967851481,123.64181187577576L130.46843317826588,123.64222557756408L130.48528334491252,123.64249319473771L130.59119867811998,123.64277693028086L130.71877851130168,123.64309555177653L131.39519234383104,123.6440732365543L131.5396223436594,123.64482762369138L131.9175475098769,123.6457195776528L131.95124784317017,123.64629451203594L132.3075085094134,123.64705357941418L132.6445118423462,123.64790082107375L133.14038817509015,123.64898426045303L133.16205267506442,123.64966050881648L133.2896325082461,123.65021463800431L133.61460000785988,123.65092436967419L133.70125800775688,123.65145106839935L133.9780821740945,123.65208809309982L134.41377934024334,123.65297654614642L134.88076967302163,123.65405076918185L135.01797817285856,123.6548533812232L135.2081443392992,123.65555606399515L135.2948023391962,123.65607756357653L135.56681217220623,123.65670564996053L135.60532683882712,123.65712614301734L135.7954930052678,123.65759955439856L136.00250933835505,123.65812314307001L137.6851188363552,123.6603846647757L137.78862700289883,123.66186086381796L137.9330570027272,123.66291435951374L137.9812003360033,123.66360173581799L138.26043166900476,123.66433710667594L138.38560433552266,123.66492283014038L138.530034335351,123.66544107068442L138.616692335248,123.66585287473411L138.7442721684297,123.66624639772364L138.7851940017144,123.66653100176893L138.81889433500766,123.66674055639734L138.87666633493902,123.66693320572156L138.90555233490468,123.66708176868715L138.99943183479309,123.66727952463L139.03313216808638,123.66743697039698L139.33162083439828,123.66787571864327L139.48808666754564,123.66832032113187L139.54345150081315,123.66865108975712L139.79861116717657,123.66914437166177L140.05136366687617,123.66973322192402L140.16209333341124,123.67021357654045L140.8722074992339,123.67132321417182L141.6473151649793,123.67288218718444L141.97950416458448,123.67420064397936L142.6775824970881,123.67579471662225L142.8075694969336,123.6769014799878L142.86774866352874,123.67763439416437L143.17105166316827,123.67842327248158L143.36603216293653,123.67912159423915L143.51286932942867,123.67970933336912L143.55860549604097,123.68011434631882L144.44444282832146,123.6813766191765L144.56480116151172,123.68227266501059L144.78866766124568,123.68306826064936L144.82718232786655,123.68359022906407L144.89939732778072,123.68398681334557L145.07512049423852,123.684426483361L145.34953749391238,123.68500644181043L145.94410765987237,123.68603812942716L145.9489219932,123.68666199102235L146.40146932599544,123.68755709328126L146.78661599220436,123.68853638573088L147.15972682509422,123.6895535848295L147.38359332482815,123.69042090262195L147.51598749133748,123.69109355268736L147.6604174911658,123.6916620095819L148.64254148999848,123.69312902735996L148.75808548986117,123.69414113151105L148.7773428231716,123.69477166932245L149.13360348941484,123.69555827992747L149.2467403226137,123.6961582605546L149.4056133224249,123.69670057227675L149.81483165527186,123.69749437514017L149.94722582178116,123.69812291624812L150.0940629882733,123.69866781718332L150.1759066548427,123.69908785902743L150.4719881544908,123.69968028569988L150.5153171544393,123.70008520175995L150.88602082066535,123.70075292599968L151.17488082032204,123.70148329425416L151.4252261533578,123.7022085774961L151.5046626532634,123.70273393930918L151.65872131974697,123.70322566091272L151.682792986385,123.70354784841572L151.8729591528257,123.70395936704958L151.90906665278274,123.70424797984622L152.61677365194163,123.70523093472534L152.63603098525206,123.70584204336348L152.7780538184166,123.70637163579164L152.8117541517099,123.70672721364474L153.35095948440235,123.70755832616152L153.36780965104896,123.70807638977223L153.3774383177042,123.70839789579398L153.38706698435942,123.70860146726238L153.72647748395602,123.70911153215596L153.80591398386161,123.70950873276502L153.83239281716345,123.70977808689148L154.2319824833552,123.71039453792702L154.26808998331228,123.71080611016467L154.3186404832522,123.71111027200413L154.3547479832093,123.7113335009191L154.63879364953837,123.71179232295358L155.18040614889463,123.71268538197918L155.56314564843973,123.7136566598536L155.61610331504346,123.71430052429523L155.7220186482509,123.71480709878406L155.78941931483746,123.71518765807485L156.00124998125236,123.71565747510209L156.3141816475471,123.71629625356996L156.42250414741832,123.71680268588966L156.93041631348132,123.71768454908013L157.1855759798447,123.71850557830882L157.19279747983614,123.71900595428627L157.25538381309508,123.71937697564005L157.33000597967307,123.71968493129505L157.76088881249427,123.72036042603389L157.7729246458133,123.72077930014763L157.79218197912374,123.72105196032658L158.18214297866027,123.72166069694327L158.30972281184197,123.72217043986296L158.7911561446031,123.72302422545746L159.0920519775788,123.7238788379902L159.6047784769694,123.72497542813868L159.68421497687498,123.72572357409567L159.78531597675482,123.72628786846859L159.91289580993651,123.726770946042L160.09343330972195,123.72726736105771L160.1271336430152,123.72760303246335L160.14398380966188,123.72782286160233L160.33655714276634,123.72817490482782L160.76743997558754,123.72887588230392L160.8468764754931,123.7293866606575L161.2777593083143,123.73018384901546L161.99990930745602,123.7314826170867L162.01435230743886,123.73227836461498L162.44523514026005,123.73324556467276L163.1096131394704,123.73458136282679L164.39744730460643,123.73684142848624L164.52021280446053,123.7383361500014L164.74648647085826,123.73948804163372L165.02571780385972,123.74049533305332L165.15811197036902,123.74124808807485L165.2303269702832,123.74178217451544L165.41808597006005,123.7423140438766L165.48307946998278,123.74270687067568L165.52400130326748,123.74298911739663L165.58418046986264,123.7432263517814L166.1282001358827,123.74398257899705L166.1667148025036,123.74448092635788L166.18115780248644,123.74479545165488L166.72999180183413,123.74560387224807L166.84312863503297,123.74621596906309L167.13439580135346,123.74691296086273L167.59657180080416,123.7478519412443L167.63508646742503,123.74845994050472L167.7073014673392,123.74890523387853L167.8685816338142,123.74935473324871L167.90228196710746,123.74966225526704L168.70868279948235,123.75075644559737L168.93254929921628,123.75166510910373L168.9469922991991,123.75222776369807L168.99994996580284,123.75262451456162L169.21659496554534,123.75310695594762L169.64507063170274,123.75387938368479L169.7124712982893,123.75441848511954L169.93633779802323,123.75499506509355L170.11687529780866,123.75554467213453L171.202507463185,123.7570983303086L171.40230229628085,123.7582555199803L171.57321112941105,123.75914185517951L171.8067062958002,123.75993744326755L171.83559229576588,123.7604467996864L171.96317212894758,123.76089594468235L172.1942601286729,123.76142630923331L172.54570646158857,123.76214020841667L173.65059596027533,123.76381280778182L173.8431692933798,123.76503263392289L174.55809779253005,123.76656946778348L174.63271995910802,123.76757594113757L174.65197729241848,123.76820116086071L175.41986345817247,123.76944038897747L175.78093845774333,123.77059027415564L176.25274312384923,123.77181068861464L176.5849321234544,123.77291534242205L176.75343378992082,123.77376627688257L176.75584095658462,123.774280716779L176.9580429563443,123.77481534528917L177.33837528922558,123.77556186680398L177.60316362224418,123.77630557024742L177.80536562200388,123.77697775688577L178.10144712165197,123.77771177238445L178.3662354546706,123.77844894202323L178.54677295445603,123.77909199344796L178.6719456209739,123.77961844603234L179.3603952868223,123.78070240316777L179.3844669534604,123.7813809017949L179.389281286788,123.78179284999635L179.78405661965212,123.78248128020647L180.27030428574088,123.78343839895507L180.5110209521214,123.78428033639287L180.53749978542328,123.78481556281152L180.66748678526878,123.7852821694174L181.12725561805567,123.78607516024249L181.197063451306,123.78662950894505L181.2403924512545,123.78700963861314L181.4401872843504,123.78746077157118L181.62072478413583,123.78793317079251L181.69534695071377,123.788300013558L181.80607661724886,123.78864522406633L181.98420695037046,123.78905019059772L182.08530795025032,123.78940469809515L182.24418095006146,123.78979487691433L182.720799949495,123.79056237697304L182.81949378271102,123.7911324649768L183.06261761575539,123.79174606318782L183.662002115043,123.79278241778098L184.23009344770114,123.79403751322232L184.50210328071117,123.79509508926691L184.83910661364396,123.79610397963577L185.22666044651666,123.79714184690103L185.29406111310323,123.79784021205263L185.4023836129745,123.79837948696746L186.41098644510905,123.79982705594762L186.49283011167842,123.8007877288137L186.58670961156685,123.80146887147671L188.3920846094211,123.80388796290438L188.3944917760849,123.80534232717606L188.43541360936962,123.80626052657554L188.66890877575875,123.80707135396364L188.79167427561285,123.80769362310085L188.99146910870869,123.80829003974037L189.17922810848555,123.80885639780583L189.99525760751564,123.81010201054431L190.1372804406802,123.81100745640751L190.57779194015663,123.81203853585615L190.5801991068204,123.8126591231354L190.6114922734499,123.81306541867905L190.9509027730465,123.81368548035738L191.07126110623676,123.81419038065366L191.26142727267742,123.8147037685232L191.31197777261735,123.81506804993677L191.7597107720852,123.81578218915587L191.82470427200792,123.81628146845462L191.89691927192212,123.81666056004644L192.08708543836278,123.81709943249835L192.368723938028,123.81767503318957L193.67581543647447,123.81946443329588L193.6854441031297,123.82054971102005L193.7600662697077,123.8212833110822L193.84672426960466,123.82181851201257L193.96948976945876,123.82227540527515L194.15243443590802,123.82275126067923L194.77589060183365,123.82372533549386L194.97087110160194,123.82452604690464L195.63524910081227,123.82573964635475L195.7363501006921,123.82658030340843L196.01076710036594,123.82738727681041L196.31407010000547,123.82820701339243L196.3766564332644,123.82876771149887L196.65588776626586,123.82941252836267L197.02659143249195,123.83020770639911L197.16139276566506,123.83083416319579L197.28415826551915,123.83134580997819L197.33711593212286,123.83171195615454L197.41655243202845,123.83201892631317L197.47673159862362,123.83226905515045L197.86187826483248,123.83284390705654L198.04963726460934,123.8333963564769L198.10018776454925,123.83378310501587L198.10259493121308,123.83401806355437L198.10740926454068,123.83416485750763L198.35294026424887,123.83452350948335L198.36016176424025,123.834746459109L198.4564484307925,123.83498690743785L198.7308654304663,123.83543472540995L199.12804792999427,123.83613982845728L199.48912292956513,123.83696148015353L199.66966042935056,123.83765425100773L199.8164975958427,123.83823090115544L200.22571592868962,123.83902882038865L200.56031209495862,123.83987609784046L201.59539376039504,123.84152495502833L201.69408759361107,123.8426238573096L201.7061234269301,123.84329580614377L201.819260260129,123.84382311048827L201.9636902599573,123.84429951092514L202.01905509322486,123.84464644890423L202.22847859297593,123.84508542528911L202.65213992580573,123.84581528734012L202.66899009245236,123.84627163086628L204.28419892386594,123.84831436135907L204.37085692376294,123.8496350405478L204.9461697564125,123.85105685152632L205.0207919229905,123.85199237154112L205.73812758880456,123.85333922562532L205.78145658875306,123.85419388871736L205.97402992185752,123.85491713426435L206.12327425501346,123.85551497864284L206.28696158815225,123.85605212939569L206.84301708749135,123.85698248760202L206.84783142081895,123.857546521356L207.15113442045848,123.85821564512406L207.2546425870021,123.85873155637859L207.541095419995,123.85935435015641L208.0538219193856,123.86028857373117L208.1765874192397,123.86098391077539L208.5232194188277,123.8617793369641L208.63635625202656,123.86238072772136L208.71338558526833,123.86282593521344L208.9179947516918,123.86331611486585L209.19722608469326,123.86391474143716L209.21407625133992,123.86429331348054L209.24055508464178,123.8645495508575L209.59922291754881,123.86509509451633L209.9001187505245,123.86575021481221L210.20342175016404,123.86647593011546L210.5307964164416,123.86726824754894L210.699298082908,123.86792790096496L210.97130791591803,123.86862045335414L211.35404741546313,123.8694530009511L211.5923569151799,123.87021340706268L212.05453291463058,123.87117394934592L212.15563391451042,123.87186180229443L212.33135708096822,123.87246556565472L212.46856558080515,123.87297814345075L213.696220579346,123.87462499087655L213.8599079124848,123.8757915434578L214.04525974559783,123.87669319445305L214.0789600788911,123.87727200744641L214.17283957877953,123.87772112477073L214.2498689120213,123.87807399839801L214.51706441170376,123.87857860369382L214.98164757781825,123.87938760509763L215.14774207762082,123.88005338967574L215.24402874417305,123.88055759936599L215.67491157699425,123.8813304806203L215.7302764102618,123.88185433728484L215.913221076711,123.88236746131497L216.19245240971247,123.88297888470784L216.2526315763076,123.88341071568067L216.56797040926617,123.88401118563536L216.58482057591277,123.88438989390377L216.64018540918033,123.88467627697173L216.71962190908593,123.8849344194603L216.72925057574113,123.88509997280877L216.8857164088885,123.88536902069833L217.04218224203586,123.88570113511757L217.4899152415037,123.88638433647972L217.58379474139213,123.88689608682532L217.62230940801302,123.887244838649L217.96894140760105,123.88782940429033L218.03152774085999,123.88824803002731L218.12059290742081,123.88859618597263L218.6333194068114,123.8893598080177L218.72719890669984,123.88991981077304L218.73201324002744,123.89025969164638L218.92217940646808,123.89067018864202L219.04253773965834,123.89104741051865L219.08827390627067,123.89132417350625L219.33380490597884,123.89175595787738L219.96929690522353,123.89270262026724L220.24130673823356,123.89356446862564L220.32555757146676,123.89417370911863L221.34378907025655,123.89563998212495L221.65190640322368,123.8968533588595L222.06112473607064,123.89802361599449L222.49682190221947,123.89919709552069L222.63162323539257,123.90004762379613L222.725502735281,123.90065880048465L223.0191770682653,123.90134360254802L223.11787090148133,123.90186116233949L223.2310077346802,123.90229389364832L223.31285140124956,123.90264081488641L223.45968856774172,123.90300898545945L223.50301756769022,123.90327643844478L223.68355506747562,123.90363184104724L224.04703723371028,123.9042378536464L224.17220990022818,123.90473723391028L224.50921323316098,123.90540053895533L225.09415473246574,123.90643083486276L225.70076073174477,123.90770363080334L226.0883145646175,123.90888626414119L226.20385856448013,123.90971997918791L226.67084889725845,123.91072547663725L226.74787823050022,123.91141217833953L226.76713556381065,123.91184553507159L226.88749389700095,123.91223453317998L227.22209006326992,123.91282869951667L227.25819756322701,123.91322496132494L227.41707056303818,123.91363340409544L227.7203735626777,123.91420626385829L227.9249827291012,123.91477012545812L228.05496972894667,123.91525003395256L228.24272872872353,123.91573872869071L228.58454639498393,123.91640144125053L228.72897639481226,123.91695520739646L228.76749106143316,123.91732916870035L228.80600572805406,123.91759524709903L228.89507089461486,123.91785090483634L229.0876442277193,123.91821183775542L229.26577456084092,123.91862041890306L229.45112639395396,123.91906340781804L229.90367372674945,123.91981410368265L229.97829589332738,123.92034501501902L230.05773239323298,123.92074890466361L230.21179105971655,123.92115610530564L230.30567055960495,123.92150128541415L230.3321493929068,123.92173651782514L230.48380089272658,123.92204058451699L231.0518922253847,123.9228330318968L231.1217000586351,123.92338220550704L231.28298022511007,123.92388433496876L232.17603905738193,123.92514378001671L232.54914989027182,123.92629803691332L232.63340072350502,123.9270807829192L232.65025089015165,123.92756885681834L232.96558972311018,123.92819919330869L232.99688288973968,123.928611338379L233.10761255627474,123.92897694163501L233.17019888953368,123.92926322013577L233.30018588937918,123.92957463916073L233.51442372245788,123.92999133436813L234.44118288802306,123.93123346203956L234.57839138786,123.93212614900719L234.83355105422336,123.93293427640154L234.99001688737076,123.93358595930354L235.098339387242,123.93409237584345L235.46182155347665,123.93478608738998L235.49070755344232,123.9352333480789L235.97214088620345,123.9360176407689L236.12619955268698,123.93665211343318L236.20082171926498,123.93711232104431L236.23211488589448,123.9374223887871L236.80261338521638,123.93821843679743L236.96389355169137,123.9388686908992L237.5247633843581,123.93985915267464L237.7462227174282,123.94069006216752L237.86417388395466,123.94131468251732L238.1217407169819,123.94196584916111L238.69223921630382,123.94296558670705L238.9401773826758,123.94383018600814L239.14478654909928,123.94456715172083L239.18330121572018,123.94505006295977L240.10283888129393,123.94632319200484L240.14376071457863,123.94712974085328L240.41095621426106,123.94789976264656L240.45669238087336,123.94841123577913L240.65167288064163,123.94892565793535L240.78647421381473,123.94937881217876L240.80091721379756,123.94966525180027L241.28716487988632,123.95035693106993L241.4532593796889,123.95094844314744L241.48455254631838,123.95133729357003L241.7998913792769,123.95190712616944L242.93125971126557,123.95345352357793L243.30196337749166,123.95477510286574L243.35010671076776,123.95561945010508L243.8459830435117,123.95665266258067L244.08188537656466,123.95752182995906L244.19502220976352,123.95816358620998L244.2648300430139,123.95862234514291L244.62590504258475,123.95928067349001L244.67404837586085,123.95972707016494L244.68126987585228,123.96000266661014L244.83051420900821,123.96032610269737L244.88587904227575,123.9605783526516L244.89310054226718,123.96073746106435L245.3769410416921,123.96134595297357L245.5526642081499,123.96189822049014L245.7572733745734,123.96244584752206L245.81985970783234,123.96284037048333L246.12316270747183,123.9633990595305L246.2748142072916,123.96389526059397L247.08602937299412,123.96505222848978L247.28582420608998,123.96595879652911L247.42784703925452,123.96665305713256L247.43266137258212,123.96707446251978L247.50728353916008,123.96740585995965L247.6781923722903,123.96778605196442L248.24146937162084,123.96861059726153L248.47496453800997,123.96935262472277L249.07194187063376,123.97043112388494L249.55818953672252,123.97159222004882L250.1070235360702,123.97286882115586L250.4921702022791,123.97404306973824L251.2600563680331,123.97556031550391L251.34671436793008,123.97656182463625L251.36597170124054,123.97718309602129L251.63557436758677,123.97784098153153L251.72704670081137,123.9783326933408L252.23255170021056,123.97916208299858L252.4901185332378,123.97993223200706L252.82471469950676,123.98074830024856L252.88970819942952,123.98130679735067L253.19541836573285,123.98196484068737L253.52520019867418,123.98270782669562L253.66000153184734,123.98329617964016L253.7370308650891,123.98373065502952L253.9079396982193,123.98417172399894L253.9970048647801,123.98453043646865L254.82266303046543,123.98561848847861L255.03690086354413,123.98649728425688L255.09226569681167,123.98708371983074L255.23669569664003,123.98758784056497L255.25595302995046,123.98790970910615L255.45815502971013,123.98831715714276L255.88422352920372,123.98901161549924L256.0767968623082,123.98963000995963L256.27899886206785,123.99021343393773L256.3752855286201,123.99066531785287L256.44750052853425,123.99101112318937L256.6039663616816,123.99138347324657L256.6809956949234,123.99168834690352L257.6101620271524,123.99284592515414L257.9423510267576,123.99388863211074L258.11085269322393,123.99469076080041L258.27935435969033,123.99534854252988L258.37082669291493,123.99584019207069L258.56821435934705,123.99634272007188L258.67412969255446,123.9967557644512L258.8185596923828,123.99715391085863L259.00150435883205,123.99758482009929L259.13871285866895,123.9979868967883L259.35295069174765,123.99845313756899L259.47571619160175,123.99886186610654L259.4829376915932,123.99911486166931L259.67551102469764,123.99946837845351L259.94029935771624,123.99995882256799L259.9643710243543,124.00027733416246L260.3085958572785,124.00083017839583L260.4843190237363,124.00134517808675L260.94649502318697,124.00213908041694L261.1149966896534,124.00279192633076L261.23294785617986,124.00330776892304L261.2762768561284,124.00366285531489L261.4303355226119,124.00403689478517L261.78900335551896,124.00463760281951L262.3570946881771,124.00559154831925L262.51356052132445,124.00632878247441L263.0311013540427,124.00731033456489L263.5991926867008,124.00849084688826L263.64974318664076,124.00925249355902L263.8543523530642,124.00992283866834L263.8591666863918,124.0103298947591L264.5091016856193,124.01125008252035L264.7425968520085,124.01204561623996L264.785925851957,124.0125685173082" fill="none"></path></g></g></g></g><g opacity="0.2"><g><g><g><path style="fill: none;" stroke="rgb(0, 119, 187)" stroke-width="2px" d="M24.172767637936275,1.7096111013470932L24.29794030445417,10.262942347452707L24.47366347091198,21.26524465465502L24.62290780406793,29.764674137121915L24.634943637386957,30.41844880286081L24.728823137275377,35.363601033977034L24.817888303836188,39.8116312060576L24.83714563714663,40.74339078596344L25.212663636700313,56.97139052373157L25.36190796985626,62.49748506273734L25.465416136399906,66.05750355987318L25.482266303046543,66.61699378047072L25.597810302909213,70.3090706287164L25.629103469538688,71.26696160519018L25.79038363601367,75.93619945588122L26.0166573024114,81.78989898347957L26.512533635155357,92.21345559118824L26.637706301673255,94.40215037798917L27.280419800909357,103.43868698093158L27.290048467564585,103.54999150437195L27.405592467427255,104.83807199984668L27.422442634073892,105.01878062035081L27.52835796728134,106.11493185110947L28.14218546655178,111.29310883514242L28.245693633095424,111.99803101823116L28.25291513308684,112.04564602075459L28.58991846601963,114.05894186959766L28.686205132571857,114.56525525581736L28.97265796556473,115.91409646101457L29.11708796539307,116.51349900767454L29.36502613176505,117.4319407399883L29.516677631584802,117.93176128152356L29.62500013145606,118.26270724844892L29.82238779788812,118.81464753687791L29.935524631086984,119.10355972923489L30.053475797613462,119.3852008083698L30.05588296427727,119.39075051766133L30.084768964242937,119.45673362747723L30.166612630812327,119.63777440620458L30.53490913037459,120.35377418726317L30.667303296883905,120.57592015224145L31.38463896269798,121.52270928561963L31.846814962148667,121.95392824375449L31.885329628769558,121.98491108999141L32.02735246193409,122.09335711310206L32.78079562770526,122.54053178851412L32.78560996103287,122.54280840582504L32.90596829422315,122.59769452157053L33.07687712735335,122.66935099081945L33.25260029381116,122.73600326610696L33.269450460457804,122.74204515145186L33.527017293485,122.82746315409469L33.59441796007157,122.84779754108811L33.786991293176015,122.90172354985262L34.17213795938492,122.99320525845354L34.4634051257054,123.05013038927729L34.663199958801265,123.08403234865835L34.88465929187139,123.11735727404583L34.925581125156086,123.1230670011675L35.32757795801163,123.17263616082897L35.59718062435786,123.2000913412646L36.03769212383429,123.23688331963889L36.36265962344806,123.25877424370753L36.43006029003461,123.26284257581376L36.9379724560976,123.28910004703576L36.97167278939088,123.29060082032166L37.42903445551395,123.30846220448532L37.74196612180869,123.31840513056855L37.847881455016136,123.32142122421584L38.05249062143962,123.3267987931143L38.18729195461273,123.33004521545652L38.20414212125937,123.33043556198162L38.29080012115637,123.33239456814482L38.490594954252245,123.33659867295543L38.99609995365143,123.34557179400737L39.04183612026373,123.34628217619277L39.210337786730136,123.34877457512317L39.89638028591474,123.35719733181988L39.9661881191651,123.35792468559333L40.19727611889044,123.36019160485395L40.22616211885612,123.36046072575014L40.570386951780314,123.36345014975907L40.83998961812655,123.36554735313922L41.294944117585814,123.36868224790285L41.8413709502697,123.37192624573248L42.02912995004654,123.37293969199018L42.036351450037955,123.37297848419142L42.15189544990063,123.37357733879824L42.81868061577479,123.37675829930086L42.84275228241285,123.37686740236688L42.927003115646045,123.37723835279134L43.30733544852734,123.37886035170615L43.487872948312756,123.37959497901736L43.7622899479866,123.38068358516497L43.86098378120264,123.38106665815232L44.20280144746303,123.38235649884393L44.23650178075632,123.382482573498L44.5277689470768,123.38354693451984L44.55184061371485,123.38363421697265L44.77570711344878,123.38443430612345L45.44249227932294,123.38674486661048L45.56285061251322,123.3871546092362L45.579700779159865,123.38720794851294L45.71931644566059,123.38768072846568L46.3620299448967,123.38981187502193L46.862720610968275,123.39144114747448L47.06973694405556,123.39210788843349L47.10103011068503,123.39220971796178L47.41636894364357,123.3932183151943L47.76540810989539,123.39432874195512L47.91946677637895,123.39482091800849L48.80771127532323,123.39762365454891L48.82456144196988,123.39767456931305L49.10379277497133,123.39854981835379L49.29636610807577,123.39915352198577L49.39987427461942,123.39947598215866L49.604483441042895,123.40011605347931L49.96555844061374,123.40124345182818L50.02092327388127,123.40141559222123L50.31459760686556,123.4023320579758L50.32181910685698,123.402353878589L50.468656273349126,123.4028096869537L50.487913606659575,123.40287272428074L50.59864327319463,123.40321458055425L50.7960309396267,123.40383040674912L51.55910277205308,123.40619673102546L51.68668260523478,123.4065919265757L51.83111260506312,123.40704046140266L51.91295627163251,123.40729503522337L52.19940910462538,123.40817998231444L52.377539437747,123.40873034666967L52.88304443714618,123.4102965817952L52.895080270465215,123.41033294948387L53.352441936588285,123.41174644031696L53.6557449362278,123.4126871511973L54.57287543513775,123.4155165573761L55.06875176788171,123.41704400030036L55.21799610103766,123.41750465769022L55.4466769340992,123.41821019085047L55.51167043402195,123.41841142539445L55.62721443388462,123.41876782874346L56.332514266379675,123.4209426165261L56.67914626596769,123.42201182657311L56.80191176582177,123.42239247504787L56.8572765990893,123.42256219092835L57.31463826521237,123.42396840822371L57.492768598333996,123.42451634806639L57.9645732644399,123.42596620658816L58.303983764036495,123.42700874699679L58.47970693049431,123.42754698878915L58.58562226370176,123.42787429798722L58.84800343005657,123.42868166067575L59.30777226284345,123.43009272699626L59.37998726275762,123.43031335764088L59.425723429369924,123.43045397937041L59.647182762440046,123.43113284289231L59.71939776235421,123.4313558980495L59.87345642883777,123.43182625348969L59.919192595450085,123.43196687521922L60.959088594214116,123.43515753377216L61.31775642712116,123.43625826248265L61.32257076044877,123.43627038504553L61.39960009369055,123.4365079872782L61.96046992635727,123.43822454218358L62.0182419262886,123.43840153160178L62.86556459194819,123.44099818457305L63.18571775823434,123.44197768765464L63.359033758028346,123.44250865590928L64.26412842361927,123.44527744927358L64.5337310899655,123.4460993590376L64.64927508982818,123.446453337874L64.75037608970801,123.44676367548402L65.15237292256356,123.44799290336117L65.22699508914152,123.44822080754354L65.69639258858362,123.44965369447725L65.75657175517877,123.4498379574332L65.8095294217825,123.44999797526336L66.30059142119885,123.45149874854926L66.33429175449213,123.45160300259013L66.40409958774248,123.45181393518443L66.42335692105293,123.4518745479989L67.5571324197054,123.45533432744799L68.48629875193437,123.45816615813933L69.70673225048384,123.46188536043431L70.08706458336512,123.4630442774467L70.21464441654683,123.46343219945919L70.460175416255,123.4641789493333L71.08603874884446,123.46608461621976L71.34841991519927,123.46688228085799L71.38212024849257,123.46698653489887L71.56747208160559,123.46755144632958L71.84429624794325,123.46839032768165L72.06575558101336,123.46906434217837L72.20296408085028,123.46948135834182L72.29925074740251,123.4697747243638L72.34257974735101,123.4699080725556L72.36424424732526,123.46997110988262L72.54718891377449,123.47052874777562L72.80234858013789,123.47130459180065L72.82160591344834,123.47136278010251L72.99251474657854,123.47188162579425L73.27415324624378,123.47273747873436L73.51246274596056,123.47345998348267L73.51486991262436,123.4734672570204L73.56782757922808,123.47362969936314L73.60634224584898,123.47374850047947L74.0901827452739,123.4752153305893L74.09740424526532,123.47523715120249L74.2153554117918,123.4755935545515L74.27312741172314,123.4757705439697L74.81473991107941,123.47741436349773L74.96879857756296,123.47787986991274L75.12526441071033,123.47835507437807L75.18062924397786,123.47852479025855L75.39005274372896,123.47916001255405L75.56336874352296,123.47968613178351L75.8811147431453,123.48064866327707L76.66344390888214,123.48302226109112L77.04377624176342,123.48417390456578L77.61908907441298,123.48591470459692L77.73222590761185,123.48625656087046L77.82369824083646,123.48653537981694L77.89109890742301,123.48673903887351L78.16551590709686,123.48757064668783L79.05135323937733,123.49024973308676L79.76868890519142,123.49241967184426L79.79276057182948,123.49248998270903L79.89867590503692,123.49281244288193L79.96126223829587,123.49300155486301L80.06958473816712,123.49333128857367L80.12494957143466,123.49349615542897L80.30548707122009,123.49404167075907L80.46436007103125,123.49452172424955L80.7363699040413,123.49534363401357L81.04930157033603,123.49629161843166L81.07578040363789,123.49636920283416L81.123923736914,123.49651709810144L81.69442223623594,123.49823850203195L82.03383273583252,123.49926164633996L82.19752006897133,123.49975382239333L82.52248756858508,123.50073817450009L82.5273019019127,123.5007478725504L82.6187742351373,123.50102669149689L82.67413906840484,123.50119398286478L83.33851706761519,123.5031966302544L83.57441940066815,123.50390943695237L83.59367673397858,123.50396520074167L84.01252373348078,123.5052307963075L84.09196023338636,123.50547082305275L84.27009056650797,123.50600664033253L84.36397006639639,123.5062878837916L84.57098639948369,123.50691340803678L84.85984639914037,123.50778623256494L85.050012565581,123.50835599302081L85.19203539874553,123.50878513174715L85.9021495645682,123.51092112732856L86.20545256420772,123.51183274405795L86.28970339744092,123.51208974239125L86.46783373056253,123.51262313515846L86.81687289681435,123.51367294910482L86.8770520634095,123.51385478754818L87.03111072989306,123.51431544493805L87.06481106318633,123.51441727446633L87.38737139613627,123.51538950401019L87.62808806251685,123.51611200875851L87.78936822899183,123.51659691127415L88.57651172805626,123.51896566006306L88.57891889472008,123.5189705090882L88.65354106129806,123.51919598875799L89.40698422706922,123.52145805899346L89.43587022703488,123.5215429169337L89.4454988936901,123.5215744355972L89.44790606035392,123.52157928462236L89.72473022669156,123.52241089243668L90.28078572603067,123.5240789570905L90.51668805908362,123.5247893392759L90.55760989236832,123.52491056490481L90.60093889231682,123.52504148858404L91.05107905844847,123.5263919420901L91.2701312248548,123.52704656048621L91.35197489142418,123.52729386076919L91.39530389137269,123.52742235993584L92.24503372369608,123.52997052265553L92.52667222336135,123.53081425303274L92.55796538999081,123.5309088090233L92.77942472306093,123.53157070095716L92.84923255631129,123.53178163355145L92.94311205619971,123.53206287701053L93.80728488850593,123.5346474074189L93.86987122176488,123.53483409488743L93.96856505498091,123.53512988542195L94.02874422157606,123.53531172386532L94.36334038784504,123.53631304756013L94.51258472100099,123.53675673336194L95.01327538707257,123.53825750664785L95.05179005369345,123.53837145873902L95.22992038681507,123.53890485150623L95.35027872000535,123.5392636793678L95.67765338628291,123.5402431824494L95.87504105271499,123.54083476351849L96.29870238554477,123.5421003590843L96.36128871880372,123.54228462204026L96.50812588529587,123.5427258833295L96.70551355172793,123.54331746439857L96.87160805153052,123.54381206496453L96.97030188474655,123.54410785549906L97.0738100512902,123.54441334408392L97.39155605091254,123.54536617752716L97.41803488421439,123.54544133741709L97.75985255047479,123.5464620572125L97.98612621687253,123.54713849622183L98.0198265501658,123.54723790123754L99.6711428815365,123.55216451079644L99.76020804809728,123.55243120718006L100.36922121404011,123.55424716710112L100.63882388038635,123.55504725625194L100.79528971353372,123.55551761169211L100.81213988018035,123.5555636774311L100.94694121335347,123.55596614651907L100.96860571332772,123.5560291838461L101.11062854649225,123.5564534735473L101.14192171312173,123.55654802953785L101.51984687933921,123.55767300337413L101.59928337924481,123.55790818109423L102.1481173785925,123.55953987805935L102.40568421161969,123.56030844854665L102.68250837795733,123.56113035831066L102.80045954448381,123.56148191263449L102.93526087765693,123.5618819572099L103.25300687727928,123.56282509260282L103.27226421058973,123.56288328090471L103.59001021021206,123.56382641629763L103.87405587654114,123.56467257118742L103.93904937646388,123.56486653219369L103.9438637097915,123.56488107926916L104.160508709534,123.56552357510238L104.32901037600041,123.56602544920605L104.4108540425698,123.5662654759513L104.47825470915636,123.56646671049529L105.26058387489319,123.56878696903264L105.28224837486744,123.56885243087225L105.3111343748331,123.56893728881249L105.35687054144542,123.56907306151686L105.39779237473012,123.56919428714579L105.52777937457562,123.56957978464573L105.55666537454128,123.56966706709852L105.61684454113642,123.56984405651673L105.70590970769723,123.57010832838776L105.95625504073303,123.5708502292367L106.00199120734533,123.57098600194107L106.25474370704492,123.57173760084032L106.78672753974595,123.57331353401617L106.83727803968588,123.573463853796L106.9696722061952,123.57385662483367L107.17909570594628,123.5744773000537L107.3572260390679,123.57500584379574L107.80014470520814,123.57631508058797L109.12408637030126,123.5802403664521L109.17463687024117,123.58039068623194L109.19389420355161,123.58044645002124L109.23000170350869,123.5805507040621L109.48516136987209,123.58130715198651L109.70180636961459,123.58194722330715L110.17842536904813,123.5833558651151L110.19527553569476,123.58340435536667L110.36618436882496,123.58390865398293L110.61652970186076,123.58464813031927L110.65745153514544,123.5847693559482L110.81873170162042,123.5852469849261L111.3218295343558,123.58673078662395L111.39163736760617,123.58693687019311L112.24377436659336,123.5894510897367L112.31598936650752,123.58966687135617L112.36172553311984,123.58980021954797L112.57596336619854,123.59043301733088L112.70113603271643,123.59080154324278L112.77575819929442,123.59102217388738L112.91296669913133,123.59142706748796L113.54364436504841,123.59328666863543L113.62308086495399,123.59352427086809L114.23209403089683,123.59531841017596L114.31393769746622,123.59555601240862L114.97590853001277,123.59751259405924L115.245511196359,123.59830540967232L116.00617586212158,123.60054323478201L116.1385700286309,123.60092873228194L116.60074602808157,123.60228888383833L116.63926069470246,123.60240041141691L116.66573952800432,123.602480420332L117.08940086083412,123.60372419528461L117.22901652733485,123.6041363624229L117.27715986061096,123.60427698415245L117.56601986026763,123.60512556355482L117.90543035986424,123.60612446273704L117.96320235979557,123.60629417861752L118.29057702607314,123.60725428559849L118.52166502579848,123.60793557363297L118.66368785896302,123.60834774077126L118.69016669226487,123.60842774968634L119.6409975244681,123.61121836366385L119.70839819105466,123.61141717369526L119.83116369090875,123.61177842606942L120.0646588572979,123.61246213861648L120.13928102387587,123.61268034474853L120.1513168571949,123.61271671243719L120.4064765235583,123.61346588682385L121.07085452276867,123.61541519493673L121.56191652218502,123.61685293089562L121.91577002176443,123.61789062227908L121.95428468838533,123.61800214985769L121.96391335504056,123.61803124400862L122.04334985494613,123.61826399721613L122.09149318822226,123.61840461894566L122.26721635468006,123.61891861561224L122.86178652064005,123.62065699113083L123.07361718705495,123.62127766635084L123.3528485200564,123.62209230257712L123.41784201997916,123.62228141455822L123.58634368644556,123.6227735906116L123.75003101958434,123.62325364410208L123.94741868601639,123.62383067809569L124.06296268587907,123.62417010985664L124.10147735249996,123.62427921292266L124.86214201826255,123.62650249095688L125.20395968452294,123.62750139013909L125.49522685084344,123.62835239405405L125.76001518386205,123.6291258135665L125.98869601692358,123.62979497903808L126.25589151660601,123.63057324757568L126.29922051655451,123.63070174674233L126.8047255159537,123.63217585038988L127.49317518180212,123.63418577131722L127.53409701508681,123.63430457243355L127.62797651497523,123.63458096686747L128.24902551423708,123.6363896532508L128.82674551355043,123.6380698404675L128.91099634678363,123.63831714075047L129.04098334662913,123.63869536471267L129.11801267987093,123.63891841986987L129.29132867966493,123.63942271848614L129.35632217958766,123.63961183046725L129.36595084624292,123.6396385001056L129.51760234606266,123.64008218590742L129.93885651222865,123.64130656475942L129.97014967885812,123.64139869623739L130.16272301196258,123.64195633413038L130.1723516786178,123.64198542828132L130.25900967851481,123.64224000210203L130.46843317826588,123.64284613024657L130.48528334491252,123.64289462049814L130.59119867811998,123.64320253359557L130.71877851130168,123.64357348402004L131.39519234383104,123.64553976372096L131.5396223436594,123.645959204397L131.9175475098769,123.64705750859491L131.95124784317017,123.64715691361063L132.3075085094134,123.64819218048152L132.6445118423462,123.64917168356311L133.14038817509015,123.650609419522L133.16205267506442,123.65067488136161L133.2896325082461,123.65104583178606L133.61460000785988,123.651988967179L133.70125800775688,123.65224111648712L133.9780821740945,123.6530436301505L134.41377934024334,123.65430922571633L134.88076967302163,123.65566210373498L135.01797817285856,123.65605729928524L135.2081443392992,123.65661008815306L135.2948023391962,123.65685981294862L135.56681217220623,123.65764777953653L135.60532683882712,123.65775688260254L135.7954930052678,123.65830967147039L136.00250933835505,123.6589085260772L137.6851188363552,123.66377694733424L137.78862700289883,123.66407516238135L137.9330570027272,123.66449460305739L137.9812003360033,123.66463280027435L138.26043166900476,123.6654401629629L138.38560433552266,123.66580141533706L138.530034335351,123.6662184315005L138.616692335248,123.66647058080864L138.7442721684297,123.66683668220793L138.7851940017144,123.66695790783686L138.81889433500766,123.66705488833998L138.87666633493902,123.66722217970788L138.90555233490468,123.66730461313554L138.99943183479309,123.66757615854429L139.03313216808638,123.66767313904742L139.33162083439828,123.66853384101267L139.48808666754564,123.66898722486482L139.54345150081315,123.66914724269498L139.79861116717657,123.66988429451874L140.05136366687617,123.67061649731737L140.16209333341124,123.6709341084651L140.8722074992339,123.67298767061885L141.6473151649793,123.6752206467034L141.97950416458448,123.67617832917178L142.6775824970881,123.67818582558654L142.8075694969336,123.67856162503615L142.86774866352874,123.6787337654292L143.17105166316827,123.67960658995736L143.36603216293653,123.6801690768755L143.51286932942867,123.68059094206411L143.55860549604097,123.68072186574334L144.44444282832146,123.68327002846303L144.56480116151172,123.68361673376172L144.78866766124568,123.68426165410753L144.82718232786655,123.68437318168611L144.89939732778072,123.68458168976784L145.07512049423852,123.6850859883841L145.34953749391238,123.6858763794846L145.94410765987237,123.68758566085225L145.9489219932,123.68759778341513L146.40146932599544,123.68889974666962L146.78661599220436,123.69000532440529L147.15972682509422,123.69107938347744L147.38359332482815,123.69172187931066L147.51598749133748,123.69210252778545L147.6604174911658,123.69251469492374L148.64254148999848,123.69532955402704L148.75808548986117,123.69565928773767L148.7773428231716,123.69571747603956L149.13360348941484,123.69673819583497L149.2467403226137,123.6970582314953L149.4056133224249,123.69751403986001L149.81483165527186,123.69868507943528L149.94722582178116,123.69906572791007L150.0940629882733,123.6994851685861L150.1759066548427,123.69971792179359L150.4719881544908,123.70056892570855L150.5153171544393,123.70069257585004L150.88602082066535,123.70175451235929L151.17488082032204,123.70257884663587L151.4252261533578,123.70329650235902L151.5046626532634,123.7035219820288L151.65872131974697,123.70396324331804L151.682792986385,123.70403112967023L151.8729591528257,123.70457664500033L151.90906665278274,123.7046808990412L152.61677365194163,123.70670536704398L152.63603098525206,123.7067587063207L152.7780538184166,123.70716602443385L152.8117541517099,123.70726058042439L153.35095948440235,123.70880499493671L153.36780965104896,123.70885348518829L153.3774383177042,123.70888015482663L153.38706698435942,123.708906824465L153.72647748395602,123.70987662949628L153.80591398386161,123.71010453367865L153.83239281716345,123.71018211808115L154.2319824833552,123.71131921448031L154.26808998331228,123.71142346852119L154.3186404832522,123.71156651476329L154.3547479832093,123.71166834429158L154.63879364953837,123.71248055600529L155.18040614889463,123.7140249705176L155.56314564843973,123.7151135766652L155.61610331504346,123.71526632095764L155.7220186482509,123.71556696051734L155.78941931483746,123.71575849701102L156.00124998125236,123.71636220064299L156.3141816475471,123.71725442127178L156.42250414741832,123.7175623343692L156.93041631348132,123.71900734386583L157.1855759798447,123.71973712215186L157.19279747983614,123.71975651825248L157.25538381309508,123.71993350767069L157.33000597967307,123.72014686477758L157.76088881249427,123.72137366814215L157.7729246458133,123.72140761131824L157.79218197912374,123.72146095059496L158.18214297866027,123.72257380186835L158.30972281184197,123.72293505424251L158.7911561446031,123.7243049038492L159.0920519775788,123.72516075678931L159.6047784769694,123.7266203133614L159.68421497687498,123.72684579303116L159.78531597675482,123.72713431002796L159.91289580993651,123.72749556240211L160.09343330972195,123.72801198358127L160.1271336430152,123.72810653957183L160.14398380966188,123.72815260531081L160.33655714276634,123.72870296966606L160.76743997558754,123.72992734851806L160.8468764754931,123.73015282818784L161.2777593083143,123.73137963155241L161.99990930745602,123.73343076919357L162.01435230743886,123.7334719859074L162.44523514026005,123.7346963647594L163.1096131394704,123.73658506005782L164.39744730460643,123.74023152697544L164.52021280446053,123.74057823227412L164.74648647085826,123.7412158790822L165.02571780385972,123.74200627018269L165.15811197036902,123.74237722060715L165.2303269702832,123.7425833041763L165.41808597006005,123.74311184791836L165.48307946998278,123.7432961108743L165.52400130326748,123.74341248747805L165.58418046986264,123.74358220335853L166.1282001358827,123.74511691982053L166.1667148025036,123.74522844739914L166.18115780248644,123.74526723960038L166.72999180183413,123.74681650313786L166.84312863503297,123.7471341142856L167.13439580135346,123.7479584485622L167.59657180080416,123.74926041181669L167.63508646742503,123.74937193939529L167.7073014673392,123.74957317393927L167.8685816338142,123.75002898230397L167.90228196710746,123.75012353829453L168.70868279948235,123.75239773109288L168.93254929921628,123.75302810436322L168.9469922991991,123.75307174558964L168.99994996580284,123.75321964085691L169.21659496554534,123.75383061802661L169.64507063170274,123.75503802529056L169.7124712982893,123.75522713727166L169.93633779802323,123.75585993505457L170.11687529780866,123.756369082696L171.202507463185,123.7594288175697L171.40230229628085,123.75999130448784L171.57321112941105,123.76047135797833L171.8067062958002,123.76113082539959L171.83559229576588,123.76121083431468L171.96317212894758,123.76156966217624L172.1942601286729,123.76222185605978L172.54570646158857,123.7632110571917L173.65059596027533,123.76632170682953L173.8431692933798,123.76686237313449L174.55809779253005,123.76887471857438L174.63271995910802,123.7690856511687L174.65197729241848,123.76913899044541L175.41986345817247,123.7712992311526L175.78093845774333,123.77231510192286L176.25274312384923,123.77364131030315L176.5849321234544,123.77457232313319L176.75343378992082,123.77504267857336L176.75584095658462,123.77505237662366L176.9580429563443,123.77561728805438L177.33837528922558,123.77668164907621L177.60316362224418,123.77742112541257L177.80536562200388,123.77798603684329L178.10144712165197,123.77881279563246L178.3662354546706,123.7795546964814L178.54677295445603,123.78005657058509L178.6719456209739,123.78040812490892L179.3603952868223,123.78232833887085L179.3844669534604,123.78239864973563L179.389281286788,123.78241077229853L179.78405661965212,123.78351392552162L180.27030428574088,123.78487407707797L180.5110209521214,123.78554324254958L180.53749978542328,123.7856184024395L180.66748678526878,123.78598207932622L181.12725561805567,123.7872646464801L181.197063451306,123.78746103199893L181.2403924512545,123.78757983311527L181.4401872843504,123.78813747100824L181.62072478413583,123.78864176962452L181.69534695071377,123.78885027770625L181.80607661724886,123.78916303982884L181.98420695037046,123.78965764039478L182.08530795025032,123.78993645934128L182.24418095006146,123.7903801451431L182.720799949495,123.79171362706111L182.81949378271102,123.79198759698244L183.06261761575539,123.79266646050434L183.662002115043,123.79433694967074L184.23009344770114,123.7959201563843L184.50210328071117,123.79668145333386L184.83910661364396,123.79761731518904L185.22666044651666,123.79869864779891L185.29406111310323,123.79888775978003L185.4023836129745,123.79918839933973L186.41098644510905,123.80199840941788L186.49283011167842,123.8022287381128L186.58670961156685,123.80249058547125L188.3920846094211,123.80751660004586L188.3944917760849,123.80752387358359L188.43541360936962,123.80763782567477L188.66890877575875,123.80828759504573L188.79167427561285,123.80862702680668L188.99146910870869,123.80918466469967L189.17922810848555,123.80970593490399L189.99525760751564,123.81197042965204L190.1372804406802,123.81236562520229L190.57779194015663,123.81358515502913L190.5801991068204,123.81359000405428L190.6114922734499,123.81367486199451L190.9509027730465,123.81461557287486L191.07126110623676,123.81494773109807L191.26142727267742,123.81547385032755L191.31197777261735,123.81561447205708L191.7597107720852,123.81685339798454L191.82470427200792,123.81703038740275L191.89691927192212,123.81722919743416L192.08708543836278,123.81775774117622L192.368723938028,123.8185384342264L193.67581543647447,123.82214853345535L193.6854441031297,123.8221776276063L193.7600662697077,123.82238371117543L193.84672426960466,123.82262131340809L193.96948976945876,123.82296074516904L194.15243443590802,123.82346504378532L194.77589060183365,123.82518644771584L194.97087110160194,123.8257271140208L195.63524910081227,123.8275600455299L195.7363501006921,123.82784128898899L196.01076710036594,123.82859773691338L196.31407010000547,123.82943661826545L196.3766564332644,123.8296087586585L196.65588776626586,123.83037975365836L197.02659143249195,123.83140047345378L197.16139276566506,123.83177384839084L197.28415826551915,123.83211328015179L197.33711593212286,123.83226117541906L197.41655243202845,123.83247938155108L197.47673159862362,123.83264424840641L197.86187826483248,123.83370618491566L198.04963726460934,123.8342250306074L198.10018776454925,123.83436322782435L198.10259493121308,123.83437050136209L198.10740926454068,123.83438504843755L198.35294026424887,123.8350614874469L198.36016176424025,123.8350808835475L198.4564484307925,123.83534757993112L198.7308654304663,123.8361064523681L199.12804792999427,123.83719748302829L199.48912292956513,123.83819395769794L199.66966042935056,123.83869340728904L199.8164975958427,123.83909587637703L200.22571592868962,123.84022569923846L200.56031209495862,123.84114701401819L201.59539376039504,123.84399824081017L201.69408759361107,123.8442722107315L201.7061234269301,123.84430372939502L201.819260260129,123.84461406700501L201.9636902599573,123.84501411158043L202.01905509322486,123.84516685587286L202.22847859297593,123.84574388986647L202.65213992580573,123.84691008041658L202.66899009245236,123.84695614615558L204.28419892386594,123.85137845709822L204.37085692376294,123.8516160593309L204.9461697564125,123.85318956799414L205.0207919229905,123.85339565156329L205.73812758880456,123.85535950675164L205.78145658875306,123.85547588335538L205.97402992185752,123.85600200258486L206.12327425501346,123.85641174521058L206.28696158815225,123.85685785552496L206.84301708749135,123.8583780249115L206.84783142081895,123.85839257198697L207.15113442045848,123.85921933077614L207.2546425870021,123.85950542326037L207.541095419995,123.86028854082313L208.0538219193856,123.86168990909334L208.1765874192397,123.8620269163417L208.5232194188277,123.86297247624722L208.63635625202656,123.86328281385721L208.71338558526833,123.86349374645152L208.9179947516918,123.8640513843445L209.19722608469326,123.86481268129407L209.21407625133992,123.86486117154564L209.24055508464178,123.86493390692297L209.59922291754881,123.86591341000457L209.9001187505245,123.866732895256L210.20342175016404,123.86756450307033L210.5307964164416,123.86845672369913L210.699298082908,123.86891738108898L210.97130791591803,123.86965928193791L211.35404741546313,123.87070182234655L211.5923569151799,123.87135401623007L212.05453291463058,123.87261476277075L212.15563391451042,123.87289358171724L212.33135708096822,123.87337121069515L212.46856558080515,123.87374701014477L213.696220579346,123.87709526201527L213.8599079124848,123.87754137232966L214.04525974559783,123.87804567094594L214.0789600788911,123.87814022693648L214.17283957877953,123.87839480075719L214.2498689120213,123.87860330883892L214.51706441170376,123.87933551163754L214.98164757781825,123.88060110720336L215.14774207762082,123.8810520665429L215.24402874417305,123.88131391390135L215.67491157699425,123.8824898025018L215.7302764102618,123.88264012228163L215.913221076711,123.88313714736017L216.19245240971247,123.88389601979713L216.2526315763076,123.88405846213988L216.56797040926617,123.88491189056742L216.58482057591277,123.88495795630641L216.64018540918033,123.88510585157367L216.71962190908593,123.88532163319313L216.72925057574113,123.88534830283149L216.8857164088885,123.88577259253267L217.04218224203586,123.88619930674643L217.4899152415037,123.88740913852297L217.58379474139213,123.88766371234368L217.62230940801302,123.88776796638454L217.96894140760105,123.88870625275231L218.03152774085999,123.88887596863279L218.12059290742081,123.8891184198906L218.6333194068114,123.89050524108535L218.72719890669984,123.89075981490606L218.73201324002744,123.89076951295635L218.92217940646808,123.89128593413551L219.04253773965834,123.89161324333358L219.08827390627067,123.89173931798766L219.33380490597884,123.89240363443407L219.96929690522353,123.89412261385203L220.24130673823356,123.89485724116322L220.32555757146676,123.89508756985816L221.34378907025655,123.89783939163442L221.65190640322368,123.89867342396131L222.06112473607064,123.89977900169698L222.49682190221947,123.90095731481L222.63162323539257,123.9013234162093L222.725502735281,123.90157556551743L223.0191770682653,123.90237080564309L223.11787090148133,123.90263750202669L223.2310077346802,123.90294299061154L223.31285140124956,123.90316119674358L223.45968856774172,123.90356124131898L223.50301756769022,123.90367761792274L223.68355506747562,123.90416494495096L224.04703723371028,123.90514687254515L224.17220990022818,123.9054863043061L224.50921323316098,123.9063954965229L225.09415473246574,123.90797627872391L225.70076073174477,123.9096128247142L226.0883145646175,123.91066021414798L226.20385856448013,123.910970551758L226.67084889725845,123.91223372281124L226.74787823050022,123.91244223089296L226.76713556381065,123.91249557016968L226.88749389700095,123.91281803034259L227.22209006326992,123.91371994902167L227.25819756322701,123.91381935403739L227.41707056303818,123.91424606825115L227.7203735626777,123.91506555350259L227.9249827291012,123.91561591785783L228.05496972894667,123.91596989669426L228.24272872872353,123.91647177079795L228.58454639498393,123.91739551009024L228.72897639481226,123.91778585661532L228.76749106143316,123.9178901106562L228.80600572805406,123.91799436469707L228.89507089461486,123.9182343914423L229.0876442277193,123.91875323713404L229.26577456084092,123.91923329062453L229.45112639395396,123.91972789119048L229.90367372674945,123.92094014747957L229.97829589332738,123.92114138202356L230.05773239323298,123.92135473913046L230.21179105971655,123.92176690626874L230.30567055960495,123.92201905557688L230.3321493929068,123.92208936644164L230.48380089272658,123.9224966845548L231.0518922253847,123.92402170296648L231.1217000586351,123.92420596592243L231.28298022511007,123.92463752916134L232.17603905738193,123.92703294758861L232.54914989027182,123.92802942225825L232.63340072350502,123.92825490192803L232.65025089015165,123.92830096766701L232.96558972311018,123.92914469804424L232.99688288973968,123.92922955598448L233.10761255627474,123.92952534651901L233.17019888953368,123.92969263788692L233.30018588937918,123.93004176769817L233.51442372245788,123.9306163771792L234.44118288802306,123.93309665354671L234.57839138786,123.9334651794586L234.83355105422336,123.93414646749308L234.99001688737076,123.93456348365652L235.098339387242,123.93485200065334L235.46182155347665,123.93582665470979L235.49070755344232,123.93590423911229L235.97214088620345,123.93719407980387L236.12619955268698,123.9376038224296L236.20082171926498,123.93780263246101L236.23211488589448,123.93788749040125L236.80261338521638,123.93941250881295L236.96389355169137,123.93984407205187L237.5247633843581,123.94134484533777L237.7462227174282,123.94193642640687L237.86417388395466,123.94225161304203L238.1217407169819,123.94294259912682L238.69223921630382,123.94446519302593L238.9401773826758,123.94512708495978L239.14478654909928,123.94567260028987L239.18330121572018,123.94577442981816L240.10283888129393,123.94823288557247L240.14376071457863,123.94833956412592L240.41095621426106,123.94905479533648L240.45669238087336,123.94917844547797L240.65167288064163,123.94969729116971L240.78647421381473,123.95005854354386L240.80091721379756,123.95009491123253L241.28716487988632,123.95139444997446L241.4532593796889,123.95183571126368L241.48455254631838,123.95192056920392L241.7998913792769,123.95276187506855L242.93125971126557,123.95577311969069L243.30196337749166,123.95675747179745L243.35010671076776,123.95688597096408L243.8459830435117,123.95820248129405L244.08188537656466,123.95882558102664L244.19502220976352,123.95912622058634L244.2648300430139,123.9593104835423L244.62590504258475,123.96026816601068L244.67404837586085,123.96039666517734L244.68126987585228,123.96041606127795L244.83051420900821,123.96081125682821L244.88587904227575,123.9609567275829L244.89310054226718,123.96097612368352L245.3769410416921,123.96225869083739L245.5526642081499,123.962726621765L245.7572733745734,123.96326728806993L245.81985970783234,123.96343215492524L246.12316270747183,123.96423709310122L246.2748142072916,123.9646395621892L247.08602937299412,123.9667876803335L247.28582420608998,123.9673186485881L247.42784703925452,123.96769444803775L247.43266137258212,123.96770657060063L247.50728353916008,123.96790295611947L247.6781923722903,123.96835633997159L248.24146937162084,123.9698474152072L248.47496453800997,123.97046566591463L249.07194187063376,123.9720488726282L249.55818953672252,123.97333386429466L250.1070235360702,123.97478372281643L250.4921702022791,123.97580444261183L251.2600563680331,123.97783618415238L251.34671436793008,123.97806408833473L251.36597170124054,123.97811500309888L251.63557436758677,123.97882780979687L251.72704670081137,123.97907026105469L252.23255170021056,123.98040616748528L252.4901185332378,123.98108745551976L252.82471469950676,123.98197240261081L252.88970819942952,123.98214454300386L253.19541836573285,123.9829519056924L253.52520019867418,123.98382230570797L253.66000153184734,123.98417870905698L253.7370308650891,123.98438236811354L253.9079396982193,123.98483332745309L253.9970048647801,123.98506850517317L254.82266303046543,123.98725056649357L255.03690086354413,123.98781547792429L255.09226569681167,123.98796337319155L255.23669569664003,123.98834402166634L255.25595302995046,123.98839251191791L255.45815502971013,123.98892832919768L255.88422352920372,123.99005330303396L256.0767968623082,123.99055760165024L256.27899886206785,123.99108856990486L256.3752855286201,123.99134314372557L256.44750052853425,123.9915298311941L256.6039663616816,123.9919419983324L256.6809956949234,123.99214565738896L257.6101620271524,123.99458229253005L257.9423510267576,123.99545269254564L258.11085269322393,123.99589395383488L258.27935435969033,123.9963352151241L258.37082669291493,123.99657766638194L258.56821435934705,123.99709651207365L258.67412969255446,123.99737533102015L258.8185596923828,123.99775113046978L259.00150435883205,123.99823118396026L259.13871285866895,123.99859001182185L259.35295069174765,123.99915249873999L259.47571619160175,123.99947495891288L259.4829376915932,123.99949435501351L259.67551102469764,123.99999865362977L259.94029935771624,124.00069448873973L259.9643710243543,124.00075510155418L260.3085958572785,124.00165944474585L260.4843190237363,124.00211767762313L260.94649502318697,124.00332993391223L261.1149966896534,124.00377119520147L261.23294785617986,124.00408153281148L261.2762768561284,124.00419548490265L261.4303355226119,124.00459795399064L261.78900335551896,124.00553866487098L262.3570946881771,124.00702246656886L262.51356052132445,124.00743463370715L263.0311013540427,124.00878266270063L263.5991926867008,124.01026161537332L263.64974318664076,124.01039496356513L263.8543523530642,124.01092835633233L263.8591666863918,124.01094047889522L264.5091016856193,124.01263036416225L264.7425968520085,124.01323891681938L264.785925851957,124.01335286891054" fill="none"></path></g></g></g></g></g></g><g transform="translate(41, 177)" clip-path="url(#clip_1)"><clipPath id="clip_1"><rect width="288" height="22"></rect></clipPath><g><g><line x1="0" y1="0" x2="0" y2="5" style="visibility: inherit;" fill="rgb(0, 0, 0)" stroke="rgb(204, 204, 204)" stroke-width="1px"></line><line x1="24.071666638056435" y1="0" x2="24.071666638056435" y2="5" style="visibility: inherit;" fill="rgb(0, 0, 0)" stroke="rgb(204, 204, 204)" stroke-width="1px"></line><line x1="48.14333327611287" y1="0" x2="48.14333327611287" y2="5" style="visibility: inherit;" fill="rgb(0, 0, 0)" stroke="rgb(204, 204, 204)" stroke-width="1px"></line><line x1="72.21499991416931" y1="0" x2="72.21499991416931" y2="5" style="visibility: inherit;" fill="rgb(0, 0, 0)" stroke="rgb(204, 204, 204)" stroke-width="1px"></line><line x1="96.28666655222574" y1="0" x2="96.28666655222574" y2="5" style="visibility: inherit;" fill="rgb(0, 0, 0)" stroke="rgb(204, 204, 204)" stroke-width="1px"></line><line x1="120.3583331902822" y1="0" x2="120.3583331902822" y2="5" style="visibility: inherit;" fill="rgb(0, 0, 0)" stroke="rgb(204, 204, 204)" stroke-width="1px"></line><line x1="144.42999982833862" y1="0" x2="144.42999982833862" y2="5" style="visibility: inherit;" fill="rgb(0, 0, 0)" stroke="rgb(204, 204, 204)" stroke-width="1px"></line><line x1="168.50166646639508" y1="0" x2="168.50166646639508" y2="5" style="visibility: inherit;" fill="rgb(0, 0, 0)" stroke="rgb(204, 204, 204)" stroke-width="1px"></line><line x1="192.57333310445148" y1="0" x2="192.57333310445148" y2="5" style="visibility: inherit;" fill="rgb(0, 0, 0)" stroke="rgb(204, 204, 204)" stroke-width="1px"></line><line x1="216.64499974250793" y1="0" x2="216.64499974250793" y2="5" style="visibility: inherit;" fill="rgb(0, 0, 0)" stroke="rgb(204, 204, 204)" stroke-width="1px"></line><line x1="240.7166663805644" y1="0" x2="240.7166663805644" y2="5" style="visibility: inherit;" fill="rgb(0, 0, 0)" stroke="rgb(204, 204, 204)" stroke-width="1px"></line><line x1="264.7883330186208" y1="0" x2="264.7883330186208" y2="5" style="visibility: inherit;" fill="rgb(0, 0, 0)" stroke="rgb(204, 204, 204)" stroke-width="1px"></line><line x1="288.85999965667725" y1="0" x2="288.85999965667725" y2="5" style="visibility: inherit;" fill="rgb(0, 0, 0)" stroke="rgb(204, 204, 204)" stroke-width="1px"></line></g><g transform="translate(0, 8)"><text style="text-anchor: middle; visibility: hidden; font-family: &quot;Helvetica Neue&quot;, sans-serif; font-size: 12px; font-weight: 200;" x="0" y="0" dx="0em" dy="0.95em" fill="rgb(50, 49, 63)" stroke="none" stroke-width="1px">-10k</text><text style="text-anchor: middle; visibility: inherit; font-family: &quot;Helvetica Neue&quot;, sans-serif; font-size: 12px; font-weight: 200;" x="24.071666638056435" y="0" dx="0em" dy="0.95em" fill="rgb(50, 49, 63)" stroke="none" stroke-width="1px">0</text><text style="text-anchor: middle; visibility: hidden; font-family: &quot;Helvetica Neue&quot;, sans-serif; font-size: 12px; font-weight: 200;" x="48.14333327611287" y="0" dx="0em" dy="0.95em" fill="rgb(50, 49, 63)" stroke="none" stroke-width="1px">10k</text><text style="text-anchor: middle; visibility: inherit; font-family: &quot;Helvetica Neue&quot;, sans-serif; font-size: 12px; font-weight: 200;" x="72.21499991416931" y="0" dx="0em" dy="0.95em" fill="rgb(50, 49, 63)" stroke="none" stroke-width="1px">20k</text><text style="text-anchor: middle; visibility: hidden; font-family: &quot;Helvetica Neue&quot;, sans-serif; font-size: 12px; font-weight: 200;" x="96.28666655222574" y="0" dx="0em" dy="0.95em" fill="rgb(50, 49, 63)" stroke="none" stroke-width="1px">30k</text><text style="text-anchor: middle; visibility: inherit; font-family: &quot;Helvetica Neue&quot;, sans-serif; font-size: 12px; font-weight: 200;" x="120.3583331902822" y="0" dx="0em" dy="0.95em" fill="rgb(50, 49, 63)" stroke="none" stroke-width="1px">40k</text><text style="text-anchor: middle; visibility: hidden; font-family: &quot;Helvetica Neue&quot;, sans-serif; font-size: 12px; font-weight: 200;" x="144.42999982833862" y="0" dx="0em" dy="0.95em" fill="rgb(50, 49, 63)" stroke="none" stroke-width="1px">50k</text><text style="text-anchor: middle; visibility: inherit; font-family: &quot;Helvetica Neue&quot;, sans-serif; font-size: 12px; font-weight: 200;" x="168.50166646639508" y="0" dx="0em" dy="0.95em" fill="rgb(50, 49, 63)" stroke="none" stroke-width="1px">60k</text><text style="text-anchor: middle; visibility: hidden; font-family: &quot;Helvetica Neue&quot;, sans-serif; font-size: 12px; font-weight: 200;" x="192.57333310445148" y="0" dx="0em" dy="0.95em" fill="rgb(50, 49, 63)" stroke="none" stroke-width="1px">70k</text><text style="text-anchor: middle; visibility: inherit; font-family: &quot;Helvetica Neue&quot;, sans-serif; font-size: 12px; font-weight: 200;" x="216.64499974250793" y="0" dx="0em" dy="0.95em" fill="rgb(50, 49, 63)" stroke="none" stroke-width="1px">80k</text><text style="text-anchor: middle; visibility: hidden; font-family: &quot;Helvetica Neue&quot;, sans-serif; font-size: 12px; font-weight: 200;" x="240.7166663805644" y="0" dx="0em" dy="0.95em" fill="rgb(50, 49, 63)" stroke="none" stroke-width="1px">90k</text><text style="text-anchor: middle; visibility: inherit; font-family: &quot;Helvetica Neue&quot;, sans-serif; font-size: 12px; font-weight: 200;" x="264.7883330186208" y="0" dx="0em" dy="0.95em" fill="rgb(50, 49, 63)" stroke="none" stroke-width="1px">100k</text><text style="text-anchor: middle; visibility: hidden; font-family: &quot;Helvetica Neue&quot;, sans-serif; font-size: 12px; font-weight: 200;" x="288.85999965667725" y="0" dx="0em" dy="0.95em" fill="rgb(50, 49, 63)" stroke="none" stroke-width="1px">110k</text></g><line x1="0" y1="0" x2="288.85999965667725" y2="0" fill="rgb(0, 0, 0)" stroke="rgb(204, 204, 204)" stroke-width="1px"></line></g></g></g></g></svg>