<svg viewBox="0 0 330 200" xmlns="http://www.w3.org/2000/svg"><g><g><g><g><g><line x1="51.52000045776367" y1="177.95999908447266" x2="46.52000045776367" y2="177.95999908447266" style="visibility: inherit;" fill="rgb(0, 0, 0)" stroke="rgb(204, 204, 204)" stroke-width="1px"></line><line x1="51.52000045776367" y1="158.18666585286434" x2="46.52000045776367" y2="158.18666585286434" style="visibility: inherit;" fill="rgb(0, 0, 0)" stroke="rgb(204, 204, 204)" stroke-width="1px"></line><line x1="51.52000045776367" y1="138.41333262125605" x2="46.52000045776367" y2="138.41333262125605" style="visibility: inherit;" fill="rgb(0, 0, 0)" stroke="rgb(204, 204, 204)" stroke-width="1px"></line><line x1="51.52000045776367" y1="118.63999938964844" x2="46.52000045776367" y2="118.63999938964844" style="visibility: inherit;" fill="rgb(0, 0, 0)" stroke="rgb(204, 204, 204)" stroke-width="1px"></line><line x1="51.52000045776367" y1="98.86666615804013" x2="46.52000045776367" y2="98.86666615804013" style="visibility: inherit;" fill="rgb(0, 0, 0)" stroke="rgb(204, 204, 204)" stroke-width="1px"></line><line x1="51.52000045776367" y1="79.09333292643252" x2="46.52000045776367" y2="79.09333292643252" style="visibility: inherit;" fill="rgb(0, 0, 0)" stroke="rgb(204, 204, 204)" stroke-width="1px"></line><line x1="51.52000045776367" y1="59.31999969482422" x2="46.52000045776367" y2="59.31999969482422" style="visibility: inherit;" fill="rgb(0, 0, 0)" stroke="rgb(204, 204, 204)" stroke-width="1px"></line><line x1="51.52000045776367" y1="39.5466664632159" x2="46.52000045776367" y2="39.5466664632159" style="visibility: inherit;" fill="rgb(0, 0, 0)" stroke="rgb(204, 204, 204)" stroke-width="1px"></line><line x1="51.52000045776367" y1="19.77333323160829" x2="46.52000045776367" y2="19.77333323160829" style="visibility: inherit;" fill="rgb(0, 0, 0)" stroke="rgb(204, 204, 204)" stroke-width="1px"></line><line x1="51.52000045776367" y1="0" x2="46.52000045776367" y2="0" style="visibility: inherit;" fill="rgb(0, 0, 0)" stroke="rgb(204, 204, 204)" stroke-width="1px"></line></g><g transform="translate(41.52000045776367, 0)"><text style="text-anchor: end; visibility: hidden; font-family: &quot;Helvetica Neue&quot;, sans-serif; font-size: 12px; font-weight: 200;" x="0" y="177.95999908447266" dx="0em" dy="0.3em" fill="rgb(50, 49, 63)" stroke="none" stroke-width="1px">36.8</text><text style="text-anchor: end; visibility: inherit; font-family: &quot;Helvetica Neue&quot;, sans-serif; font-size: 12px; font-weight: 200;" x="0" y="158.18666585286434" dx="0em" dy="0.3em" fill="rgb(50, 49, 63)" stroke="none" stroke-width="1px">37</text><text style="text-anchor: end; visibility: hidden; font-family: &quot;Helvetica Neue&quot;, sans-serif; font-size: 12px; font-weight: 200;" x="0" y="138.41333262125605" dx="0em" dy="0.3em" fill="rgb(50, 49, 63)" stroke="none" stroke-width="1px">37.2</text><text style="text-anchor: end; visibility: inherit; font-family: &quot;Helvetica Neue&quot;, sans-serif; font-size: 12px; font-weight: 200;" x="0" y="118.63999938964844" dx="0em" dy="0.3em" fill="rgb(50, 49, 63)" stroke="none" stroke-width="1px">37.4</text><text style="text-anchor: end; visibility: hidden; font-family: &quot;Helvetica Neue&quot;, sans-serif; font-size: 12px; font-weight: 200;" x="0" y="98.86666615804013" dx="0em" dy="0.3em" fill="rgb(50, 49, 63)" stroke="none" stroke-width="1px">37.6</text><text style="text-anchor: end; visibility: inherit; font-family: &quot;Helvetica Neue&quot;, sans-serif; font-size: 12px; font-weight: 200;" x="0" y="79.09333292643252" dx="0em" dy="0.3em" fill="rgb(50, 49, 63)" stroke="none" stroke-width="1px">37.8</text><text style="text-anchor: end; visibility: hidden; font-family: &quot;Helvetica Neue&quot;, sans-serif; font-size: 12px; font-weight: 200;" x="0" y="59.31999969482422" dx="0em" dy="0.3em" fill="rgb(50, 49, 63)" stroke="none" stroke-width="1px">38</text><text style="text-anchor: end; visibility: inherit; font-family: &quot;Helvetica Neue&quot;, sans-serif; font-size: 12px; font-weight: 200;" x="0" y="39.5466664632159" dx="0em" dy="0.3em" fill="rgb(50, 49, 63)" stroke="none" stroke-width="1px">38.2</text><text style="text-anchor: end; visibility: hidden; font-family: &quot;Helvetica Neue&quot;, sans-serif; font-size: 12px; font-weight: 200;" x="0" y="19.77333323160829" dx="0em" dy="0.3em" fill="rgb(50, 49, 63)" stroke="none" stroke-width="1px">38.4</text><text style="text-anchor: end; visibility: hidden; font-family: &quot;Helvetica Neue&quot;, sans-serif; font-size: 12px; font-weight: 200;" x="0" y="0" dx="0em" dy="0.3em" fill="rgb(50, 49, 63)" stroke="none" stroke-width="1px">38.6</text></g><line x1="51.52000045776367" y1="0" x2="51.52000045776367" y2="177.95999908447266" fill="rgb(0, 0, 0)" stroke="rgb(204, 204, 204)" stroke-width="1px"></line></g></g><g transform="translate(51, 0)" clip-path="url(#clip_0)"><clipPath id="clip_0"><rect width="278" height="177"></rect></clipPath><g><g><g><line x1="0" y1="0" x2="0" y2="177.95999908447266" fill="rgb(0, 0, 0)" stroke="rgb(60, 60, 60)" stroke-width="1px" opacity="0.25"></line><line x1="23.20666662851969" y1="0" x2="23.20666662851969" y2="177.95999908447266" fill="rgb(0, 0, 0)" stroke="rgb(60, 60, 60)" stroke-width="1px" opacity="0.25"></line><line x1="46.41333325703938" y1="0" x2="46.41333325703938" y2="177.95999908447266" fill="rgb(0, 0, 0)" stroke="rgb(60, 60, 60)" stroke-width="1px" opacity="0.25"></line><line x1="69.61999988555908" y1="0" x2="69.61999988555908" y2="177.95999908447266" fill="rgb(0, 0, 0)" stroke="rgb(60, 60, 60)" stroke-width="1px" opacity="0.25"></line><line x1="92.82666651407877" y1="0" x2="92.82666651407877" y2="177.95999908447266" fill="rgb(0, 0, 0)" stroke="rgb(60, 60, 60)" stroke-width="1px" opacity="0.25"></line><line x1="116.03333314259848" y1="0" x2="116.03333314259848" y2="177.95999908447266" fill="rgb(0, 0, 0)" stroke="rgb(60, 60, 60)" stroke-width="1px" opacity="0.25"></line><line x1="139.23999977111816" y1="0" x2="139.23999977111816" y2="177.95999908447266" fill="rgb(0, 0, 0)" stroke="rgb(60, 60, 60)" stroke-width="1px" opacity="0.25"></line><line x1="162.44666639963788" y1="0" x2="162.44666639963788" y2="177.95999908447266" fill="rgb(0, 0, 0)" stroke="rgb(60, 60, 60)" stroke-width="1px" opacity="0.25"></line><line x1="185.65333302815753" y1="0" x2="185.65333302815753" y2="177.95999908447266" fill="rgb(0, 0, 0)" stroke="rgb(60, 60, 60)" stroke-width="1px" opacity="0.25"></line><line x1="208.85999965667725" y1="0" x2="208.85999965667725" y2="177.95999908447266" fill="rgb(0, 0, 0)" stroke="rgb(60, 60, 60)" stroke-width="1px" opacity="0.25"></line><line x1="232.06666628519696" y1="0" x2="232.06666628519696" y2="177.95999908447266" fill="rgb(0, 0, 0)" stroke="rgb(60, 60, 60)" stroke-width="1px" opacity="0.25"></line><line x1="255.27333291371662" y1="0" x2="255.27333291371662" y2="177.95999908447266" fill="rgb(0, 0, 0)" stroke="rgb(60, 60, 60)" stroke-width="1px" opacity="0.25"></line><line x1="278.4799995422363" y1="0" x2="278.4799995422363" y2="177.95999908447266" fill="rgb(0, 0, 0)" stroke="rgb(60, 60, 60)" stroke-width="1px" opacity="0.25"></line></g><g><line x1="0" y1="177.95999908447266" x2="278.4799995422363" y2="177.95999908447266" fill="rgb(0, 0, 0)" stroke="rgb(60, 60, 60)" stroke-width="1px" opacity="0.25"></line><line x1="0" y1="158.18666585286434" x2="278.4799995422363" y2="158.18666585286434" fill="rgb(0, 0, 0)" stroke="rgb(60, 60, 60)" stroke-width="1px" opacity="0.25"></line><line x1="0" y1="138.41333262125605" x2="278.4799995422363" y2="138.41333262125605" fill="rgb(0, 0, 0)" stroke="rgb(60, 60, 60)" stroke-width="1px" opacity="0.25"></line><line x1="0" y1="118.63999938964844" x2="278.4799995422363" y2="118.63999938964844" fill="rgb(0, 0, 0)" stroke="rgb(60, 60, 60)" stroke-width="1px" opacity="0.25"></line><line x1="0" y1="98.86666615804013" x2="278.4799995422363" y2="98.86666615804013" fill="rgb(0, 0, 0)" stroke="rgb(60, 60, 60)" stroke-width="1px" opacity="0.25"></line><line x1="0" y1="79.09333292643252" x2="278.4799995422363" y2="79.09333292643252" fill="rgb(0, 0, 0)" stroke="rgb(60, 60, 60)" stroke-width="1px" opacity="0.25"></line><line x1="0" y1="59.31999969482422" x2="278.4799995422363" y2="59.31999969482422" fill="rgb(0, 0, 0)" stroke="rgb(60, 60, 60)" stroke-width="1px" opacity="0.25"></line><line x1="0" y1="39.5466664632159" x2="278.4799995422363" y2="39.5466664632159" fill="rgb(0, 0, 0)" stroke="rgb(60, 60, 60)" stroke-width="1px" opacity="0.25"></line><line x1="0" y1="19.77333323160829" x2="278.4799995422363" y2="19.77333323160829" fill="rgb(0, 0, 0)" stroke="rgb(60, 60, 60)" stroke-width="1px" opacity="0.25"></line><line x1="0" y1="0" x2="278.4799995422363" y2="0" fill="rgb(0, 0, 0)" stroke="rgb(60, 60, 60)" stroke-width="1px" opacity="0.25"></line></g></g></g><g><g><line x1="0" y1="3816.253313700349" x2="278.4799995422363" y2="3816.253313700349" fill="rgb(0, 0, 0)" stroke="rgb(153, 153, 153)" stroke-width="1.5px"></line></g></g><g><g><line x1="23.20666662851969" y1="0" x2="23.20666662851969" y2="177.95999908447266" fill="rgb(0, 0, 0)" stroke="rgb(153, 153, 153)" stroke-width="1.5px"></line></g></g><g><g><g><g><g><path style="fill: none;" stroke="rgb(255, 112, 67)" stroke-width="2px" d="M23.926073294003807,-3.613480179285858L23.94463862730662,3.7625582059330895L24.306662626711528,8.64679902140054L24.45054395980835,11.747815882162115L24.550332626310986,13.73567711310207L24.56657729295095,14.946446314716411L24.67796929276784,15.825748992308604L24.708137959384917,16.394415620628052L24.863622625796,16.95010297409948L25.081765292104087,17.58303776919226L25.559822624651588,18.613749241626664L25.680497291119895,19.395309997720062L26.300115290101367,20.69381742567475L26.30939795675278,21.485242094325713L26.42078995656967,22.107772146840944L26.437034623209634,22.50285449622055L26.53914395637512,22.874769195846568L27.130913955402374,23.873634529194135L27.23070262190501,24.602538571894712L27.237664621893565,25.048931200309767L27.56255795469284,25.736606093377077L27.65538462120692,26.268539773339484L27.931543954086305,26.94101065094489L28.070783953857422,27.52160100801939L28.309812620131176,28.17272831104549L28.456014619890848,28.74760295452006L28.56044461971919,29.223774665157634L28.75073928607305,29.747683350719285L28.85981061922709,30.198102976288908L28.97352328570684,30.609709219248913L28.97584395236969,30.859539274973145L29.003691952323916,31.04398391788331L29.08259461886088,31.25240705056214L29.43765661827723,31.81525247280115L29.565293284734093,32.309400052945676L30.256851950263975,33.44451133856745L30.702419949531556,34.65825968659465L30.739550616137187,35.43055939483679L30.876469949245454,36.056263030727365L31.60283861471812,37.28358350297552L31.607479948043824,38.02525583588971L31.72351328118642,38.604975930081L31.888280614248913,39.14319148984163L32.057689280637106,39.66118094431991L32.07393394727707,39.990681078497516L32.32224528020223,40.472598686838325L32.387223946762084,40.835820805009234L32.57287727979024,41.26480520194161L32.94418394584656,41.9411300623924L33.22498461205165,42.66116336002142L33.41759994506836,43.30755335295876L33.631101278050735,43.93163185434116L33.67055261131922,44.349677079131794L34.05810394401551,45.02577449583643L34.318018610254924,45.71444360520994L34.742700609556834,46.58595337739581L35.05599060904186,47.443765244843604L35.1209692756017,48.02769644454534L35.610629941463465,48.89534916805337L35.6431192747434,49.45003483681222L36.08404594068527,50.242964847356035L36.385732606856024,51.0305474980738L36.48784194002152,51.60809464655789L36.68509860636394,52.156773406612615L36.81505593948365,52.61843447869664L36.831300606123605,52.91202556359288L36.914844605986275,53.17311358404797L37.10745993900299,53.524977373507696L37.59479993820191,54.225933392872875L37.63889260479609,54.690406845574884L37.80133927119573,55.130962152528824L38.46272927010854,56.04685345916286L38.530028603331246,56.6620117169265L38.75281260296504,57.248041281471544L38.78066060291926,57.62651184395321L39.11251593570709,58.174017763778L39.37243060194651,58.75143794036916L39.81103660122553,59.514561390209465L40.337827933692935,60.466497245494395L40.518839933395384,61.20601691209664L40.52580193338394,61.65606477159544L40.637193933200834,62.02943160118366L41.28001859881083,62.84300695306531L41.30322526543935,63.35242322121323L41.384448598639175,63.731842818149076L41.75111393136978,64.29077997499634L41.925163931083674,64.78228087914141L42.1897199306488,65.31327506868817L42.28486726382574,65.71635237625273L42.61440192995071,66.2493557824057L42.64689126323064,66.59767009401736L42.92769192943573,67.05255813447175L42.95089859606425,67.34585686440161L43.166720595709485,67.70950415152414L43.80954526131948,68.48104172342472L43.92557859446208,69.0427766236408L43.94182326110204,69.39369655132967L44.07642192754746,69.71859929674288L44.69603992652893,70.43475727024817L45.17873859240214,71.26498153227098L45.37831592540741,71.92725020322331L45.408484592024486,72.34935220970402L45.71249192485809,72.85092660404719L46.048988590971625,73.42447265933474L46.197511257394154,73.8882311309222L47.05383725598653,74.8473108970583L47.0700819226265,75.43558173437599L47.339279255517326,75.9992936456753L47.52493258854548,76.48219415189968L47.62472125504812,76.8494757556914L47.82197792139053,77.22236272255248L48.17007792081833,77.71341627173685L48.22345325406393,78.04893107112166L48.50657458693186,78.46566597503488L48.51353658692042,78.72098696699828L48.65509725335439,78.98113828151455L48.67366258665721,79.15125891634352L48.780413253148396,79.33388976850647L48.97070791950226,79.58633133652353L49.70635925162633,80.28405512462088L49.82935458475749,80.79290281661211L49.9685945845286,81.20019181865183L50.04749725106557,81.50204233139597L50.32365658394495,81.88394538296403L50.495385916996,82.23724380913242L50.982725916194916,82.79830957364955L50.99432924950918,83.14324625318302L51.43525591545105,83.66248548097654L51.727659914970396,84.17904580126535L52.611833913517,85.10026088026794L53.089891246064504,85.9776375496971L53.23377257916133,86.6010656057057L53.45423591213227,87.1229638285248L53.51689391202927,87.4780414420131L53.62828591184616,87.76546128039459L54.30824124406179,88.38686825923895L54.642417243512476,88.97770306635451L54.76077124331792,89.40884009931801L54.814146576563516,89.70206892943325L55.25507324250539,90.16146946253443L55.42680257555644,90.54663309726193L55.88165324147542,91.06572026994311L56.20886724093755,91.58218935716563L56.378275907325744,91.99752094323357L56.48038524049123,92.31008049025135L56.73333790674209,92.65405654561972L57.17658523934683,93.13183672903945L57.24620523923238,93.4607452360094L57.29029790582656,93.68494316394673L57.503799238808945,93.94874770699035L57.573419238694505,94.1491199711739L57.721941905117035,94.35865159745433L57.766034571711224,94.5109216798567L58.76856257006327,95.19621388167906L59.114341902828215,95.80893623949574L59.118983236153916,96.17913424971277L59.19324456936518,96.44409688700294L59.73395990180969,96.91399396240654L59.78965590171814,97.2277633638977L60.606530567042036,97.87689790688076L60.91517923320134,98.43805567443034L61.08226723292668,98.86722663249866L61.95483789815903,99.6009896825916L62.214752564398445,100.18109339815852L62.32614456421534,100.58874475886488L62.42361256405512,100.88538177863477L62.8111638967514,101.26913506691221L62.88310456329982,101.53740339710397L63.335634562555946,101.93551405220283L63.393651229127244,102.20455215734665L63.444705895709994,102.39252612706649L63.918121894931794,102.75015395246355L63.95061122821172,102.9813250893479L64.01791056143442,103.1545743818147L64.03647589473724,103.26802804660161L65.12950989294052,103.88809171805734L66.02528722480139,104.701391210165L67.20186522286734,105.7538836385276L67.56853055559795,106.558112147228L67.6915258887291,107.09812636396894L67.92823388834,107.53226164312157L68.53160722068151,108.07077513747029L68.78455988693237,108.50898831568176L68.8170492202123,108.78700207865141L68.9957405532519,109.03467052481844L69.26261721947988,109.30335500661442L69.47611855246225,109.56005916443986L69.60839655224483,109.77321821481978L69.70122321875891,109.94229803204287L69.74299521869024,110.06215066674848L69.76388121865591,110.14326461975757L69.94025188503265,110.26992686730111L70.18624255129497,110.45439152076995L70.20480788459777,110.5730658165543L70.36957521766027,110.71638078590642L70.64109321721395,110.92049202032769L70.8708392168363,111.142223693738L70.87315988349914,111.27616784914686L70.92421455008189,111.37855969221347L70.96134521668753,111.45583494689772L71.42779921592077,111.70163511658579L71.43476121590932,111.8521323896072L71.54847388238908,111.9907054927556L71.60416988229751,112.09753414863056L72.12631988143922,112.38097968900915L72.27484254786174,112.61289902300868L72.42568588094711,112.81465692598387L72.4790612141927,112.95788787615058L72.68095921386083,113.12710037160414L72.84804721358617,113.29741937242807L73.15437521308263,113.52452166095169L73.90859187850953,113.96476303331593L74.27525721124013,114.3746372261017L74.82989654366175,114.83825064446239L74.9389678768158,115.15880995095677L75.02715321000417,115.38554128663014L75.09213187656403,115.54677346762418L75.35668787612916,115.74564402162616L76.21069320805867,116.18991569317637L76.90225187358857,116.71474855154864L76.92545854021708,117.0380963459555L77.02756787338257,117.26981966270489L77.08790520661671,117.43118071969712L77.19233520644507,117.5664662867996L77.24571053969065,117.66724923991606L77.41976053940456,117.79123046572366L77.57292453915278,117.92158772712472L77.83515987205506,118.09484297703122L78.13684653822581,118.30741429047885L78.16237387151719,118.444310309293L78.20878720477421,118.54289150366817L78.75878520387013,118.79740205603926L79.08599920333226,119.06536432762388L79.2438045364062,119.2813559236896L79.55709453589122,119.51971990339317L79.56173586921692,119.66439773537937L79.64992120240528,119.78137614665604L79.70329653565089,119.8701187963539L80.34380053459803,120.14271273302568L80.57122586755753,120.38320696084372L80.58979120086033,120.53353783995155L80.99358720019659,120.75920735467491L81.07016920007071,120.9201041602209L81.24189853312174,121.07381763794808L81.33240453297296,121.19591571954763L81.53198186597824,121.3352506179724L81.81046186552048,121.51012098608219L81.99379453188578,121.67478319687535L82.13071386499405,121.81808379867543L82.81531053053538,122.12416679941146L83.10771453005472,122.40044375595178L83.18893786325455,122.59200674370754L83.3606671963056,122.76110275955216L83.69716386241912,122.96785964423364L83.75518052899044,123.1100168022937L83.90370319541296,123.24147381661825L83.93619252869289,123.33030469020082L84.24716186151504,123.47970011733963L84.47922852780025,123.64024089702087L84.63471319421133,123.78408581136236L85.39357119296392,124.09894347900615L85.39589185962676,124.28876323095525L85.46783252617519,124.42407699770501L86.19420119164785,124.71978613067456L86.22204919160207,124.90535797271892L86.23133185825347,125.01941653203285L86.23365252491632,125.0884551018629L86.50052919114431,125.20757040237872L87.03660319026311,125.43382046568058L87.2640285232226,125.63474140176363L87.3034798564911,125.76630663832441L87.34525185642242,125.85716360653446L87.77921652237573,126.03432579708357L87.99039718869527,126.19975966709784L88.06929985523223,126.32089448036797L88.11107185516357,126.4054931946031L88.93026718715032,126.68223854665563L89.201785186704,126.92220645249384L89.23195385332107,127.07433355825982L89.44545518630345,127.22308693324013L89.51275451952617,127.3307437025999L89.60326051937739,127.41962599244425L90.43637985134124,127.69426487448922L90.4967171845754,127.87473749399982L90.59186451775233,128.0080635867363L90.64988118432363,128.10329595698138L90.97245385046006,128.24431273872227L91.11633518355687,128.3661848721914L91.59903384943009,128.5633138889399L91.63616451603572,128.69124624685497L91.80789384908677,128.8114529270058L91.92392718222936,128.912994354379L92.23953784837722,129.05372338926603L92.4298325147311,129.18568125673113L92.83826984739304,129.36653464693435L92.8986071806272,129.4899816785379L93.04016784706116,129.59889822495734L93.23046251341502,129.7110143065406L93.3905885131518,129.81735632263894L93.48573584632874,129.90439375060294L93.58552451283137,129.9809044356098L93.89185251232783,130.10073154122006L93.9173798456192,130.17896386412446L94.24691451174418,130.30480228496774L94.46505717805226,130.43220068225878L94.49754651133219,130.51633350721494L96.08952384204865,130.93686925090307L96.17538850857416,131.20880230997076L96.76251717427571,131.50471767858272L97.02243184051514,131.74019658695187L97.17327517360052,131.91482367382645L97.18951984024048,132.02352224852245L97.31947717336018,132.1172536612596L97.34036317332585,132.17801826571457L97.47728250643412,132.2447995990322L97.50745117305121,132.2915061756815L97.87179583911896,132.39948515869446L97.94837783899308,132.4807161315884L98.47748983812333,132.6438055041246L98.72580117104847,132.7946104823544L98.99267783727646,132.94181628801084L99.1063905037562,133.05412628251182L99.23634783687592,133.14896853720902L99.54267583637237,133.27013963676674L99.56124116967518,133.34676461907236L99.86756916917165,133.45655277951386L100.14140783538818,133.5788467773771L100.20406583528519,133.66519701229132L100.20870716861089,133.7177614460421L100.41756716826757,133.79214393745193L100.58001383466721,133.86981145702993L100.65891650120417,133.9325538347423L100.72389516776403,133.98332395612624L101.47811183319092,134.16524802362042L101.49899783315658,134.27862650380885L101.5268458331108,134.35208450009657L101.57093849970501,134.4050599529345L101.61038983297348,134.44438815265832L101.7357058327675,134.4930275935228L101.76355383272171,134.52749130765596L101.821570499293,134.5596347867279L101.90743516581853,134.59581703293833L102.14878449875513,134.6648959686369L102.19287716534933,134.71509312656104L102.43654716494879,134.79258100928743L102.94941449743907,134.93788609599983L102.99814849735895,135.0344223787733L103.12578516381582,135.1167832352254L103.32768316348394,135.2046686820048L103.49941249653497,135.28998539912328L103.92641516249974,135.42128132497834L105.20278182706834,135.73494565906844L105.25151582698822,135.93189405602666L105.27008116029104,136.05353284109145L105.30489116023381,136.13285217166805L105.55088182649612,136.224796186778L105.75974182615279,136.31722466026832L106.2192338253975,136.45429622555028L106.23547849203746,136.5391037602465L106.40024582509994,136.61910398322533L106.64159515803655,136.70934451393134L106.68104649130504,136.77042832613432L106.83653115771611,136.83408229577105L107.32155049025218,136.95600117858748L107.38884982347489,137.04076861742982L108.21036582212449,137.2310223905654L108.27998582201003,137.35694162215964L108.32407848860423,137.43973437201603L108.53061782159806,137.52395663226702L108.65129248806636,137.5945541769537L108.72323315461477,137.64883053003905L108.85551115439733,137.70311997459083L109.46352582006455,137.83556200832132L109.54010781993865,137.9273976305139L110.12723648564021,138.07693646265335L110.20613915217717,138.17918102245164L110.84432248446147,138.34175385237432L111.1042371507009,138.47972764452115L111.8375678161621,138.67580669868588L111.96520448261897,138.81321660259982L112.41077248188655,138.96309632145673L112.44790314849217,139.0589076366272L112.47343048178354,139.12016588974046L112.8818678144455,139.21801855857896L113.01646648089091,139.29664348985744L113.06287981414796,139.35090880096465L113.34135981369018,139.42465237462415L113.66857381315232,139.51702239959425L113.72426981306076,139.58043991827853L114.03988047920862,139.6645022904186L114.26266447884241,139.74722344563176L114.39958381195068,139.81646775161494L114.42511114524206,139.8614840820951L115.34177447706858,140.01868481802694L115.40675314362844,140.12190591465065L115.52510714343389,140.2005838728324L115.75021180973053,140.27901836974834L115.82215247627894,140.3360357328859L115.8337558095932,140.3719055949328L116.07974647585552,140.42721982969528L116.72025047480265,140.54760461847656L117.19366647402445,140.68379952136434L117.5348044734637,140.8107740312231L117.57193514006933,140.892087928193L117.58121780672074,140.9419322762983L117.65779980659484,140.98209726727003L117.70421313985189,141.01223060426923L117.87362180624008,141.05263767341162L118.44682647196451,141.15155690230597L118.65104513829549,141.23745954627697L118.92024247118631,141.32369860155674L118.98290047108333,141.3832866798664L119.14534713748296,141.43985800819038L119.3031524705569,141.49386499372102L119.49344713691075,141.5502556961459L119.60483913672765,141.59827082228105L119.64196980333328,141.63145479621397L120.3753004687945,141.7427854681896L120.70483513491949,141.85031568268818L120.98563580112457,141.9489278460432L121.24090913403829,142.03902114894242L121.46137246700923,142.11962823731676L121.7189664665858,142.19906935378796L121.76073846651713,142.25156149760403L122.24807846571605,142.3406847539751L122.91178913129171,142.47170000785414L122.95124046456019,142.55483491699476L123.04174646441142,142.61527596170853L123.64047846342723,142.72003037496816L124.1974384625117,142.84564018405985L124.27866179571151,142.9302084417L124.40397779550553,142.99497924240333L124.4782391287168,143.04183722652755L124.64532712844213,143.08880933705507L124.70798512833912,143.123932097151L124.71726779499055,143.14591090457054L124.86346979475022,143.17539091354823L125.2695864607493,143.23743133569928L125.29975512736638,143.27797447731862L125.48540846039454,143.32236455082676L125.49469112704595,143.35005460485473L125.57823512690862,143.37572015089683L125.78013312657674,143.4128431112224L125.7963777932167,143.43707804870323L125.8984871263822,143.4624808275421L126.02148245951335,143.49084718960182L126.67358979177475,143.57711108607143L126.81282979154587,143.64350270431453L127.17717445761363,143.7213540324861L127.20966379089354,143.77138371771878L127.55312245699565,143.83715500767806L127.87801578979492,143.9099575235074L128.35607312234242,144.00191377233944L128.3769591223081,144.0593504000451L128.49995445543925,144.1061827786234L128.81324445492427,144.1656607863377L128.89678845478693,144.20949395322958L129.1636651210149,144.26234495999884L129.58370578699112,144.33554166817584L130.0339151195844,144.42320867560463L130.16619311936697,144.4883301405772L130.34952578573228,144.54505347113007L130.43306978559494,144.58723383172446L130.6953051184972,144.63773542767126L130.73243578510284,144.67135527356845L130.91576845146815,144.70887591555544L131.11534578447342,144.75039647936092L132.73749178180694,144.9246587924619L132.83728044830957,145.03826769394783L132.9765204480807,145.1189542953544L133.02293378133774,145.17143943732987L133.29213111422857,145.22706789218236L133.41280578069686,145.27100506432325L133.55204578046798,145.3098886281235L133.63558978033066,145.3404599773033L133.7585851134618,145.3698154617217L133.7980364467303,145.39059678214193L133.83052578001022,145.40608274560287L133.88622177991869,145.42035265617352L133.9140697798729,145.43132833948252L134.00457577972412,145.44590925317L134.03706511300405,145.4575241140305L134.3248277791977,145.48938469301666L134.47567111228307,145.52162573516506L134.52904644552865,145.5456469758272L134.77503711179097,145.58102906012283L135.01870711139043,145.62307679203826L135.12545777788162,145.6575078033734L135.81005444342296,145.73579438025604L136.5573091088613,145.84476919471828L136.87756110833485,145.9362526143489L137.55055444056194,146.04545174787938L137.67587044035594,146.12092789298524L137.73388710692723,146.17089019542183L138.0262911064466,146.22394893662803L138.2142651061376,146.2704174617128L138.35582577257156,146.30946211023547L138.39991843916576,146.3365095047982L139.2539237710953,146.41881399100086L139.36995710423787,146.47709733778777L139.5857791038831,146.5283600703852L139.62290977048875,146.56213488115222L139.6925297703743,146.58767981722707L139.86193843676247,146.61582975650796L140.12649443632762,146.6526330500519L140.69969910205205,146.71740799877833L140.70434043537776,146.75642382657392L141.14062576799392,146.8119661966214L141.51193243405027,146.87214444240468L141.87163576679228,146.93419906226748L142.08745776643755,146.98697026590847L142.2150944328944,147.02753364315797L142.3543344326655,147.06167747593534L143.3011664311091,147.14839068362724L143.412558430926,147.20811239482376L143.43112376422883,147.2456048657063L143.7745824303309,147.29133256654077L143.88365376348494,147.326462973623L144.0368177632332,147.35764874142043L144.431331095918,147.40291130873285L144.5589677623749,147.43896950418534L144.70052842880884,147.46995765220353L144.7794310953458,147.49383059062865L145.06487309487662,147.52716253229673L145.10664509480796,147.5498771513849L145.46402776088715,147.58703985826457L145.7425077604294,147.6272896510819L145.983857093366,147.66727967561627L146.06043909324012,147.69625202283126L146.20896175966263,147.72298866190624L146.23216842629114,147.74053923095548L146.41550109265646,147.7628365400982L146.45031109259924,147.77847780399014L147.13258709147772,147.83100811060595L147.15115242478055,147.86403488017964L147.28807175788882,147.89214816274722L147.32056109116874,147.91097729357267L147.84039042364756,147.95470936255865L147.8566350902875,147.98185375531304L147.86591775693893,147.99874382520707L147.87520042359034,148.0094813013852L148.20241442305246,148.0359879756287L148.27899642292658,148.05641773698736L148.30452375621795,148.0704858965276L148.68975442225138,148.10215901055642L148.72456442219416,148.12342575738032L148.77329842211407,148.13890125956237L148.80810842205685,148.1502985807174L149.08194708827338,148.17358055649666L149.60409708741506,148.2184757468503L149.97308308680854,148.26698563520262L150.02413775339127,148.29910873942288L150.12624708655673,148.3244169443719L150.1912257531166,148.34337333135144L150.39544441944759,148.36666498981265L150.69713108561834,148.39798871933814L150.80156108544668,148.4226664409096L151.29122175130843,148.46538190753083L151.53721241757074,148.5047393165015L151.5441744175593,148.5288063375652L151.60451175079345,148.5467162970932L151.67645241734186,148.56123373682047L152.09185174999237,148.5933272775226L152.1034550833066,148.61333769474558L152.12202041660944,148.6263999550026L152.49796841599147,148.65475407537403L152.62096374912264,148.67870604137644L153.085097081693,148.71811974200762L153.3751804145495,148.75730639410992L153.869482413737,148.8072186334454L153.9460644136111,148.84123915817793L154.04353241345086,148.8667806640718L154.16652774658203,148.88844162714554L154.3405777462959,148.91064057717622L154.37306707957583,148.92561939135842L154.3893117462158,148.93536097267L154.57496507924398,148.95086086932366L154.9903644118945,148.9817335814566L155.06694641176858,149.0041795313072L155.4823457444191,149.03906901679744L156.1785457432747,149.0950018941096L156.1924697432518,149.12916505473856L156.6078690759023,149.17033057389403L157.24837307484944,149.2262576073942L158.48992973947526,149.31955381742148L158.6082837392807,149.3809624516129L158.8264264055888,149.42806601423655L159.09562373847962,149.46900027088677L159.22326040493647,149.49929345017208L159.29288040482203,149.5207882460728L159.4738924045245,149.542133202997L159.5365504044215,149.557806489799L159.57600173768998,149.5690207646055L159.63401840426127,149.57816306645663L160.15848907006583,149.60778581723463L160.19561973667146,149.6269171947448L160.20954373664856,149.63915031405315L160.73865573577882,149.67017497962496L160.84772706893284,149.69376811146154L161.12852773513794,149.72014353395764L161.57409573440552,149.75558040031L161.61122640101115,149.7786528228462L161.6808464008967,149.7952117304558L161.83633106730778,149.81208656880125L161.8688204005877,149.82341834029145L162.64624373264311,149.86340628647852L162.86206573228836,149.8970540020579L162.87598973226548,149.91769520708664L162.9270443988482,149.93189023282883L163.1359043985049,149.94930790333902L163.54898306449255,149.97710724009391L163.6139617310524,149.99665315479515L163.82978373069764,150.01713050012023L164.00383373041154,150.0368089767758L165.05045439535778,150.0907056011268L165.24306972837448,150.1305865037581L165.40783706143696,150.1611528219953L165.63294172773362,150.18869498512362L165.66078972768784,150.2061254343637L165.783785060819,150.2211094607204L166.00656906045276,150.2390005315992L166.34538639322918,150.2630107274437L167.4105723914782,150.31784693914346L167.59622572450638,150.35768815994246L168.2854637233734,150.40738970625412L168.3574043899218,150.439624371008L168.37596972322464,150.4595686041019L169.11626238867441,150.49868968483383L169.46436238810222,150.53468359378832L169.91921305402118,150.57242180512586L170.23946505349477,150.60607740683946L170.4019117198944,150.63215425172405L170.40423238655728,150.64780035865525L170.5991683862368,150.66397665803208L170.96583371896745,150.68635455673422L171.22110705188115,150.70853109245994L171.4160430515607,150.7286256491142L171.7014850510915,150.75018647241365L171.95675838400524,150.77172190433663L172.13080838371914,150.79022493022617L172.25148305018743,150.80555078545171L172.91519371576308,150.8367716484089L172.93840038239162,150.85610760042434L172.94304171571733,150.86801088875515L173.32363104842503,150.88752326370766L173.79240571432115,150.91401482760105L174.0244723806063,150.93745269395762L174.0499997138977,150.9524205651341L174.1753157136917,150.9651727518511L174.61856304629646,150.9870047685601L174.68586237951914,151.00236685699238L174.72763437945048,151.01264011997486L174.9202497124672,151.02468756162108L175.0942997121811,151.03749779334385L175.1662403787295,151.04744681078355L175.2729910452207,151.05673510957652L175.4447203782717,151.0675881384675L175.54218837811152,151.0769662684505L175.69535237785973,151.0874206203734L176.15484437710444,151.10772307764634L176.24999171028136,151.122620006098L176.4843790432294,151.13864851550895L177.06222504227958,151.1654634970432L177.60990237471265,151.19754349336887L177.87213770761488,151.22448527774537L178.19703104041417,151.25000357911742L178.57065837313334,151.27572380060988L178.6356370396932,151.293117094791L178.74006703952153,151.30626852538683L179.7124263712565,151.34161564174153L179.79132903779347,151.3646342142797L179.8818350376447,151.38100995332934L181.62233503478367,151.43805412617115L181.62465570144653,151.4721297713161L181.66410703471502,151.4936311683256L181.88921170101165,151.51211377326678L182.0075657008171,151.52652222456118L182.20018103383381,151.54014562783144L182.38119303353628,151.5529962851667L183.1678990322431,151.5809217266645L183.30481836535137,151.6009958798926L183.72950036465326,151.62360047105886L183.73182103131612,151.6373140843193L183.7619896979332,151.6464474036377L184.08920369739533,151.65977204037023L184.20523703053792,151.67078399361847L184.38856969690323,151.68176606381965L184.4373036968231,151.68956217442403L184.8689476961136,151.7047999400163L184.9316056960106,151.71545118497573L185.00122569589615,151.7235013761162L185.18455836226147,151.73270638905228L185.45607636181512,151.74501803203347L186.71619835974374,151.781822437104L186.72548102639516,151.80390508014648L186.79742169294357,151.81896496869675L186.88096569280623,151.82996206311296L186.9993196926117,151.8391249152893L187.17569035898845,151.84884666628705L187.7767430246671,151.86795527020237L187.96471702435812,151.8837953308041L188.60522102330526,151.90763093040522L188.70268902314504,151.9238934514518L188.96724502271016,151.939534447936L189.2596490222295,151.95525510536388L189.31998635546364,151.96604522686465L189.5891836883545,151.97840278362213L189.9465663544337,151.99336024569786L190.0765236875534,152.00520103559018L190.19487768735885,152.01441752937234L190.24593235394158,152.02115429412484L190.3225143538157,152.02715751426172L190.38053102038702,152.0316645977059L190.75183768644334,152.04206263435412L190.9328496861458,152.05237463747483L190.98158368606568,152.0596178492705L190.98390435272853,152.06396377634746L190.98854568605424,152.06642047403312L191.22525368566514,152.07287282513897L191.23221568565367,152.0768950943622L191.32504235216777,152.08111875862204L191.5895983517329,152.08908386535228L191.97250835110344,152.10170757453253L192.32060835053127,152.1165230109409L192.49465835024517,152.12888201967547L192.63621901667915,152.1388620204434L193.03073234936397,152.15269466604667L193.35330501550038,152.1674811715066L194.3511916805267,152.1958138290767L194.44633901370366,152.21447286778383L194.45794234701793,152.22612086668894L194.56701368017198,152.23491996875723L194.70625367994307,152.2427640255255L194.7596290131887,152.24867732806956L194.9615270128568,152.25584591504582L195.36996434551872,152.26814257093437L195.3862090121587,152.2755205644675L196.94337634293237,152.30861048706754L197.02692034279505,152.3298221676712L197.58155967521668,152.35220412390026L197.6535003417651,152.3665384490005L198.34505900729496,152.3875094460151L198.3868310072263,152.40084633702597L198.57248434025448,152.41171478428078L198.71636567335128,152.42095130672126L198.87417100642523,152.42935953283356L199.41024500554403,152.44345598212666L199.4148863388697,152.451612134581L199.70729033838907,152.4616350171085L199.8070790048917,152.46915733222863L200.0832383377711,152.47804561955311L200.57754033695858,152.49182667133184L200.695894336764,152.50190560512357L201.0300703362147,152.51323301501338L201.13914166936874,152.5218397636726L201.21340300258,152.52851239847206L201.41065966892242,152.5356840091209L201.67985700181325,152.54406015664102L201.69610166845322,152.54938756227406L201.7216290017446,152.55303658133573L202.0674083345095,152.56050604238692L202.35749166736602,152.56951347583086L202.64989566688539,152.5795945512706L202.96550633303323,152.59047067046762L203.1279529994329,152.59925922039204L203.39018833233516,152.60860553147793L203.75917433172862,152.61979508486496L203.98892033135095,152.63012942234798L204.43448833061854,152.6428169429351L204.5319563304583,152.65208889945228L204.7013649968465,152.65991495176863L204.83364299662907,152.6664208858835L206.01718299468357,152.6875223222405L206.17498832775752,152.70244606246106L206.35367966079713,152.71366318500014L206.38616899407705,152.72084603420484L206.47667499392827,152.72636261221103L206.55093632713954,152.73087942749814L206.80853032671612,152.73721012212064L207.25641899264653,152.7473445984313L207.41654499238334,152.75538644550335L207.5093716588974,152.7618709979109L207.9247709915479,152.77119263753136L207.9781463247935,152.77784163122627L208.15451699117023,152.78424476440998L208.42371432406105,152.79125467408906L208.48173099063237,152.79636577125876L208.78573832346598,152.80350561069199L208.80198299010593,152.80809123147247L208.85535832335154,152.81129517962245L208.93194032322566,152.8142735584351L208.94122298987708,152.81621144428354L209.09206632296244,152.81948619563823L209.24290965604783,152.8232613491764L209.6745536553383,152.83110820803503L209.7650596551895,152.837174050394L209.80219032179514,152.8411152729301L210.13636632124584,152.8480057632647L210.19670365448,152.85274349170658L210.28256832100553,152.8567929972555L210.77687032019298,152.865407901562L210.8673763200442,152.87148199550873L210.8720176533699,152.87542816899773L211.05535031973523,152.88005875149733L211.1713836528778,152.8841948280403L211.215476319472,152.88743076676823L211.4521843190829,152.89208778409255L212.06484031807582,152.9022740639484L212.3270756509781,152.91185557875102L212.4082989841779,152.91866049755555L213.3899409825643,152.93420869943049L213.68698631540934,152.94715822600557L214.0814996480942,152.9594536987634L214.50154031407038,152.97150759779103L214.6314976471901,152.98039938137268L214.72200364704133,152.98679046144449L215.00512497990925,152.99379313925613L215.1002723130862,152.99905075586636L215.20934364624026,153.0037139114366L215.2882463127772,153.00696438046026L215.42980697921118,153.01072496459923L215.4715789791425,153.01328303220404L215.6456289788564,153.01692989261255L215.99604964494705,153.02273861430777L216.11672431141534,153.0278832914887L216.44161764421466,153.03459070324809L217.00553964328765,153.04449863416016L217.59034764232635,153.056779452245L217.96397497504552,153.06776854854587L218.07536697486242,153.0754180162499L218.5255763074557,153.0849860293657L218.59983764066695,153.09163198859784L218.61840297396978,153.09577042269768L218.7344363071124,153.0993094930804L219.0570089732488,153.10475182363916L219.09181897319158,153.10816808053485L219.2449829729398,153.11172642027634L219.53738697245916,153.11687859533023L219.73464363880157,153.1222327787689L219.85995963859557,153.1268030158759L220.04097163829803,153.13105374374373L220.370506304423,153.13707392735415L220.50974630419412,153.14189290600436L220.5468769707998,153.14523686887543L220.5840076374054,153.1475449637195L220.66987230393093,153.1496841134272L220.85552563695907,153.15277790597702L221.02725497001012,153.15629362567157L221.20594630304973,153.1603642187742L221.6422316356659,153.16718147288785L221.7141723022143,153.17157354247678L221.79075430208843,153.17496307703263L221.93927696851097,153.1782036662494L222.02978296836216,153.1812040297024L222.05531030165355,153.18345682345574L222.20151230141323,153.18601536819028L222.74918963384627,153.19283054464577L222.816488967069,153.19752308476077L222.97197363348008,153.20154547731312L223.83294096539814,153.2122561336683L224.1926442981402,153.22154884012886L224.27386763134004,153.22802961536829L224.29011229798,153.23176722195154L224.5941196308136,153.23702695710907L224.6242882974307,153.24033365676513L224.73103896392186,153.24352454504174L224.791376297156,153.24558993656797L224.91669229695003,153.24833775708777L225.12323162994386,153.25164589356473L226.01668829514188,153.26117370347143L226.14896629492443,153.26809725789883L226.39495696118672,153.27436341040132L226.5458002942721,153.27917911182575L226.65023029410042,153.28327540116365L227.00065096019108,153.28844862885398L227.0284989601453,153.29185428258958L227.4926322927157,153.29797085596235L227.64115495913822,153.30254595134838L227.71309562568663,153.30589444282143L227.74326429230373,153.30820525482622L228.29326229139963,153.31396664028105L228.4487469578107,153.31878119859775L228.98946229025523,153.32619569040043L229.2029636232376,153.33230382964695L229.31667628971735,153.3367230059971L229.56498762264252,153.34163739021355L230.11498562173844,153.34881006043491L230.3540142880122,153.35477310673238L230.5512709543546,153.35955780299452L230.58840162096024,153.36288119643336L231.4748962861697,153.3713621505945L231.51434761943818,153.37720501589317L231.77194161901474,153.3825210377973L231.81603428560894,153.38586150950005L232.00400828529993,153.38952523668647L232.13396561841964,153.39247776580072L232.14788961839673,153.39440014182955L232.61666428429285,153.39872159721514L232.77679028402963,153.40252133893017L232.80695895064673,153.40495204251988L233.1109662834803,153.40867334308004L234.20167961502074,153.41875076855777L234.55906228109998,153.42721096081146L234.605475614357,153.43273965184494L235.08353294690448,153.43892317911275L235.310958279864,153.44444359819892L235.42002961301804,153.44896271813414L235.48732894624075,153.4518250486554L235.83542894566853,153.45595618393492L235.88184227892557,153.45843486510248L235.88880427891414,153.45992207380374L236.03268561201094,153.4618704089466L236.08606094525655,153.46349198571357L236.0930229452451,153.46476664889488L236.55947694447838,153.46854861801197L236.72888561086654,153.47157209228445L236.92614227720895,153.47489476245232L236.9864796104431,153.4771900816736L237.27888360996246,153.48037757593127L237.42508560972212,153.4833460824094L238.20715027510326,153.4902563773502L238.39976560811996,153.49545856423748L238.53668494122823,153.49918331061184L238.54132627455394,153.50171987555743L238.61326694110232,153.50369439020577L238.77803427416484,153.50593510891758L239.3210702732722,153.51059842847422L239.54617493956886,153.514754147252L240.12170027195614,153.52071732540824L240.59047493785224,153.52731240351014L241.11958693698247,153.5339849044593L241.49089360303878,153.54040214199526L242.23118626848856,153.5483256656485L242.31473026835124,153.55353235552144L242.33329560165404,153.5566563694452L242.59321026789345,153.56049193908507L242.68139560108185,153.5630949979901L243.16873560028077,153.56722142886048L243.41704693320594,153.57105501442646L243.73961959934235,153.57531632705127L243.80227759923935,153.57772225606544L244.09700226542157,153.58127783332014L244.41493359823227,153.58491976527716L244.544890931352,153.5880100758142L244.61915226456324,153.5900151206967L244.78391959762573,153.59197244042775L244.86978426415126,153.59375026650835L245.66577292950947,153.59919186040952L245.8723122625033,153.60336196811258L245.9256875957489,153.606165749855L246.06492759552003,153.6086023117027L246.08349292882284,153.61021510737174L246.2784289285024,153.61208793613568L246.6891869278272,153.61532365323995L246.87484026085536,153.61817023486464L247.06977626053492,153.6210850523231L247.162602927049,153.6229848013583L247.23222292693455,153.62472808502142L247.38306626001994,153.62622663090042L247.45732759323118,153.62788005123033L248.35310492509208,153.6330961431194L248.67335692456564,153.6378852424176L248.83580359096527,153.64151299479906L248.9982502573649,153.6442930804699L249.08643559055326,153.64656456611354L249.27673025690714,153.64883260886253L249.37883959007263,153.65049515163236L249.51807958984375,153.65239782865677L249.69445025622048,153.6539920105531L249.82672825600304,153.6560045296136L250.0332675889969,153.657966333852L250.15162158880236,153.6598977091974L250.1585835887909,153.66075481728396L250.34423692181906,153.66217423349843L250.59951025473276,153.66438361027076L250.6227169213613,153.66586009489444L250.9545722541491,153.66780199559145L251.12398092053732,153.67002314593248L251.56954891980487,153.673467855983L251.73199558620453,153.67613811625557L251.8457082526843,153.6784945652212L251.88748025261563,153.68005929316047L252.03600291903814,153.68160156416627L252.3817822518031,153.68403551237353L252.92945958423616,153.68790961826522L253.08030291732152,153.69083751604163L253.57924624983468,153.69455541599282L254.12692358226775,153.69919989293012L254.17565758218765,153.70228829621337L254.37291424853007,153.704744772425L254.37755558185577,153.70652037527324L255.0041355808258,153.7098486153888L255.22924024712245,153.71320328650123L255.2710122470538,153.71521608916882" fill="none"></path></g></g></g></g><g opacity="0.2"><g><g><g><path style="fill: none;" stroke="rgb(255, 112, 67)" stroke-width="2px" d="M23.42480929482778,-90.97170968620497L23.59421796121597,5.6034149390278L23.738099294312793,12.869140355343433L23.749702627627055,13.055450677464364L23.84020862747828,13.96550494320897L23.926073294003807,14.43429791971974L23.94463862730662,14.516892981550683L24.306662626711528,15.85010550927845L24.45054395980835,16.352464515483092L24.550332626310986,16.699439204453284L24.56657729295095,16.756011164611465L24.67796929276784,17.141831932890256L24.708137959384917,17.246301485982343L24.863622625796,17.782980814682958L25.081765292104087,18.531993567177267L25.559822624651588,20.1593802877276L25.680497291119895,20.5674526936686L26.300115290101367,22.641380753067494L26.30939795675278,22.672306757953976L26.42078995656967,23.041533084586348L26.437034623209634,23.095465019937137L26.53914395637512,23.43263390247992L27.130913955402374,25.37192069670232L27.23070262190501,25.695889455208174L27.237664621893565,25.718518239271447L27.56255795469284,26.76811667340621L27.65538462120692,27.06643947664034L27.931543954086305,27.949716347910055L28.070783953857422,28.39248622274809L28.309812620131176,29.149419049664544L28.456014619890848,29.609914805352133L28.56044461971919,29.93803217426958L28.75073928607305,30.533546341534702L28.85981061922709,30.873732395285884L28.97352328570684,31.227118573073994L28.97584395236969,31.23428435469404L29.003691952323916,31.32065088053551L29.08259461886088,31.56504174841885L29.43765661827723,32.65952060427912L29.565293284734093,33.05062142217267L30.256851950263975,35.147178265634835L30.702419949531556,36.4788822077584L30.739550616137187,36.58900895686631L30.876469949245454,36.99481848440101L31.60283861471812,39.124564211155956L31.607479948043824,39.137764335192855L31.72351328118642,39.47455607133455L31.888280614248913,39.95051482946539L32.057689280637106,40.438165126028906L32.07393394727707,40.48493127975968L32.32224528020223,41.195475099346396L32.387223946762084,41.38065398226419L32.57287727979024,41.90828179733947L32.94418394584656,42.955617353067936L33.22498461205165,43.741213306464516L33.41759994506836,44.27713834236303L33.631101278050735,44.867749606414435L33.67055261131922,44.97674491631918L34.05810394401551,46.039920620891905L34.318018610254924,46.747447269270225L34.742700609556834,47.8932180356739L35.05599060904186,48.73048304601497L35.1209692756017,48.903593244099L35.610629941463465,50.196828253315005L35.6431192747434,50.282063339953325L36.08404594068527,51.432359863169665L36.385732606856024,52.21192147414939L36.48784194002152,52.47441536928335L36.68509860636394,52.97979154669642L36.81505593948365,53.310926086822306L36.831300606123605,53.35241219093831L36.914844605986275,53.564745614732004L37.10745993900299,54.052773057696584L37.59479993820191,55.277367421920644L37.63889260479609,55.387117024627514L37.80133927119573,55.791795112959036L38.46272927010854,57.42069041911358L38.530028603331246,57.58474910357229L38.75281260296504,58.127085628288725L38.78066060291926,58.19421768767643L39.11251593570709,58.99527664351626L39.37243060194651,59.61756820525625L39.81103660122553,60.65924656496887L40.337827933692935,61.894401028422465L40.518839933395384,62.31529641199933L40.52580193338394,62.33113656084363L40.637193933200834,62.589481845565984L41.28001859881083,64.0633699808871L41.30322526543935,64.1165476234358L41.384448598639175,64.30097221355146L41.75111393136978,65.12918571026722L41.925163931083674,65.51953223535867L42.1897199306488,66.10976635300902L42.28486726382574,66.32096833759957L42.61440192995071,67.04886089163482L42.64689126323064,67.12014156143412L42.92769192943573,67.734890195153L42.95089859606425,67.78580495929536L43.166720595709485,68.25497508220722L43.80954526131948,69.63834808127525L43.92557859446208,69.88537897396597L43.94182326110204,69.92007644286299L44.07642192754746,70.20595341486232L44.69603992652893,71.50899423050575L45.17873859240214,72.51031792530554L45.37831592540741,72.92065320965287L45.408484592024486,72.98250521942582L45.71249192485809,73.60328819556159L46.048988590971625,74.28479174226712L46.197511257394154,74.58386883830337L47.05383725598653,76.28593054626249L47.0700819226265,76.31798799035212L47.339279255517326,76.84486151262533L47.52493258854548,77.2065449112366L47.62472125504812,77.40039816137865L47.82197792139053,77.78169317284477L48.17007792081833,78.44999659551343L48.22345325406393,78.55220327019919L48.50657458693186,79.09076833090508L48.51353658692042,79.10396845494198L48.65509725335439,79.37136525328965L48.67366258665721,79.40643986858773L48.780413253148396,79.60783604675083L48.97070791950226,79.9649936885495L49.70635925162633,81.33064080676796L49.82935458475749,81.55617435459857L49.9685945845286,81.81112532171144L50.04749725106557,81.95481810051321L50.32365658394495,82.4567999603168L50.495385916996,82.76719144838468L50.982725916194916,83.63990822042489L50.99432924950918,83.66065127248288L51.43525591545105,84.44134432266577L51.727659914970396,84.95388628169889L52.611833913517,86.48208349877186L53.089891246064504,87.29370255384123L53.23377257916133,87.53620768971929L53.45423591213227,87.90581116275273L53.51689391202927,88.01065786224589L53.62828591184616,88.19659103796579L54.30824124406179,89.31897872750407L54.642417243512476,89.86395527702788L54.76077124331792,90.05554564876358L54.814146576563516,90.14191217460507L55.25507324250539,90.85057026218654L55.42680257555644,91.12437854935213L55.88165324147542,91.84435102896525L56.20886724093755,92.35689298799835L56.378275907325744,92.62051832233549L56.48038524049123,92.77891981077838L56.73333790674209,93.17002062867194L57.17658523934683,93.84850700416904L57.24620523923238,93.95410799646432L57.29029790582656,94.02124005585202L57.503799238808945,94.34445452155576L57.573419238694505,94.44967836744998L57.721941905117035,94.67294903687426L57.766034571711224,94.73932680345986L58.76856257006327,96.22415218441157L59.114341902828215,96.72801977622042L59.118983236153916,96.73443126503835L59.19324456936518,96.84154084293783L59.73395990180969,97.61883957551123L59.78965590171814,97.69841746613373L60.606530567042036,98.85059972135534L60.91517923320134,99.27979232575541L61.08226723292668,99.51098306960183L61.95483789815903,100.70163425773102L62.214752564398445,101.05124897150857L62.32614456421534,101.2002217999251L62.42361256405512,101.33033730828892L62.8111638967514,101.8447649993273L62.88310456329982,101.93980589239304L63.335634562555946,102.53268003485077L63.393651229127244,102.60810931506168L63.444705895709994,102.67448708164729L63.918121894931794,103.2865956905588L63.95061122821172,103.32808179467479L64.01791056143442,103.41444832051629L64.03647589473724,103.43820854378272L65.12950989294052,104.81818722524126L66.02528722480139,105.92134044832578L67.20186522286734,107.33262228107185L67.56853055559795,107.7644549102793L67.6915258887291,107.90814768908106L67.92823388834,108.18346456185088L68.53160722068151,108.87854537899439L68.78455988693237,109.166308082999L68.8170492202123,109.20402272310446L68.9957405532519,109.40617319406968L69.26261721947988,109.7063817293091L69.47611855246225,109.94511540117662L69.60839655224483,110.09295679038999L69.70122321875891,110.19591775787788L69.74299521869024,110.24192961880654L69.76388121865591,110.26493554927086L69.94025188503265,110.45992023861606L70.18624255129497,110.73108850097427L70.20480788459777,110.75107726023016L70.36957521766027,110.93135323993423L70.64109321721395,111.22665887195993L70.8708392168363,111.47482120385381L70.87315988349914,111.47708408226013L70.92421455008189,111.5321474568141L70.96134521668753,111.57174782892483L71.42779921592077,112.07033537111893L71.43476121590932,112.07787829914001L71.54847388238908,112.19856514747747L71.60416988229751,112.25777713244302L72.12631988143922,112.80614799957632L72.27484254786174,112.96077802400868L72.42568588094711,113.11729378044632L72.4790612141927,113.17273430140133L72.68095921386083,113.38091911478344L72.84804721358617,113.5528978736643L73.15437521308263,113.86517509373746L73.90859187850953,114.62512509186234L74.27525721124013,114.98944851528103L74.82989654366175,115.53367077200272L74.9389678768158,115.63964891069904L75.02715321000417,115.72563829013947L75.09213187656403,115.7886217391156L75.35668787612916,116.04394985262951L76.21069320805867,116.85632320050098L76.90225187358857,117.50199783910634L76.92545854021708,117.52311803756538L77.02756787338257,117.61740463782903L77.08790520661671,117.6732223051851L77.19233520644507,117.76939463745401L77.24571053969065,117.81842366959108L77.41976053940456,117.97720230443505L77.57292453915278,118.11712361922628L77.83515987205506,118.35472585189063L78.13684653822581,118.6262712606499L78.16237387151719,118.6496543375153L78.20878720477421,118.69076329523023L78.75878520387013,119.17916788459587L79.08599920333226,119.46730773500153L79.2438045364062,119.60534331778749L79.55709453589122,119.87726587294782L79.56173586921692,119.8814144833594L79.64992120240528,119.9568437635703L79.70329653565089,120.00323277090001L80.34380053459803,120.55160363803331L80.57122586755753,120.74394830257113L80.58979120086033,120.7590341586133L80.99358720019659,121.09771162676029L81.07016920007071,121.1614493685385L81.24189853312174,121.30438785453816L81.33240453297296,121.37906284194696L81.53198186597824,121.54425296560885L81.81046186552048,121.77242653824685L81.99379453188578,121.92177651306444L82.13071386499405,122.03303470137553L82.81531053053538,122.5832913005141L83.10771453005472,122.81485919076158L83.18893786325455,122.8793512253419L83.3606671963056,123.01474678332049L83.69716386241912,123.27799497125655L83.75518052899044,123.3232525393831L83.90370319541296,123.4386593381058L83.93619252869289,123.46355100057539L84.24716186151504,123.70379325804711L84.47922852780025,123.88105206654276L84.63471319421133,123.99985318287493L85.39357119296392,124.57122998047255L85.39589185962676,124.57349285887888L85.46783252617519,124.62704764782862L86.19420119164785,125.16334983012817L86.22204919160207,125.18371573578511L86.23133185825347,125.1905043710041L86.23365252491632,125.19201295660832L86.50052919114431,125.3862433531514L87.03660319026311,125.77319556063335L87.2640285232226,125.93612280588891L87.3034798564911,125.9636544931659L87.34525185642242,125.99344905884921L87.77921652237573,126.30006908290653L87.99039718869527,126.44791047211993L88.06929985523223,126.50259670027283L88.11107185516357,126.53239126595614L88.93026718715032,127.09735657473584L89.201785186704,127.28215831125256L89.23195385332107,127.3025242169095L89.44545518630345,127.44621699571127L89.51275451952617,127.49222885663993L89.60326051937739,127.55294942720971L90.43637985134124,128.10622319755672L90.4967171845754,128.14544642326638L90.59186451775233,128.20805272584144L90.64988118432363,128.24614451234794L90.97245385046006,128.45583791133427L91.11633518355687,128.54899307239475L91.59903384943009,128.85900741406158L91.63616451603572,128.88314478372905L91.80789384908677,128.99176294723276L91.92392718222936,129.0653064954384L92.23953784837722,129.26481694159625L92.4298325147311,129.38361805792843L92.83826984739304,129.63781473223918L92.8986071806272,129.67515222594358L93.04016784706116,129.76227304458718L93.23046251341502,129.8791884289141L93.3905885131518,129.97686934678723L93.48573584632874,130.0349498925496L93.58552451283137,130.09567046311938L93.89185251232783,130.2804721996361L93.9173798456192,130.2963123484804L94.24691451174418,130.4935599162319L94.46505717805226,130.62329827819468L94.49754651133219,130.64253274464846L96.08952384204865,131.56767286643523L96.17538850857416,131.61670189857233L96.76251717427571,131.9485907315003L97.02243184051514,132.09341494950527L97.17327517360052,132.17676430413832L97.18951984024048,132.18657011056573L97.31947717336018,132.25785078036503L97.34036317332585,132.2691651723967L97.47728250643412,132.34497159900863L97.50745117305121,132.36156604065505L97.87179583911896,132.56145363321394L97.94837783899308,132.6025625909289L98.47748983812333,132.88843956292823L98.72580117104847,133.02081794969837L98.99267783727646,133.16262499649488L99.1063905037562,133.22259127426253L99.23634783687592,133.29123191925447L99.54267583637237,133.4518962861037L99.56124116967518,133.4617020925311L99.86756916917165,133.62123502017718L100.14140783538818,133.76228777417157L100.20406583528519,133.79472236466228L100.20870716861089,133.79660809666754L100.41756716826757,133.90371767456702L100.58001383466721,133.98631273639796L100.65891650120417,134.02666740131082L100.72389516776403,134.05947913820256L101.47811183319092,134.4381341248613L101.49899783315658,134.44869422409084L101.5268458331108,134.4622714945288L101.57093849970501,134.48452313219101L101.61038983297348,134.50338045224373L101.7357058327675,134.5659867548188L101.76355383272171,134.5791868788557L101.821570499293,134.60785000533585L101.90743516581853,134.65009040225397L102.14878449875513,134.76851437218508L102.19287716534933,134.79038886344625L102.43654716494879,134.90881283337737L102.94941449743907,135.1558437260681L102.99814849735895,135.17922680293347L103.12578516381582,135.2403245199043L103.32768316348394,135.3364968521732L103.49941249653497,135.417960474801L103.92641516249974,135.61822521376095L105.20278182706834,136.20544216020286L105.25151582698822,136.22731665146404L105.27008116029104,136.23599101868828L105.30489116023381,136.25183116753257L105.55088182649612,136.3627122094426L105.75974182615279,136.45586737050309L106.2192338253975,136.65990357347357L106.23547849203746,136.66631506229152L106.40024582509994,136.73910431769502L106.64159515803655,136.8447053099903L106.68104649130504,136.86205404443882L106.83653115771611,136.92956325022757L107.32155049025218,137.13887950281284L107.38884982347489,137.16791977569403L108.21036582212449,137.51640305026842L108.27998582201003,137.54582046955068L108.32407848860423,137.5639234968013L108.53061782159806,137.6502900226428L108.65129248806636,137.70045049398306L108.72323315461477,137.73024505966634L108.85551115439733,137.7845541414182L109.46352582006455,138.03422505891632L109.54010781993865,138.06515106380277L110.12723648564021,138.3012447108629L110.20613915217717,138.33254786215045L110.84432248446147,138.58561309725803L111.1042371507009,138.68668833274066L111.8375678161621,138.9699252799326L111.96520448261897,139.01933145847076L112.41077248188655,139.18791589974214L112.44790314849217,139.20262460938326L112.47343048178354,139.2120532694096L112.8818678144455,139.3647975618367L113.01646648089091,139.4145808867759L113.06287981414796,139.43230676762548L113.34135981369018,139.53526773511334L113.66857381315232,139.65557743704974L113.72426981306076,139.67556619630565L114.03988047920862,139.79059584862728L114.26266447884241,139.87130517845293L114.39958381195068,139.92033421059003L114.42511114524206,139.92900857781427L115.34177447706858,140.25448592192436L115.40675314362844,140.27673755958656L115.52510714343389,140.31860081010362L115.75021180973053,140.3966701151219L115.82215247627894,140.4215617775915L115.8337558095932,140.4257103880031L116.07974647585552,140.51019118183933L116.72025047480265,140.72818180164884L117.19366647402445,140.88809187569598L117.5348044734637,141.00123579601234L117.57193514006933,141.01405877364817L117.58121780672074,141.01669879845556L117.65779980659484,141.04234475372726L117.70421313985189,141.05743060976945L117.87362180624008,141.11324827712554L118.44682647196451,141.29993574564753L118.65104513829549,141.36631351223312L118.92024247118631,141.45305718447565L118.98290047108333,141.4726687973305L119.14534713748296,141.52471500067603L119.3031524705569,141.5748754720163L119.49344713691075,141.63484174978396L119.60483913672765,141.67029351148307L119.64196980333328,141.68123075711367L120.3753004687945,141.90978147615272L120.70483513491949,142.01161100443744L120.98563580112457,142.09684609107575L121.24090913403829,142.17416110329194L121.46137246700923,142.24053886987753L121.7189664665858,142.31823102849478L121.76073846651713,142.33029971332851L122.24807846571605,142.47436963853136L122.91178913129171,142.66822288867337L122.95124046456019,142.679537280705L123.04174646441142,142.70593752877883L123.64047846342723,142.8771619948576L124.1974384625117,143.03405489769628L124.27866179571151,143.05706082816062L124.40397779550553,143.0921354434587L124.4782391287168,143.11212420271457L124.64532712844213,143.15926750284638L124.70798512833912,143.1766162372949L124.71726779499055,143.17887911570122L124.86346979475022,143.2196109270151L125.2695864607493,143.33049196892514L125.29975512736638,143.33878918974835L125.48540846039454,143.3889496610886L125.49469112704595,143.39158968589598L125.57823512690862,143.41421846995925L125.78013312657674,143.4685275517111L125.7963777932167,143.47343045492482L125.8984871263822,143.50058499580075L126.02148245951335,143.5333967326925L126.67358979177475,143.70650693077653L126.81282979154587,143.7430901316788L127.17717445761363,143.83813102474454L127.20966379089354,143.84642824556775L127.55312245699565,143.93581194261768L127.87801578979492,144.01916129725072L128.35607312234242,144.1398481455882L128.3769591223081,144.145505341604L128.49995445543925,144.17643134649046L128.81324445492427,144.2548777979098L128.89678845478693,144.27524370356676L129.1636651210149,144.34162147015235L129.58370578699112,144.44533673044236L130.0339151195844,144.55470918674817L130.16619311936697,144.5860123380357L130.34952578573228,144.63013846695907L130.43306978559494,144.650504372616L130.6953051184972,144.71348782159214L130.73243578510284,144.72178504241532L130.91576845146815,144.7651568785366L131.11534578447342,144.81267732506947L132.73749178180694,145.18605226211346L132.83728044830957,145.20868104617674L132.9765204480807,145.23998419746425L133.02293378133774,145.25016715029273L133.29213111422857,145.31051057446146L133.41280578069686,145.3369108225353L133.55204578046798,145.3682139738228L133.63558978033066,145.38631700107342L133.7585851134618,145.4138486883504L133.7980364467303,145.42176876277256L133.83052578001022,145.42931169079364L133.88622177991869,145.44175752202844L133.9140697798729,145.44779186444532L134.00457577972412,145.4677806237012L134.03706511300405,145.47494640532125L134.3248277791977,145.53717556149525L134.47567111228307,145.569987298387L134.52904644552865,145.58167883681966L134.77503711179097,145.63410218656625L135.01870711139043,145.68614838991178L135.12545777788162,145.70915432037611L135.81005444342296,145.85322424557893L136.5573091088613,146.00823141641234L136.87756110833485,146.0734777437948L137.55055444056194,146.2092504481744L137.67587044035594,146.23414211064403L137.73388710692723,146.2458336490767L138.0262911064466,146.30353704843805L138.2142651061376,146.34012024934034L138.35582577257156,146.36802908301837L138.39991843916576,146.37708059664368L139.2539237710953,146.54227072030557L139.36995710423787,146.56452235796777L139.5857791038831,146.60525416928166L139.62290977048875,146.61279709730277L139.6925297703743,146.62599722133967L139.86193843676247,146.65805466542932L140.12649443632762,146.70783799036852L140.69969910205205,146.81457042186693L140.70434043537776,146.814947568268L141.14062576799392,146.8952797516926L141.51193243405027,146.96241181108033L141.87163576679228,147.0272809920617L142.08745776643755,147.06612707137032L142.2150944328944,147.08837870903253L142.3543344326655,147.1128932251011L143.3011664311091,147.278460495164L143.412558430926,147.2976949616178L143.43112376422883,147.3018435720294L143.7745824303309,147.3599241177918L143.88365376348494,147.37915858424557L144.0368177632332,147.40442739311624L144.431331095918,147.47080515970183L144.5589677623749,147.49305679736406L144.70052842880884,147.51643987422943L144.7794310953458,147.52963999826633L145.06487309487662,147.5771604447992L145.10664509480796,147.5839490800182L145.46402776088715,147.6427839185827L145.7425077604294,147.6876643403082L145.983857093366,147.72726471241893L146.06043909324012,147.73971054365373L146.20896175966263,147.7630936205191L146.23216842629114,147.76686508452966L146.41550109265646,147.7962825038119L146.45031109259924,147.80193969982773L147.13258709147772,147.9098035705293L147.15115242478055,147.91357503453986L147.28807175788882,147.93431808659787L147.32056109116874,147.93922098981156L147.84039042364756,148.0203074660383L147.8566350902875,148.02257034444463L147.86591775693893,148.02407893004883L147.87520042359034,148.02558751565306L148.20241442305246,148.0757479869933L148.27899642292658,148.08706237902496L148.30452375621795,148.0915881358376L148.68975442225138,148.1496686816L148.72456442219416,148.1553258776158L148.77329842211407,148.1621145128348L148.80810842205685,148.16739456244954L149.08194708827338,148.2085035201645L149.60409708741506,148.2858185323807L149.97308308680854,148.33975046773148L150.02413775339127,148.34729339575256L150.12624708655673,148.36237925179475L150.1912257531166,148.37180791182112L150.39544441944759,148.4016024775044L150.69713108561834,148.4449743136257L150.80156108544668,148.45968302326682L151.29122175130843,148.52945510746193L151.53721241757074,148.56377542995787L151.5441744175593,148.56490686916104L151.60451175079345,148.5735812363853L151.67645241734186,148.58300989641165L152.09185174999237,148.64146758857513L152.1034550833066,148.6433533205804L152.12202041660944,148.64599334538775L152.49796841599147,148.69728525593118L152.62096374912264,148.7146339903797L153.085097081693,148.77724029295476L153.3751804145495,148.81608637226336L153.869482413737,148.8820869924479L153.9460644136111,148.89226994527638L154.04353241345086,148.90509292291222L154.16652774658203,148.9209330717565L154.3405777462959,148.94393900222084L154.37306707957583,148.94808761263243L154.3893117462158,148.94997334463773L154.57496507924398,148.97411071430523L154.9903644118945,149.02804264965602L155.06694641176858,149.03784845608342L155.4823457444191,149.09140324503318L156.1785457432747,149.1789012100778L156.1924697432518,149.18040979568204L156.6078690759023,149.23207885262653L157.24837307484944,149.31014815764482L158.48992973947526,149.4594981324624L158.6082837392807,149.47307540290035L158.8264264055888,149.49872135817208L159.09562373847962,149.53040165586066L159.22326040493647,149.54473321910072L159.29288040482203,149.55303043992393L159.4738924045245,149.57415063838297L159.5365504044215,149.58131642000302L159.57600173768998,149.58584217681567L159.63401840426127,149.59187651923253L160.15848907006583,149.65221994340126L160.19561973667146,149.65561426101075L160.20954373664856,149.65749999301602L160.73865573577882,149.7167119779816L160.84772706893284,149.7291578092164L161.12852773513794,149.7597066677018L161.57409573440552,149.8087356998389L161.61122640101115,149.81326145665156L161.6808464008967,149.82005009187054L161.83633106730778,149.83739882631903L161.8688204005877,149.8404159975275L162.64624373264311,149.92338820575947L162.86206573228836,149.94752557542697L162.87598973226548,149.94865701463013L162.9270443988482,149.95318277144278L163.1359043985049,149.975434409105L163.54898306449255,150.01880624522627L163.6139617310524,150.02597202684632L163.82978373069764,150.04784651810746L164.00383373041154,150.06632669175914L165.05045439535778,150.17155053765336L165.24306972837448,150.19040785770608L165.40783706143696,150.2070022993525L165.63294172773362,150.2300082298168L165.66078972768784,150.23227110822313L165.783785060819,150.24358550025477L166.00656906045276,150.265837137917L166.34538639322918,150.29902602120978L167.4105723914782,150.4001012566924L167.59622572450638,150.41744999114093L168.2854637233734,150.48194202572125L168.3574043899218,150.4879763681381L168.37596972322464,150.48948495374233L169.11626238867441,150.55737130593215L169.46436238810222,150.58867445721967L169.91921305402118,150.62902912213252L170.23946505349477,150.65656080940948L170.4019117198944,150.6712695190506L170.40423238655728,150.6712695190506L170.5991683862368,150.68824110709807L170.96583371896745,150.71992140478665L171.22110705188115,150.74179589604782L171.4160430515607,150.75876748409527L171.7014850510915,150.7825277073617L171.95675838400524,150.80402505222182L172.13080838371914,150.81797946906084L172.25148305018743,150.82853956829035L172.91519371576308,150.88360294284433L172.93840038239162,150.88511152844853L172.94304171571733,150.88586582125066L173.32363104842503,150.9167918261371L173.79240571432115,150.95375217344048L174.0244723806063,150.9726094934932L174.0499997138977,150.97487237189952L174.1753157136917,150.9843010319259L174.61856304629646,151.019752793625L174.68586237951914,151.02540998964082L174.72763437945048,151.0280500144482L174.9202497124672,151.04275872408934L175.0942997121811,151.05671314092837L175.1662403787295,151.06237033694418L175.2729910452207,151.07066755776736L175.4447203782717,151.0838676818043L175.54218837811152,151.0910334634243L175.69535237785973,151.10310214825807L176.15484437710444,151.13817676355615L176.24999171028136,151.14496539877513L176.4843790432294,151.16269127962468L177.06222504227958,151.2056859693449L177.60990237471265,151.2456634878567L177.87213770761488,151.26489795431047L178.19703104041417,151.28828103117584L178.57065837313334,151.3143041328486L178.6356370396932,151.31920703606232L178.74006703952153,151.3259956712813L179.7124263712565,151.39463631627322L179.79132903779347,151.39916207308588L179.8818350376447,151.4055735619038L181.62233503478367,151.52362038543387L181.62465570144653,151.5232432390328L181.66410703471502,151.5258832638402L181.88921170101165,151.53983768067923L182.0075657008171,151.5481349015024L182.20018103383381,151.5605807327372L182.38119303353628,151.5722722711699L183.1678990322431,151.6228098889112L183.30481836535137,151.63110710973442L183.72950036465326,151.65750735780824L183.73182103131612,151.65788450420928L183.7619896979332,151.6601473826156L184.08920369739533,151.67975899547045L184.20523703053792,151.68730192349153L184.38856969690323,151.69823916912213L184.4373036968231,151.70125634033056L184.8689476961136,151.7276565884044L184.9316056960106,151.7314280524149L185.00122569589615,151.73557666282653L185.18455836226147,151.7465139084571L185.45607636181512,151.76348549650456L186.71619835974374,151.8370290447102L186.72548102639516,151.8370290447102L186.79742169294357,151.84155480152285L186.88096569280623,151.84645770473657L186.9993196926117,151.85286919355448L187.17569035898845,151.86342929278402L187.7767430246671,151.8966181760768L187.96471702435812,151.9075554217074L188.60522102330526,151.94338432980757L188.70268902314504,151.9482872330213L188.96724502271016,151.96299594266242L189.2596490222295,151.9788360915067L189.31998635546364,151.9822304091162L189.5891836883545,151.99693911875733L189.9465663544337,152.01579643881004L190.0765236875534,152.0229622204301L190.19487768735885,152.02824227004484L190.24593235394158,152.03125944125327L190.3225143538157,152.036162344467L190.38053102038702,152.03842522287331L190.75183768644334,152.0576596893271L190.9328496861458,152.06784264215557L190.98158368606568,152.07048266696296L190.98390435272853,152.07048266696296L190.98854568605424,152.0701055205619L191.22525368566514,152.0825513517967L191.23221568565367,152.08292849819776L191.32504235216777,152.0874542550104L191.5895983517329,152.10103152544838L191.97250835110344,152.1206431383032L192.32060835053127,152.1387461655538L192.49465835024517,152.14742053277809L192.63621901667915,152.153832021596L193.03073234936397,152.17344363445085L193.35330501550038,152.18966092969617L194.3511916805267,152.2383128154322L194.44633901370366,152.24246142584383L194.45794234701793,152.243592865047L194.56701368017198,152.24811862185965L194.70625367994307,152.25453011067756L194.7596290131887,152.257547281886L194.9615270128568,152.2665987955113L195.36996434551872,152.2865875547672L195.3862090121587,152.2865875547672L196.94337634293237,152.35824537096755L197.02692034279505,152.36163968857704L197.58155967521668,152.38577705824454L197.6535003417651,152.38803993665087L198.34505900729496,152.41896594153735L198.3868310072263,152.42085167354261L198.57248434025448,152.42801745516266L198.71636567335128,152.43480609038164L198.87417100642523,152.44197187200166L199.41024500554403,152.46460065606493L199.4148863388697,152.46384636326283L199.70729033838907,152.4766693408987L199.8070790048917,152.48044080490922L200.0832383377711,152.49137805053982L200.57754033695858,152.51249824899887L200.695894336764,152.51702400581152L201.0300703362147,152.53022412984842L201.13914166936874,152.53474988666107L201.21340300258,152.53852135067163L201.41065966892242,152.54644142509378L201.67985700181325,152.55662437792225L201.69610166845322,152.55737867072435L201.7216290017446,152.5585101099275L202.0674083345095,152.57171023396444L202.35749166736602,152.58302462599607L202.64989566688539,152.59471616442875L202.96550633303323,152.6067848492625L203.1279529994329,152.61244204527833L203.39018833233516,152.6226249981068L203.75917433172862,152.6365794149458L203.98892033135095,152.6456309285711L204.43448833061854,152.66184822381646L204.5319563304583,152.66599683422805L204.7013649968465,152.67165403024387L204.83364299662907,152.67617978705653L206.01718299468357,152.71917447677674L206.17498832775752,152.72483167279256L206.35367966079713,152.73048886880838L206.38616899407705,152.73162030801154L206.47667499392827,152.73463747922L206.55093632713954,152.73765465042842L206.80853032671612,152.74670616405373L207.25641899264653,152.76254631289802L207.41654499238334,152.76744921611174L207.5093716588974,152.77159782652333L207.9247709915479,152.7851750969613L207.9781463247935,152.7878151217687L208.15451699117023,152.79384946418554L208.42371432406105,152.8017695386077L208.48173099063237,152.804032417014L208.78573832346598,152.8142153698425L208.80198299010593,152.81496966264461L208.85535832335154,152.81610110184778L208.93194032322566,152.81874112665514L208.94122298987708,152.8191182730562L209.09206632296244,152.82439832267096L209.24290965604783,152.8289240794836L209.6745536553383,152.84287849632264L209.7650596551895,152.84627281393213L209.80219032179514,152.84702710673423L210.13636632124584,152.85834149876587L210.19670365448,152.8598500843701L210.28256832100553,152.86286725557852L210.77687032019298,152.87833025802178L210.8673763200442,152.8805931364281L210.8720176533699,152.8813474292302L211.05535031973523,152.88700462524602L211.1713836528778,152.8903989428555L211.215476319472,152.89228467486078L211.4521843190829,152.89907331007976L212.06484031807582,152.91755348373144L212.3270756509781,152.92622785095568L212.4082989841779,152.92886787576307L213.3899409825643,152.95753100224323L213.68698631540934,152.96658251586854L214.0814996480942,152.97789690790017L214.50154031407038,152.98958844633285L214.6314976471901,152.99373705674446L214.72200364704133,152.99637708155183L215.00512497990925,153.00429715597397L215.1002723130862,153.00693718078136L215.20934364624026,153.01070864479192L215.2882463127772,153.01184008399508L215.42980697921118,153.01636584080774L215.4715789791425,153.01712013360984L215.6456289788564,153.0224001832246L215.99604964494705,153.0314516968499L216.11672431141534,153.03560030726152L216.44161764421466,153.04465182088683L217.00553964328765,153.05936053052795L217.59034764232635,153.07520067937224L217.96397497504552,153.08425219299755L218.07536697486242,153.08689221780492L218.5255763074557,153.09933804903972L218.59983764066695,153.10160092744604L218.61840297396978,153.1019780738471L218.7344363071124,153.1046180986545L219.0570089732488,153.11291531947768L219.09181897319158,153.11329246587874L219.2449829729398,153.1170639298893L219.53738697245916,153.12460685791038L219.73464363880157,153.1302640539262L219.85995963859557,153.1336583715357L220.04097163829803,153.13742983554624L220.370506304423,153.1461042027705L220.50974630419412,153.14912137397891L220.5468769707998,153.15025281318208L220.5840076374054,153.1510071059842L220.66987230393093,153.15289283798947L220.85552563695907,153.15741859480212L221.02725497001012,153.16156720521371L221.20594630304973,153.16647010842743L221.6422316356659,153.177407354058L221.7141723022143,153.17816164686013L221.79075430208843,153.1800473788654L221.93927696851097,153.18306455007382L222.02978296836216,153.1857045748812L222.05531030165355,153.18683601408438L222.20151230141323,153.1898531852928L222.74918963384627,153.20305330932973L222.816488967069,153.20456189493393L222.97197363348008,153.2075790661424L223.83294096539814,153.22832211820037L224.1926442981402,153.2354878998204L224.27386763134004,153.23775077822674L224.29011229798,153.23737363182568L224.5941196308136,153.24491655984679L224.6242882974307,153.24529370624782L224.73103896392186,153.24831087745628L224.791376297156,153.2486880238573L224.91669229695003,153.25245948786787L225.12323162994386,153.25660809827946L226.01668829514188,153.2754654183322L226.14896629492443,153.27848258954063L226.39495696118672,153.28376263915538L226.5458002942721,153.28640266396278L226.65023029410042,153.2894198351712L227.00065096019108,153.29620847039018L227.0284989601453,153.2969627631923L227.4926322927157,153.30714571602078L227.64115495913822,153.3094085944271L227.71309562568663,153.3109171800313L227.74326429230373,153.3116714728334L228.29326229139963,153.322608718464L228.4487469578107,153.3260030360735L228.98946229025523,153.33731742810514L229.2029636232376,153.34146603851673L229.31667628971735,153.34335177052202L229.56498762264252,153.3490089665378L230.11498562173844,153.35956906576735L230.3540142880122,153.36371767617896L230.5512709543546,153.3667348473874L230.58840162096024,153.36786628659056L231.4748962861697,153.3840835818359L231.51434761943818,153.38596931384117L231.77194161901474,153.39049507065383L231.81603428560894,153.3908722170549L232.00400828529993,153.39502082746648L232.13396561841964,153.39690655947174L232.14788961839673,153.3972837058728L232.61666428429285,153.40520378029495L232.77679028402963,153.40822095150338L232.80695895064673,153.40859809790445L233.1109662834803,153.41425529392026L234.20167961502074,153.43386690677508L234.55906228109998,153.43990124919196L234.605475614357,153.44103268839513L235.08353294690448,153.44819847001517L235.310958279864,153.45272422682783L235.42002961301804,153.45574139803625L235.48732894624075,153.45611854443732L235.83542894566853,153.4621528868542L235.88184227892557,153.4621528868542L235.88880427891414,153.4621528868542L236.03268561201094,153.46479291166156L236.08606094525655,153.46592435086473L236.0930229452451,153.46667864366685L236.55947694447838,153.47422157168793L236.72888561086654,153.4761073036932L236.92614227720895,153.47987876770375L236.9864796104431,153.48063306050585L237.27888360996246,153.4851588173185L237.42508560972212,153.4877988421259L238.20715027510326,153.50062181976176L238.39976560811996,153.50326184456912L238.53668494122823,153.50477043017335L238.54132627455394,153.50552472297545L238.61326694110232,153.50665616217861L238.77803427416484,153.509296186986L239.3210702732722,153.51759340780922L239.54617493956886,153.5209877254187L240.12170027195614,153.52966209264295L240.59047493785224,153.53720502066403L241.11958693698247,153.543993655883L241.49089360303878,153.5500279982999L242.23118626848856,153.56021095112837L242.31473026835124,153.56134239033153L242.33329560165404,153.56134239033153L242.59321026789345,153.56624529354522L242.68139560108185,153.56699958634735L243.16873560028077,153.57341107516527L243.41704693320594,153.57680539277476L243.73961959934235,153.58170829598848L243.80227759923935,153.5813311495874L244.09700226542157,153.58661119920217L244.41493359823227,153.59038266321272L244.544890931352,153.59264554161905L244.61915226456324,153.5930226880201L244.78391959762573,153.59490842002538L244.86978426415126,153.5964170056296L245.66577292950947,153.60735425126018L245.8723122625033,153.6096171296665L245.9256875957489,153.6103714224686L246.06492759552003,153.6122571544739L246.08349292882284,153.61263430087496L246.2784289285024,153.6148971792813L246.6891869278272,153.62017722889604L246.87484026085536,153.62244010730237L247.06977626053492,153.6254572785108L247.162602927049,153.62583442491186L247.23222292693455,153.62734301051606L247.38306626001994,153.62847444971925L247.45732759323118,153.6303601817245L248.35310492509208,153.64092028095402L248.67335692456564,153.64506889136564L248.83580359096527,153.6469546233709L248.9982502573649,153.64846320897513L249.08643559055326,153.64997179457936L249.27673025690714,153.65223467298568L249.37883959007263,153.65298896578778L249.51807958984375,153.6552518441941L249.69445025622048,153.65638328339728L249.82672825600304,153.65902330820467L250.0332675889969,153.66090904020993L250.15162158880236,153.6627947722152L250.1585835887909,153.6620404794131L250.34423692181906,153.66430335781942L250.59951025473276,153.6676976754289L250.6227169213613,153.66807482182995L250.9545722541491,153.67071484663734L251.12398092053732,153.67335487144473L251.56954891980487,153.67863492105948L251.73199558620453,153.6801435066637L251.8457082526843,153.68202923866897L251.88748025261563,153.68240638507004L252.03600291903814,153.68391497067427L252.3817822518031,153.6876864346848L252.92945958423616,153.69372077710167L253.08030291732152,153.69522936270587L253.57924624983468,153.7001322659196L254.12692358226775,153.70616660833647L254.17565758218765,153.70692090113857L254.37291424853007,153.7084294867428L254.37755558185577,153.7091837795449L255.0041355808258,153.71484097556072L255.22924024712245,153.7182352931702L255.2710122470538,153.7182352931702" fill="none"></path></g></g></g></g></g></g><g transform="translate(51, 177)" clip-path="url(#clip_1)"><clipPath id="clip_1"><rect width="278" height="22"></rect></clipPath><g><g><line x1="0" y1="0" x2="0" y2="5" style="visibility: inherit;" fill="rgb(0, 0, 0)" stroke="rgb(204, 204, 204)" stroke-width="1px"></line><line x1="23.20666662851969" y1="0" x2="23.20666662851969" y2="5" style="visibility: inherit;" fill="rgb(0, 0, 0)" stroke="rgb(204, 204, 204)" stroke-width="1px"></line><line x1="46.41333325703938" y1="0" x2="46.41333325703938" y2="5" style="visibility: inherit;" fill="rgb(0, 0, 0)" stroke="rgb(204, 204, 204)" stroke-width="1px"></line><line x1="69.61999988555908" y1="0" x2="69.61999988555908" y2="5" style="visibility: inherit;" fill="rgb(0, 0, 0)" stroke="rgb(204, 204, 204)" stroke-width="1px"></line><line x1="92.82666651407877" y1="0" x2="92.82666651407877" y2="5" style="visibility: inherit;" fill="rgb(0, 0, 0)" stroke="rgb(204, 204, 204)" stroke-width="1px"></line><line x1="116.03333314259848" y1="0" x2="116.03333314259848" y2="5" style="visibility: inherit;" fill="rgb(0, 0, 0)" stroke="rgb(204, 204, 204)" stroke-width="1px"></line><line x1="139.23999977111816" y1="0" x2="139.23999977111816" y2="5" style="visibility: inherit;" fill="rgb(0, 0, 0)" stroke="rgb(204, 204, 204)" stroke-width="1px"></line><line x1="162.44666639963788" y1="0" x2="162.44666639963788" y2="5" style="visibility: inherit;" fill="rgb(0, 0, 0)" stroke="rgb(204, 204, 204)" stroke-width="1px"></line><line x1="185.65333302815753" y1="0" x2="185.65333302815753" y2="5" style="visibility: inherit;" fill="rgb(0, 0, 0)" stroke="rgb(204, 204, 204)" stroke-width="1px"></line><line x1="208.85999965667725" y1="0" x2="208.85999965667725" y2="5" style="visibility: inherit;" fill="rgb(0, 0, 0)" stroke="rgb(204, 204, 204)" stroke-width="1px"></line><line x1="232.06666628519696" y1="0" x2="232.06666628519696" y2="5" style="visibility: inherit;" fill="rgb(0, 0, 0)" stroke="rgb(204, 204, 204)" stroke-width="1px"></line><line x1="255.27333291371662" y1="0" x2="255.27333291371662" y2="5" style="visibility: inherit;" fill="rgb(0, 0, 0)" stroke="rgb(204, 204, 204)" stroke-width="1px"></line><line x1="278.4799995422363" y1="0" x2="278.4799995422363" y2="5" style="visibility: inherit;" fill="rgb(0, 0, 0)" stroke="rgb(204, 204, 204)" stroke-width="1px"></line></g><g transform="translate(0, 8)"><text style="text-anchor: middle; visibility: hidden; font-family: &quot;Helvetica Neue&quot;, sans-serif; font-size: 12px; font-weight: 200;" x="0" y="0" dx="0em" dy="0.95em" fill="rgb(50, 49, 63)" stroke="none" stroke-width="1px">-10k</text><text style="text-anchor: middle; visibility: inherit; font-family: &quot;Helvetica Neue&quot;, sans-serif; font-size: 12px; font-weight: 200;" x="23.20666662851969" y="0" dx="0em" dy="0.95em" fill="rgb(50, 49, 63)" stroke="none" stroke-width="1px">0</text><text style="text-anchor: middle; visibility: hidden; font-family: &quot;Helvetica Neue&quot;, sans-serif; font-size: 12px; font-weight: 200;" x="46.41333325703938" y="0" dx="0em" dy="0.95em" fill="rgb(50, 49, 63)" stroke="none" stroke-width="1px">10k</text><text style="text-anchor: middle; visibility: inherit; font-family: &quot;Helvetica Neue&quot;, sans-serif; font-size: 12px; font-weight: 200;" x="69.61999988555908" y="0" dx="0em" dy="0.95em" fill="rgb(50, 49, 63)" stroke="none" stroke-width="1px">20k</text><text style="text-anchor: middle; visibility: hidden; font-family: &quot;Helvetica Neue&quot;, sans-serif; font-size: 12px; font-weight: 200;" x="92.82666651407877" y="0" dx="0em" dy="0.95em" fill="rgb(50, 49, 63)" stroke="none" stroke-width="1px">30k</text><text style="text-anchor: middle; visibility: inherit; font-family: &quot;Helvetica Neue&quot;, sans-serif; font-size: 12px; font-weight: 200;" x="116.03333314259848" y="0" dx="0em" dy="0.95em" fill="rgb(50, 49, 63)" stroke="none" stroke-width="1px">40k</text><text style="text-anchor: middle; visibility: hidden; font-family: &quot;Helvetica Neue&quot;, sans-serif; font-size: 12px; font-weight: 200;" x="139.23999977111816" y="0" dx="0em" dy="0.95em" fill="rgb(50, 49, 63)" stroke="none" stroke-width="1px">50k</text><text style="text-anchor: middle; visibility: inherit; font-family: &quot;Helvetica Neue&quot;, sans-serif; font-size: 12px; font-weight: 200;" x="162.44666639963788" y="0" dx="0em" dy="0.95em" fill="rgb(50, 49, 63)" stroke="none" stroke-width="1px">60k</text><text style="text-anchor: middle; visibility: hidden; font-family: &quot;Helvetica Neue&quot;, sans-serif; font-size: 12px; font-weight: 200;" x="185.65333302815753" y="0" dx="0em" dy="0.95em" fill="rgb(50, 49, 63)" stroke="none" stroke-width="1px">70k</text><text style="text-anchor: middle; visibility: inherit; font-family: &quot;Helvetica Neue&quot;, sans-serif; font-size: 12px; font-weight: 200;" x="208.85999965667725" y="0" dx="0em" dy="0.95em" fill="rgb(50, 49, 63)" stroke="none" stroke-width="1px">80k</text><text style="text-anchor: middle; visibility: hidden; font-family: &quot;Helvetica Neue&quot;, sans-serif; font-size: 12px; font-weight: 200;" x="232.06666628519696" y="0" dx="0em" dy="0.95em" fill="rgb(50, 49, 63)" stroke="none" stroke-width="1px">90k</text><text style="text-anchor: middle; visibility: inherit; font-family: &quot;Helvetica Neue&quot;, sans-serif; font-size: 12px; font-weight: 200;" x="255.27333291371662" y="0" dx="0em" dy="0.95em" fill="rgb(50, 49, 63)" stroke="none" stroke-width="1px">100k</text><text style="text-anchor: middle; visibility: hidden; font-family: &quot;Helvetica Neue&quot;, sans-serif; font-size: 12px; font-weight: 200;" x="278.4799995422363" y="0" dx="0em" dy="0.95em" fill="rgb(50, 49, 63)" stroke="none" stroke-width="1px">110k</text></g><line x1="0" y1="0" x2="278.4799995422363" y2="0" fill="rgb(0, 0, 0)" stroke="rgb(204, 204, 204)" stroke-width="1px"></line></g></g></g></g></svg>