<svg viewBox="0 0 330 200" xmlns="http://www.w3.org/2000/svg"><g><g><g><g><g><line x1="30.760000228881836" y1="177.95999908447266" x2="25.760000228881836" y2="177.95999908447266" style="visibility: inherit;" fill="rgb(0, 0, 0)" stroke="rgb(204, 204, 204)" stroke-width="1px"></line><line x1="30.760000228881836" y1="164.27076838566705" x2="25.760000228881836" y2="164.27076838566705" style="visibility: inherit;" fill="rgb(0, 0, 0)" stroke="rgb(204, 204, 204)" stroke-width="1px"></line><line x1="30.760000228881836" y1="150.58153768686148" x2="25.760000228881836" y2="150.58153768686148" style="visibility: inherit;" fill="rgb(0, 0, 0)" stroke="rgb(204, 204, 204)" stroke-width="1px"></line><line x1="30.760000228881836" y1="136.89230698805588" x2="25.760000228881836" y2="136.89230698805588" style="visibility: inherit;" fill="rgb(0, 0, 0)" stroke="rgb(204, 204, 204)" stroke-width="1px"></line><line x1="30.760000228881836" y1="123.2030762892503" x2="25.760000228881836" y2="123.2030762892503" style="visibility: inherit;" fill="rgb(0, 0, 0)" stroke="rgb(204, 204, 204)" stroke-width="1px"></line><line x1="30.760000228881836" y1="109.5138455904447" x2="25.760000228881836" y2="109.5138455904447" style="visibility: inherit;" fill="rgb(0, 0, 0)" stroke="rgb(204, 204, 204)" stroke-width="1px"></line><line x1="30.760000228881836" y1="95.82461489163911" x2="25.760000228881836" y2="95.82461489163911" style="visibility: inherit;" fill="rgb(0, 0, 0)" stroke="rgb(204, 204, 204)" stroke-width="1px"></line><line x1="30.760000228881836" y1="82.13538419283354" x2="25.760000228881836" y2="82.13538419283354" style="visibility: inherit;" fill="rgb(0, 0, 0)" stroke="rgb(204, 204, 204)" stroke-width="1px"></line><line x1="30.760000228881836" y1="68.44615349402794" x2="25.760000228881836" y2="68.44615349402794" style="visibility: inherit;" fill="rgb(0, 0, 0)" stroke="rgb(204, 204, 204)" stroke-width="1px"></line><line x1="30.760000228881836" y1="54.756922795222366" x2="25.760000228881836" y2="54.756922795222366" style="visibility: inherit;" fill="rgb(0, 0, 0)" stroke="rgb(204, 204, 204)" stroke-width="1px"></line><line x1="30.760000228881836" y1="41.06769209641675" x2="25.760000228881836" y2="41.06769209641675" style="visibility: inherit;" fill="rgb(0, 0, 0)" stroke="rgb(204, 204, 204)" stroke-width="1px"></line><line x1="30.760000228881836" y1="27.378461397611176" x2="25.760000228881836" y2="27.378461397611176" style="visibility: inherit;" fill="rgb(0, 0, 0)" stroke="rgb(204, 204, 204)" stroke-width="1px"></line><line x1="30.760000228881836" y1="13.689230698805574" x2="25.760000228881836" y2="13.689230698805574" style="visibility: inherit;" fill="rgb(0, 0, 0)" stroke="rgb(204, 204, 204)" stroke-width="1px"></line><line x1="30.760000228881836" y1="0" x2="25.760000228881836" y2="0" style="visibility: inherit;" fill="rgb(0, 0, 0)" stroke="rgb(204, 204, 204)" stroke-width="1px"></line></g><g transform="translate(20.760000228881836, 0)"><text style="text-anchor: end; visibility: hidden; font-family: &quot;Helvetica Neue&quot;, sans-serif; font-size: 12px; font-weight: 200;" x="0" y="177.95999908447266" dx="0em" dy="0.3em" fill="rgb(50, 49, 63)" stroke="none" stroke-width="1px">37</text><text style="text-anchor: end; visibility: inherit; font-family: &quot;Helvetica Neue&quot;, sans-serif; font-size: 12px; font-weight: 200;" x="0" y="164.27076838566705" dx="0em" dy="0.3em" fill="rgb(50, 49, 63)" stroke="none" stroke-width="1px">38</text><text style="text-anchor: end; visibility: hidden; font-family: &quot;Helvetica Neue&quot;, sans-serif; font-size: 12px; font-weight: 200;" x="0" y="150.58153768686148" dx="0em" dy="0.3em" fill="rgb(50, 49, 63)" stroke="none" stroke-width="1px">39</text><text style="text-anchor: end; visibility: inherit; font-family: &quot;Helvetica Neue&quot;, sans-serif; font-size: 12px; font-weight: 200;" x="0" y="136.89230698805588" dx="0em" dy="0.3em" fill="rgb(50, 49, 63)" stroke="none" stroke-width="1px">40</text><text style="text-anchor: end; visibility: hidden; font-family: &quot;Helvetica Neue&quot;, sans-serif; font-size: 12px; font-weight: 200;" x="0" y="123.2030762892503" dx="0em" dy="0.3em" fill="rgb(50, 49, 63)" stroke="none" stroke-width="1px">41</text><text style="text-anchor: end; visibility: inherit; font-family: &quot;Helvetica Neue&quot;, sans-serif; font-size: 12px; font-weight: 200;" x="0" y="109.5138455904447" dx="0em" dy="0.3em" fill="rgb(50, 49, 63)" stroke="none" stroke-width="1px">42</text><text style="text-anchor: end; visibility: hidden; font-family: &quot;Helvetica Neue&quot;, sans-serif; font-size: 12px; font-weight: 200;" x="0" y="95.82461489163911" dx="0em" dy="0.3em" fill="rgb(50, 49, 63)" stroke="none" stroke-width="1px">43</text><text style="text-anchor: end; visibility: inherit; font-family: &quot;Helvetica Neue&quot;, sans-serif; font-size: 12px; font-weight: 200;" x="0" y="82.13538419283354" dx="0em" dy="0.3em" fill="rgb(50, 49, 63)" stroke="none" stroke-width="1px">44</text><text style="text-anchor: end; visibility: hidden; font-family: &quot;Helvetica Neue&quot;, sans-serif; font-size: 12px; font-weight: 200;" x="0" y="68.44615349402794" dx="0em" dy="0.3em" fill="rgb(50, 49, 63)" stroke="none" stroke-width="1px">45</text><text style="text-anchor: end; visibility: inherit; font-family: &quot;Helvetica Neue&quot;, sans-serif; font-size: 12px; font-weight: 200;" x="0" y="54.756922795222366" dx="0em" dy="0.3em" fill="rgb(50, 49, 63)" stroke="none" stroke-width="1px">46</text><text style="text-anchor: end; visibility: hidden; font-family: &quot;Helvetica Neue&quot;, sans-serif; font-size: 12px; font-weight: 200;" x="0" y="41.06769209641675" dx="0em" dy="0.3em" fill="rgb(50, 49, 63)" stroke="none" stroke-width="1px">47</text><text style="text-anchor: end; visibility: inherit; font-family: &quot;Helvetica Neue&quot;, sans-serif; font-size: 12px; font-weight: 200;" x="0" y="27.378461397611176" dx="0em" dy="0.3em" fill="rgb(50, 49, 63)" stroke="none" stroke-width="1px">48</text><text style="text-anchor: end; visibility: hidden; font-family: &quot;Helvetica Neue&quot;, sans-serif; font-size: 12px; font-weight: 200;" x="0" y="13.689230698805574" dx="0em" dy="0.3em" fill="rgb(50, 49, 63)" stroke="none" stroke-width="1px">49</text><text style="text-anchor: end; visibility: hidden; font-family: &quot;Helvetica Neue&quot;, sans-serif; font-size: 12px; font-weight: 200;" x="0" y="0" dx="0em" dy="0.3em" fill="rgb(50, 49, 63)" stroke="none" stroke-width="1px">50</text></g><line x1="30.760000228881836" y1="0" x2="30.760000228881836" y2="177.95999908447266" fill="rgb(0, 0, 0)" stroke="rgb(204, 204, 204)" stroke-width="1px"></line></g></g><g transform="translate(30, 0)" clip-path="url(#clip_0)"><clipPath id="clip_0"><rect width="299" height="177"></rect></clipPath><g><g><g><line x1="0" y1="0" x2="0" y2="177.95999908447266" fill="rgb(0, 0, 0)" stroke="rgb(60, 60, 60)" stroke-width="1px" opacity="0.25"></line><line x1="24.936666647593178" y1="0" x2="24.936666647593178" y2="177.95999908447266" fill="rgb(0, 0, 0)" stroke="rgb(60, 60, 60)" stroke-width="1px" opacity="0.25"></line><line x1="49.873333295186356" y1="0" x2="49.873333295186356" y2="177.95999908447266" fill="rgb(0, 0, 0)" stroke="rgb(60, 60, 60)" stroke-width="1px" opacity="0.25"></line><line x1="74.80999994277954" y1="0" x2="74.80999994277954" y2="177.95999908447266" fill="rgb(0, 0, 0)" stroke="rgb(60, 60, 60)" stroke-width="1px" opacity="0.25"></line><line x1="99.74666659037271" y1="0" x2="99.74666659037271" y2="177.95999908447266" fill="rgb(0, 0, 0)" stroke="rgb(60, 60, 60)" stroke-width="1px" opacity="0.25"></line><line x1="124.68333323796591" y1="0" x2="124.68333323796591" y2="177.95999908447266" fill="rgb(0, 0, 0)" stroke="rgb(60, 60, 60)" stroke-width="1px" opacity="0.25"></line><line x1="149.61999988555908" y1="0" x2="149.61999988555908" y2="177.95999908447266" fill="rgb(0, 0, 0)" stroke="rgb(60, 60, 60)" stroke-width="1px" opacity="0.25"></line><line x1="174.55666653315228" y1="0" x2="174.55666653315228" y2="177.95999908447266" fill="rgb(0, 0, 0)" stroke="rgb(60, 60, 60)" stroke-width="1px" opacity="0.25"></line><line x1="199.49333318074542" y1="0" x2="199.49333318074542" y2="177.95999908447266" fill="rgb(0, 0, 0)" stroke="rgb(60, 60, 60)" stroke-width="1px" opacity="0.25"></line><line x1="224.42999982833862" y1="0" x2="224.42999982833862" y2="177.95999908447266" fill="rgb(0, 0, 0)" stroke="rgb(60, 60, 60)" stroke-width="1px" opacity="0.25"></line><line x1="249.36666647593182" y1="0" x2="249.36666647593182" y2="177.95999908447266" fill="rgb(0, 0, 0)" stroke="rgb(60, 60, 60)" stroke-width="1px" opacity="0.25"></line><line x1="274.30333312352496" y1="0" x2="274.30333312352496" y2="177.95999908447266" fill="rgb(0, 0, 0)" stroke="rgb(60, 60, 60)" stroke-width="1px" opacity="0.25"></line><line x1="299.23999977111816" y1="0" x2="299.23999977111816" y2="177.95999908447266" fill="rgb(0, 0, 0)" stroke="rgb(60, 60, 60)" stroke-width="1px" opacity="0.25"></line></g><g><line x1="0" y1="177.95999908447266" x2="299.23999977111816" y2="177.95999908447266" fill="rgb(0, 0, 0)" stroke="rgb(60, 60, 60)" stroke-width="1px" opacity="0.25"></line><line x1="0" y1="164.27076838566705" x2="299.23999977111816" y2="164.27076838566705" fill="rgb(0, 0, 0)" stroke="rgb(60, 60, 60)" stroke-width="1px" opacity="0.25"></line><line x1="0" y1="150.58153768686148" x2="299.23999977111816" y2="150.58153768686148" fill="rgb(0, 0, 0)" stroke="rgb(60, 60, 60)" stroke-width="1px" opacity="0.25"></line><line x1="0" y1="136.89230698805588" x2="299.23999977111816" y2="136.89230698805588" fill="rgb(0, 0, 0)" stroke="rgb(60, 60, 60)" stroke-width="1px" opacity="0.25"></line><line x1="0" y1="123.2030762892503" x2="299.23999977111816" y2="123.2030762892503" fill="rgb(0, 0, 0)" stroke="rgb(60, 60, 60)" stroke-width="1px" opacity="0.25"></line><line x1="0" y1="109.5138455904447" x2="299.23999977111816" y2="109.5138455904447" fill="rgb(0, 0, 0)" stroke="rgb(60, 60, 60)" stroke-width="1px" opacity="0.25"></line><line x1="0" y1="95.82461489163911" x2="299.23999977111816" y2="95.82461489163911" fill="rgb(0, 0, 0)" stroke="rgb(60, 60, 60)" stroke-width="1px" opacity="0.25"></line><line x1="0" y1="82.13538419283354" x2="299.23999977111816" y2="82.13538419283354" fill="rgb(0, 0, 0)" stroke="rgb(60, 60, 60)" stroke-width="1px" opacity="0.25"></line><line x1="0" y1="68.44615349402794" x2="299.23999977111816" y2="68.44615349402794" fill="rgb(0, 0, 0)" stroke="rgb(60, 60, 60)" stroke-width="1px" opacity="0.25"></line><line x1="0" y1="54.756922795222366" x2="299.23999977111816" y2="54.756922795222366" fill="rgb(0, 0, 0)" stroke="rgb(60, 60, 60)" stroke-width="1px" opacity="0.25"></line><line x1="0" y1="41.06769209641675" x2="299.23999977111816" y2="41.06769209641675" fill="rgb(0, 0, 0)" stroke="rgb(60, 60, 60)" stroke-width="1px" opacity="0.25"></line><line x1="0" y1="27.378461397611176" x2="299.23999977111816" y2="27.378461397611176" fill="rgb(0, 0, 0)" stroke="rgb(60, 60, 60)" stroke-width="1px" opacity="0.25"></line><line x1="0" y1="13.689230698805574" x2="299.23999977111816" y2="13.689230698805574" fill="rgb(0, 0, 0)" stroke="rgb(60, 60, 60)" stroke-width="1px" opacity="0.25"></line><line x1="0" y1="0" x2="299.23999977111816" y2="0" fill="rgb(0, 0, 0)" stroke="rgb(60, 60, 60)" stroke-width="1px" opacity="0.25"></line></g></g></g><g><g><line x1="0" y1="684.4615349402795" x2="299.23999977111816" y2="684.4615349402795" fill="rgb(0, 0, 0)" stroke="rgb(153, 153, 153)" stroke-width="1.5px"></line></g></g><g><g><line x1="24.936666647593178" y1="0" x2="24.936666647593178" y2="177.95999908447266" fill="rgb(0, 0, 0)" stroke="rgb(153, 153, 153)" stroke-width="1.5px"></line></g></g><g><g><g><g><g><path style="fill: none;" stroke="rgb(255, 112, 67)" stroke-width="2px" d="M35.41006663958232,-3.0657200215896125L35.908799972534176,4.978468308910209L36.40753330548605,12.157119901901751L36.906266638437906,18.60591115116651L37.40499997138977,24.43212171357132L37.903733304341635,29.722382693042817L38.40246663729349,34.54797156509278L38.901199970245365,38.96834345737187L39.39993330319722,43.0337090580623L39.89866663614909,46.78681092189396L40.39739996910095,50.2643233537262L40.89613330205281,53.49783849706783L41.39486663500468,56.514708613267075L41.89359996795655,59.338676760860864L42.392333300908405,61.99035963464006L42.89106663386027,64.48778792145107L43.38979996681213,66.84664695854879L43.888533299764,69.08069267254332L44.387266632715864,71.20191758952306L44.88599996566772,73.22085932176516L45.38473329861959,75.1468065476221L45.88346663157145,76.9878599349913L46.382199964523316,78.75117757640322L46.88093329747518,80.44308047381503L47.37966663042704,82.06913671757101L47.87839996337891,83.63427465808978L48.37713329633077,85.14287169697792L48.87586662928263,86.59878667358541L49.3745999622345,88.00550462558625L49.873333295186356,89.36609831667559L50.37206662813823,90.68333048183709L50.87079996109009,91.95967339828634L51.36953329404195,93.19734151614522L51.868266626993815,94.39835281306226L52.36699995994567,95.5645238307695L52.865733292897545,96.69750847323155L53.36446662584941,97.79882128553652L53.86319995880127,98.86980964501278L54.36193329175313,99.9117415164416L54.86066662470499,100.92577455275051L55.35939995765686,101.91297933164678L55.85813329060873,102.87435329759664L56.356866623560585,103.81080823890565L56.85559995651245,104.72320455018266L57.35433328946432,105.61235090170973L57.85306662241618,106.47900404106532L58.351799955368044,107.3238686740965L58.8505332883199,108.14759739350376L59.34926662127177,108.95085330031617L59.84799995422364,109.73422224812651L60.346733287175496,110.49828551828213L60.84546662012736,111.24357987256707L61.34419995307922,111.97063624913562L61.842933286031084,112.67994031574653L62.341666618982956,113.37197146603111L62.84039995193481,114.04720532914297L63.33913328488668,114.70605261122469L63.83786661783854,115.34898950515384L64.3365999507904,115.97638527909041L64.83533328374227,116.5886494869056L65.33406661669413,117.18617407768073L65.832799949646,117.76931954951476L66.33153328259786,118.33846930613417L66.83026661554972,118.89395783031641L67.32899994850159,119.43613202848675L67.82773328145345,119.96530448504205L68.32646661440532,120.48180896737907L68.82519994735718,120.98592928836925L69.32393328030903,121.47800284060243L69.8226666132609,121.95831561206592L70.32139994621276,122.42714363609407L70.82013327916464,122.88477786133754L71.3188666121165,123.33147640942022L71.81759994506835,123.76751948196679L72.31633327802022,124.19313786427693L72.8150666109721,124.60859535618084L73.31379994392395,125.0141546781183L73.81253327687581,125.4100361266783L74.31126660982767,125.79645543224788L74.80999994277954,126.17368824981777L75.3087332757314,126.54189997238225L75.80746660868327,126.90135694060481L76.30619994163513,127.25221895888373L76.80493327458699,127.59474901472478L77.30366660753887,127.92910490063147L77.80239994049073,128.2554857326479L78.30113327344259,128.57407364472522L78.79986660639445,128.8850823577763L79.29859993934632,129.18868188056544L79.79733327229818,129.4850577707848L80.29606660525003,129.77436313926626L80.7947999382019,130.0567734049425L81.29353327115376,130.33243559538988L81.79226660410562,130.6015423676959L82.2909999370575,130.86425109233005L82.78973327000936,131.12069796779048L83.28846660296122,131.37102737750138L83.7871999359131,131.61538861584233L84.28593326886495,131.85393392376602L84.78466660181681,132.08679642206113L85.28339993476867,132.31411864752553L85.78213326772054,132.53600701034657L86.2808666006724,132.75260890907015L86.77959993362425,132.96407544714884L87.27833326657614,133.17049728665415L87.777066599528,133.37199148915408L88.27579993247986,133.56869095591458L88.77453326543173,133.7606963158036L89.27326659838359,133.94815149857536L89.77199993133544,134.13112197397405L90.27073326428732,134.30973057627955L90.76946659723917,134.48409278227655L91.26819993019103,134.65429876614436L91.7669332631429,134.82046529671544L92.26566659609477,134.9826624352894L92.76439992904663,135.14099488297114L93.26313326199849,135.29554634853193L93.76186659495036,135.4464297215596L94.26059992790222,135.59371273580692L94.75933326085408,135.7374778077423L95.25806659380595,135.87783705157162L95.75679992675782,136.0148577358188L96.25553325970968,136.14860110970622L96.75426659266154,136.27916658709253L97.25299992561341,136.40661381629315L97.75173325856527,136.5310203625137L98.25046659151712,136.65247454109434L98.749199924469,136.7710293412394L99.24793325742085,136.8867583326881L99.74666659037271,136.99972654539226L100.2453999233246,137.11001477353977L100.74413325627646,137.21767149364334L101.24286658922831,137.32276756782738L101.74159992218019,137.42536640147483L102.24033325513204,137.52550603781543L102.7390665880839,137.6232719671122L103.23779992103576,137.71871548352303L103.73653325398763,137.81186736354255L104.23526658693949,137.90280873739252L104.73399991989135,137.9915882832061L105.23273325284323,138.07825609597177L105.73146658579509,138.1628422326822L106.23019991874695,138.24542739185836L106.72893325169882,138.32603910450445L107.22766658465068,138.4047356654397L107.72639991760254,138.48155205155567L108.2251332505544,138.55653013709548L108.72386658350626,138.62973682282188L109.22259991645812,138.70119136108437L109.72133324940998,138.77094707950903L110.22006658236187,138.83905686278L110.71879991531372,138.90551066549102L111.21753324826558,138.9704069009402L111.71626658121745,139.03374195278136L112.21499991416931,139.09555542742334L112.71373324712117,139.1559337530368L113.21246658007304,139.2148661221987L113.7111999130249,139.2723878266724L114.20993324597676,139.32854092962384L114.70866657892864,139.38335066895286L115.2073999118805,139.43685307550763L115.70613324483236,139.48909065590533L116.20486657778422,139.54006802600816L116.70359991073609,139.58985061965825L117.20233324368795,139.63843592094435L117.7010665766398,139.6858641965364L118.19979990959168,139.73218049454454L118.69853324254353,139.77737006761842L119.19726657549539,139.82148673167274L119.69599990844728,139.86456277625638L120.19473324139913,139.90659668699033L120.69346657435099,139.94765021957215L121.19219990730286,139.98771865120375L121.69093324025472,140.02684092442303L122.18966657320658,140.0650195166444L122.68839990615844,140.1022768024247L123.18713323911031,140.13866798271494L123.68586657206217,140.17418440186884L124.18459990501403,140.20884175460714L124.68333323796591,140.24269123397895L125.18206657091777,140.27572177959698L125.68079990386963,140.30796853144557L126.1795332368215,140.33945257351542L126.67826656977336,140.37016566809262L127.17699990272521,140.40016553687371L127.67573323567709,140.42946592476846L128.17446656862896,140.45805419061423L128.6731999015808,140.4859645259302L129.17193323453267,140.513217445628L129.67066656748455,140.53980437054605L130.1693999004364,140.56576192940423L130.66813323338826,140.59109121132613L131.16686656634013,140.61583464600253L131.665599899292,140.63999680313967L132.16433323224385,140.66358042456113L132.66306656519572,140.6865871553614L133.1617998981476,140.70903887070494L133.66053323109944,140.73096958379938L134.1592665640513,140.7523788144607L134.65799989700318,140.77328716268678L135.15673322995502,140.79368610036806L135.6554665629069,140.81361228685557L136.15419989585877,140.83304594154316L136.65293322881064,140.85201697228382L137.15166656176248,140.8705433237894L137.65039989471435,140.88861487477868L138.14913322766623,140.90626732869958L138.64786656061807,140.92350121951256L139.14659989356994,140.94033775570222L139.6453332265218,140.95674788614258L140.14406655947366,140.97275595637484L140.64279989242553,140.98839746183197L141.1415332253774,141.0036728116655L141.64026655832927,141.01858225136627L142.13899989128112,141.03314681633717L142.637733224233,141.04737912782002L143.13646655718486,141.06124498234314L143.6351998901367,141.07478652214854L144.13393322308858,141.08800814447306L144.63266655604045,141.10091248765886L145.1313998889923,141.11350113471136L145.6301332219442,141.12577503543355L146.12886655489604,141.1377765359242L146.6275998878479,141.14948926762565L147.12633322079975,141.16092429751168L147.62506655375162,141.17208826576672L148.1237998867035,141.1829851565014L148.62253321965534,141.19363824829023L149.1212665526072,141.20401973206148L149.61999988555908,141.21415469858874L150.11873321851095,141.22405820233612L150.6174665514628,141.23371838787375L151.11619988441467,141.24314903005197L151.61493321736654,141.25235839378115L152.11366655031838,141.26133054989904L152.61239988327026,141.27009771712514L153.11113321622213,141.2786583385826L153.60986654917397,141.28703236825382L154.10859988212587,141.29519000231144L154.60733321507774,141.3031760227842L155.1060665480296,141.31095463456427L155.60479988098146,141.3185461368035L156.1035332139333,141.32596270899325L156.60226654688518,141.33319077071968L157.10099987983705,141.34026394995152L157.5997332127889,141.34716064725313L158.09846654574076,141.35388879107154L158.59719987869263,141.36045313847487L159.09593321164448,141.36685654370402L159.59466654459635,141.37312160741206L160.09339987754822,141.37922011377384L160.59213321050007,141.3851769095112L161.09086654345194,141.3910069026571L161.5895998764038,141.39669814992317L162.08833320935565,141.4022434853361L162.58706654230753,141.4076594974204L163.08579987525943,141.41295613929094L163.58453320821124,141.41811849470804L164.08326654116314,141.42313761392796L164.581999874115,141.4280707914296L165.08073320706686,141.4328688514668L165.57946654001873,141.4375440648086L166.0781998729706,141.44212468202477L166.57693320592244,141.4465858772405L167.07566653887432,141.45095453114766L167.5743998718262,141.45522588405285L168.07313320477803,141.4593761920318L168.5718665377299,141.46343298494662L169.07059987068175,141.4673918926063L169.56933320363362,141.471250292896L170.0680665365855,141.4750275006555L170.56679986953733,141.4787142166801L171.0655332024892,141.482304861447L171.56426653544108,141.48581697535099L172.06299986839292,141.48924019452033L172.5617332013448,141.49258918874074L173.0604665342967,141.49587275988324L173.5591998672485,141.49903352474564L174.0579332002004,141.50214149394824L174.55666653315228,141.50519689764675L175.05539986610412,141.50815809771765L175.554133199056,141.5110627756119L176.05286653200787,141.5138708758751L176.5515998649597,141.51662102955973L177.05033319791158,141.51931552718884L177.54906653086346,141.52195574307618L178.0477998638153,141.5245216137018L178.54653319676717,141.52702198906206L179.04526652971904,141.52946217915468L179.5439998626709,141.53184536997838L180.04273319562276,141.53417347313237L180.54146652857463,141.53646852368448L181.04019986152647,141.5386810783504L181.53893319447835,141.54084413548452L182.0376665274302,141.54295660599132L182.53639986038206,141.5450178364133L183.03513319333396,141.547027434676L183.5338665262858,141.5490060536432L184.03259985923768,141.5509243088163L184.53133319218955,141.55280634571298L185.0300665251414,141.5546248754271L185.52879985809327,141.5564053008316L186.02753319104514,141.5581628636505L186.52626652399698,141.5598649327011L187.02499985694885,141.56153370549077L187.52373318990072,141.56314072430723L188.02246652285257,141.56473157884813L188.52119985580444,141.56629184671527L189.0199331887563,141.56779198636139L189.51866652170816,141.56927693718336L190.01739985466003,141.5707109984941L190.5161331876119,141.57211452609798L191.01486652056374,141.57347884536946L191.51359985351564,141.57481963964153L192.01233318646752,141.57612543080552L192.51106651941936,141.57738933199636L193.00979985237123,141.5786280992033L193.50853318532307,141.57985178601993L194.00726651827495,141.5810455364939L194.50599985122682,141.58220043705398L195.00473318417866,141.5833320276658L195.50346651713053,141.58444963230852L196.0021998500824,141.58551706915307L196.50093318303425,141.58657529342716L196.99966651598612,141.5875862139422L197.498399848938,141.58858964031015L197.99713318188984,141.5895676820815L198.4958665148417,141.5905304930949L198.99459984779358,141.5914423894368L199.49333318074542,141.59236551319253L199.9920665136973,141.59325359717985L200.4907998466492,141.5941206573061L200.989533179601,141.5949542150073L201.4882665125529,141.59576767125353L201.98699984550478,141.59658995473518L202.48573317845663,141.59737575834123L202.9844665114085,141.59813967402204L203.48319984436037,141.59889045694757L203.98193317731221,141.59963336022008L204.4806665102641,141.60035064759228L204.97939984321596,141.60105256542442L205.4781331761678,141.60172437342408L205.97686650911967,141.60239900363263L206.47559984207152,141.6030544390582L206.9743331750234,141.60367746950547L207.47306650797526,141.6043019450743L207.9717998409271,141.60490639960764L208.47053317387898,141.60547795341128L208.96926650683085,141.6060506548855L209.4679998397827,141.6066031568537L209.96673317273456,141.60716442722662L210.46546650568646,141.60771007053404L210.96419983863828,141.60824633760214L211.46293317159018,141.6087560908183L211.96166650454205,141.6092499357233L212.4603998374939,141.60973423564164L212.95913317044577,141.61019192045953L213.45786650339764,141.6106545243256L213.95659983634948,141.6111200796205L214.45533316930135,141.61156651766441L214.95406650225323,141.61200148535767L215.45279983520507,141.61240868273217L215.95153316815694,141.6128201060238L216.4502665011088,141.6132131767573L216.94899983406066,141.61359523595598L217.44773316701253,141.61399157634222L217.9464664999644,141.61437559733247L218.44519983291624,141.61473133857675L218.94393316586812,141.61509100008192L219.44266649881996,141.61543212563518L219.94139983177183,141.61576212961734L220.44013316472373,141.61608546065682L220.93886649767558,141.61642567603914L221.43759983062745,141.61675513391873L221.93633316357932,141.61705724918824L222.43506649653116,141.61736384700018L222.93379982948304,141.6176522462292L223.4325331624349,141.61792972630838L223.93126649538675,141.6182215430061L224.42999982833862,141.61848018545822L224.9287331612905,141.6187398114713L225.42746649424234,141.61902091572938L225.9261998271942,141.61927313071766L226.42493316014608,141.61952890025245L226.92366649309793,141.61976591440683L227.4223998260498,141.61999167533287L227.92113315900167,141.620210684322L228.4198664919535,141.6204465302573L228.9185998249054,141.62067159025196L229.41733315785729,141.6208901786822L229.91606649080913,141.6210839960654L230.414799823761,141.62128383892883L230.91353315671284,141.62148729708036L231.41226648966472,141.6216720362964L231.9109998226166,141.62186643225942L232.40973315556843,141.62204573416238L232.9084664885203,141.62223686773763L233.40719982147218,141.62241421220781L233.90593315442402,141.62258328321508L234.4046664873759,141.62274739014455L234.90339982032776,141.62290851862736L235.4021331532796,141.6230678600421L235.90086648623148,141.62322612921605L236.39959981918335,141.62338375504555L236.8983331521352,141.62354099486834L237.39706648508707,141.62367711497865L237.89579981803897,141.62382145137L238.39453315099078,141.62394982942158L238.89326648394268,141.62408952057757L239.39199981689455,141.6242359995963L239.8907331498464,141.6243656632242L240.38946648279827,141.6244852376177L240.88819981575014,141.62459875847048L241.38693314870198,141.62472953530738L241.88566648165386,141.62484977762614L242.38439981460573,141.62496369923417L242.88313314755757,141.62507382841565L243.38186648050944,141.62518168214132L243.8805998134613,141.6252881705935L244.37933314641316,141.62539383988155L244.87806647936503,141.62549901767107L245.37679981231688,141.62558301245315L245.87553314526875,141.62567518553914L246.37426647822062,141.62577226560742L246.87299981117246,141.6258722898651L247.37173314412433,141.6259740806365L247.87046647707623,141.62605604320774L248.36919981002805,141.62612610885884L248.86793314297995,141.62620992446625L249.36666647593182,141.62632287815575L249.86539980888367,141.6264115384778L250.36413314183554,141.62648562277943L250.8628664747874,141.6265509614688L251.36159980773925,141.6266110527908L251.86033314069113,141.62668888380068L252.359066473643,141.62677735862334L252.85779980659484,141.62685133162537L253.3565331395467,141.62691660353494L253.85526647249858,141.62697665478902L254.35399980545043,141.62703357364978L254.8527331384023,141.6270886130746L255.35146647135417,141.62714252483792L255.85019980430602,141.62719576000424L256.3489331372579,141.62724858921246L256.84766647020973,141.62730117484568L257.3463998031616,141.62737450244236L257.8451331361135,141.62743938710872L258.34386646906535,141.62749920601698L258.8425998020172,141.62753509736189L259.3413331349691,141.62759840838555L259.8400664679209,141.62763639499974L260.3387998008728,141.627700963185L260.83753313382465,141.62773970409617L261.3362664667765,141.6277838367512L261.8349997997284,141.62783120445263L262.33373313268027,141.62788051318182L262.83246646563214,141.6279100984194L263.331199798584,141.6279487376703L263.8299331315359,141.62799280932919L264.3286664644877,141.62801925232452L264.82739979743957,141.62805600623005L265.32613313039144,141.62809894668175L265.8248664633433,141.62812471095282L266.3235997962952,141.62816105762383L266.82233312924706,141.6282037537348L267.32106646219887,141.62825025950974L267.81979979515074,141.6282781629747L268.3185331281026,141.628315793162L268.8172664610545,141.62835925938276L269.31599979400636,141.62838533911523L269.8147331269582,141.62840098695463L270.31346645991005,141.62843126376669L270.812199792862,141.6284703179623L271.3109331258138,141.62849375047972L271.80966645876566,141.62852869809845L272.30839979171753,141.6285496666697L272.8071331246694,141.62858313592085L273.3058664576213,141.62860321747152L273.80459979057315,141.62861526640194" fill="none"></path></g></g></g></g><g opacity="0.2"><g><g><g><path style="fill: none;" stroke="rgb(255, 112, 67)" stroke-width="2px" d="M34.41259997367859,-4.581284367394318L34.91133330663045,3.3890433621284046L35.41006663958232,10.562280876400791L35.908799972534176,17.044591986193637L36.40753330548605,22.92501225341738L36.906266638437906,28.279052189815474L37.40499997138977,33.171412711051886L37.903733304341635,37.657760625922265L38.40246663729349,41.78634746475237L38.901199970245365,45.598897224003366L39.39993330319722,49.13175521223232L39.89866663614909,52.41646247307207L40.39739996910095,55.48059130956581L40.89613330205281,58.34811082606366L41.39486663500468,61.04001357147354L41.89359996795655,63.574628860886705L42.392333300908405,65.96788387693232L42.89106663386027,68.2339303130284L43.38979996681213,70.3849354922982L43.888533299764,72.43176123109207L44.387266632715864,74.38375495790388L44.88599996566772,76.24927191608003L45.38473329861959,78.03572738409052L45.88346663157145,79.74944001471604L46.382199964523316,81.39615403775734L46.88093329747518,82.98093481949317L47.37966663042704,84.50822108295128L47.87839996337891,85.98198156872128L48.37713329633077,87.40576725522541L48.87586662928263,88.78265913844761L49.3745999622345,90.11558155355921L49.873333295186356,91.40698885329319L50.37206662813823,92.65917872956982L50.87079996109009,93.87418777295477L51.36953329404195,95.05384369293013L51.868266626993815,96.19986975843607L52.36699995994567,97.31378035732912L52.865733292897545,98.39698543692403L53.36446662584941,99.45079050399363L53.86319995880127,100.47629218422719L54.36193329175313,101.47463932358481L54.86066662470499,102.44682410721389L55.35939995765686,103.39378649999092L55.85813329060873,104.31641424652143L56.356866623560585,105.2154906508692L56.85559995651245,106.0917990170979L57.35433328946432,106.94607042900036L57.85306662241618,107.77898375009849L58.351799955368044,108.59116562364328L58.8505332883199,109.38319047261477L59.34926662127177,110.15573716053488L59.84799995422364,110.90927566984185L60.346733287175496,111.64438042351573L60.84546662012736,112.36152140399477L61.34419995307922,113.06122081398811L61.842933286031084,113.74389641566309L62.341666618982956,114.41001819145794L62.84039995193481,115.06005612381088L63.33913328488668,115.69432353434745L63.83786661783854,116.31339484604764L64.3365999507904,116.91747893999519L64.83533328374227,117.5070457986283L65.33406661669413,118.08246096384335L65.832799949646,118.64403775726589L66.33153328259786,119.1921939410632L66.83026661554972,119.72719061658987L67.32899994850159,120.24939332574229L67.82773328145345,120.75906316987508L68.32646661440532,121.2565656908846L68.82519994735718,121.74210976985452L69.32393328030903,122.21611316895219L69.8226666132609,122.67878476926126L70.32139994621276,123.13038567213627L70.82013327916464,123.57122919920278L71.3188666121165,124.00152423154437L71.81759994506835,124.42158409078658L72.31633327802022,124.83156543774217L72.8150666109721,125.23178159403659L73.31379994392395,125.62249366102444L73.81253327687581,126.00385829951847L74.31126660982767,126.37608439060233L74.80999994277954,126.73953747617242L75.3087332757314,127.09421755622876L75.80746660868327,127.44054239293865L76.30619994163513,127.7785119863021L76.80493327458699,128.10854409848645L77.30366660753887,128.43063872949168L77.80239994049073,128.74505698067236L78.30113327344259,129.05195551284123L78.79986660639445,129.3515954273529L79.29859993934632,129.64408116474917L79.79733327229818,129.92962160611373L80.29606660525003,130.20832119198838L80.7947999382019,130.4803888034568L81.29353327115376,130.74592888106082L81.79226660410562,131.005202526155L82.2909999370575,131.25831417928117L82.78973327000936,131.5053682809812L83.28846660296122,131.74652149206779L83.7871999359131,131.9819304733537L84.28593326886495,132.21175188565172L84.78466660181681,132.4360901695036L85.28339993476867,132.65510198572213L85.78213326772054,132.8688395545782L86.2808666006724,133.07751175715552L86.77959993362425,133.2812752542668L87.27833326657614,133.48013004591206L87.777066599528,133.674232792904L88.27579993247986,133.86374015605543L88.77453326543173,134.04870435563723L89.27326659838359,134.22933427273304L89.77199993133544,134.405577687072L90.27073326428732,134.57764347973773L90.76946659723917,134.74563609127205L91.26819993019103,134.90960774194593L91.7669332631429,135.06971509257207L92.26566659609477,135.22595814315048L92.76439992904663,135.3784935544939L93.26313326199849,135.52737354687326L93.76186659495036,135.6727547811013L94.26059992790222,135.81463725717802L94.75933326085408,135.95312541564525L95.25806659380595,136.08837591731572L95.75679992675782,136.22038876218946L96.25553325970968,136.34921617053735L96.75426659266154,136.47501480317217L97.25299992561341,136.5977846600939L97.75173325856527,136.7176301818444L98.25046659151712,136.83465580896546L98.749199924469,136.9488615414571L99.24793325742085,137.06035181986115L99.74666659037271,137.1691788644485L100.2453999233246,137.27544711576104L100.74413325627646,137.3791565737987L101.24286658922831,137.48041167910336L101.74159992218019,137.57926465194592L102.24033325513204,137.67571549232636L102.7390665880839,137.76992086105747L103.23779992103576,137.86188075813922L103.73653325398763,137.9515951835716L104.23526658693949,138.03922079816738L104.73399991989135,138.12475760192655L105.23273325284323,138.20825781512002L105.73146658579509,138.2897214377478L106.23019991874695,138.36930513062265L106.72893325169882,138.4469566734736L107.22766658465068,138.52278050684254L107.72639991760254,138.59677663072944L108.2251332505544,138.6689972654052L108.72386658350626,138.73954685141172L109.22259991645812,138.808373168478L109.72133324940998,138.87558065714592L110.22006658236187,138.94122153768637L110.71879991531372,139.00519136955756L111.21753324826558,139.06775125411403L111.71626658121745,139.12874453054303L112.21499991416931,139.1882756393864L112.71373324712117,139.24650124145688L113.21246658007304,139.30326467594176L113.7111999130249,139.35867038338284L114.20993324597676,139.41277058405103L114.70866657892864,139.46556527794635L115.2073999118805,139.51710668533968L115.70613324483236,139.56744702650198L116.20486657778422,139.6165340811623L116.70359991073609,139.66452451013342L117.20233324368795,139.7113138728735L117.7010665766398,139.7570066099243L118.19979990959168,139.80165494155685L118.69853324254353,139.84515442722926L119.19726657549539,139.88766172775425L119.69599990844728,139.92917684313187L120.19473324139913,139.9696475530912L120.69346657435099,140.00923051844495L121.19219990730286,140.04782129865131L121.69093324025472,140.0855243342521L122.18966657320658,140.12228740497645L122.68839990615844,140.15816273109522L123.18713323911031,140.19325475315026L123.68586657206217,140.22745903059973L124.18459990501403,140.26082778371457L124.68333323796591,140.29346545303662L125.18206657091777,140.325267598024L125.68079990386963,140.35633865921858L126.1795332368215,140.38667863662033L126.67826656977336,140.41623530995835L127.17699990272521,140.4451653400454L127.67573323567709,140.47341650661053L128.17446656862896,140.5009365893829L128.6731999015808,140.52783002890422L129.17193323453267,140.55409682517458L129.67066656748455,140.57968475792308L130.1693999004364,140.60469826769148L130.66813323338826,140.62908513420888L131.16686656634013,140.65294979801715L131.665599899292,140.67624003884535L132.16433323224385,140.6989558566935L132.66306656519572,140.72109725156153L133.1617998981476,140.74271644372044L133.66053323109944,140.76386565344112L134.1592665640513,140.78449266045266L134.65799989700318,140.80464968502594L135.15673322995502,140.82428450689005L135.6554665629069,140.84350156658687L136.15419989585877,140.86219642357452L136.65293322881064,140.88047351839487L137.15166656176248,140.89833285104788L137.65039989471435,140.91572220126267L138.14913322766623,140.93274600958102L138.64786656061807,140.94935205573208L139.14659989356994,140.9655925599867L139.6453332265218,140.98136308180312L140.14406655947366,140.99676806172312L140.64279989242553,141.0118597200176L141.1415332253774,141.0265858364157L141.64026655832927,141.0409464109174L142.13899989128112,141.0549936637936L142.637733224233,141.06872759504432L143.13646655718486,141.08204376412772L143.6351998901367,141.09509883185652L144.13393322308858,141.10784057795985L144.63266655604045,141.12026900243765L145.1313998889923,141.13238410529L145.6301332219442,141.14418588651685L146.12886655489604,141.15577878666002L146.6275998878479,141.16705836517772L147.12633322079975,141.17807684234083L147.62506655375162,141.18883421814937L148.1237998867035,141.19933049260334L148.62253321965534,141.20961788597364L149.1212665526072,141.21959195771845L149.61999988555908,141.22935714837962L150.11873321851095,141.2389134579571L150.6174665514628,141.24820866618L151.11619988441467,141.25729499331925L151.61493321736654,141.26617243937486L152.11366655031838,141.27478878407587L152.61239988327026,141.28324846796414L153.11113321622213,141.29149927076875L153.60986654917397,141.2995934127606L154.10859988212587,141.3074264533979L154.60733321507774,141.31515505349336L155.1060665480296,141.32262255223424L155.60479988098146,141.32993339016235L156.1035332139333,141.33708756727776L156.60226654688518,141.34403286330948L157.10099987983705,141.3508737187994L157.5997332127889,141.3575056932056L158.09846654574076,141.3639810067991L158.59719987869263,141.37029965957984L159.09593321164448,141.37646165154786L159.59466654459635,141.382519202974L160.09339987754822,141.38836787331653L160.59213321050007,141.3941121031172L161.09086654345194,141.39975189237606L161.5895998764038,141.40523502082215L162.08833320935565,141.4105614884555L162.58706654230753,141.41578351554702L163.08579987525943,141.4209011020967L163.58453320821124,141.42586202783366L164.08326654116314,141.43066629275788L164.581999874115,141.43547055768207L165.08073320706686,141.44006594152262L165.57946654001873,141.44455688482134L166.0781998729706,141.44899560784913L166.57693320592244,141.45327767006418L167.07566653887432,141.4575075120083L167.5743998718262,141.4616329134106L168.07313320477803,141.46560165400018L168.5718665377299,141.4695181743188L169.07059987068175,141.47333025409563L169.56933320363362,141.47703789333062L170.0680665365855,141.48069331229468L170.56679986953733,141.4842442907169L171.0655332024892,141.48769082859732L171.56426653544108,141.4910851462068L172.06299986839292,141.49437502327447L172.5617332013448,141.4976126800712L173.0604665342967,141.50079811659705L173.5591998672485,141.5037746720392L174.0579332002004,141.5068034477523L174.55666653315228,141.50978000319446L175.05539986610412,141.5125998978239L175.554133199056,141.51541979245332L176.05286653200787,141.51808302626998L176.5515998649597,141.52074626008667L177.05033319791158,141.52335727363243L177.54906653086346,141.52591606690729L178.0477998638153,141.52837041964028L178.54653319676717,141.5307725521024L179.04526652971904,141.53312246429357L179.5439998626709,141.53542015621386L180.04273319562276,141.5376656278632L180.54146652857463,141.53991109951255L181.04019986152647,141.54199991034918L181.53893319447835,141.54408872118577L182.0376665274302,141.54612531175147L182.53639986038206,141.54810968204626L183.03513319333396,141.55004183207012L183.5338665262858,141.55197398209398L184.03259985923768,141.553801691576L184.53133319218955,141.55562940105804L185.0300665251414,141.55735266999824L185.52879985809327,141.55907593893846L186.02753319104514,141.56079920787866L186.52626652399698,141.56241803627702L187.02499985694885,141.56403686467542L187.52373318990072,141.56555125253195L188.02246652285257,141.5671178606594L188.52119985580444,141.56863224851594L189.0199331887563,141.57004219583067L189.51866652170816,141.5715043634163L190.01739985466003,141.5728620904601L190.5161331876119,141.5742198175039L191.01486652056374,141.57552532427675L191.51359985351564,141.57683083104965L192.01233318646752,141.5780841175516L192.51106651941936,141.57928518378264L193.00979985237123,141.5804862500137L193.50853318532307,141.58168731624477L194.00726651827495,141.5828361622049L194.50599985122682,141.5839327878941L195.00473318417866,141.58502941358333L195.50346651713053,141.58612603927256L196.0021998500824,141.58711822441995L196.50093318303425,141.58816262983825L196.99966651598612,141.58910259471472L197.498399848938,141.5900947798621L197.99713318188984,141.59103474473858L198.4958665148417,141.59197470961504L198.99459984779358,141.5928102339497L199.49333318074542,141.59375019882617L199.9920665136973,141.59458572316083L200.4907998466492,141.59542124749547L200.989533179601,141.5962045515592L201.4882665125529,141.59698785562293L201.98699984550478,141.59782337995756L202.48573317845663,141.5985544637504L202.9844665114085,141.5992855475432L203.48319984436037,141.60001663133602L203.98193317731221,141.60074771512882L204.4806665102641,141.60142657865072L204.97939984321596,141.60210544217261L205.4781331761678,141.6027320854236L205.97686650911967,141.6034109489455L206.47559984207152,141.60403759219648L206.9743331750234,141.60461201517654L207.47306650797526,141.60523865842754L207.9717998409271,141.6058130814076L208.47053317387898,141.60633528411674L208.96926650683085,141.6069097070968L209.4679998397827,141.60743190980597L209.96673317273456,141.60800633278603L210.46546650568646,141.6085285354952L210.96419983863828,141.60905073820433L211.46293317159018,141.6095207206426L211.96166650454205,141.60999070308083L212.4603998374939,141.61046068551906L212.95913317044577,141.6108784476864L213.45786650339764,141.61134843012462L213.95659983634948,141.61181841256285L214.45533316930135,141.61223617473019L214.95406650225323,141.6126539368975L215.45279983520507,141.6130194787939L215.95153316815694,141.61343724096122L216.4502665011088,141.61380278285762L216.94899983406066,141.61416832475405L217.44773316701253,141.61458608692135L217.9464664999644,141.61495162881778L218.44519983291624,141.61526495044325L218.94393316586812,141.61563049233968L219.44266649881996,141.61594381396515L219.94139983177183,141.61625713559064L220.44013316472373,141.61657045721614L220.93886649767558,141.61693599911254L221.43759983062745,141.61724932073804L221.93633316357932,141.6175104220926L222.43506649653116,141.6178237437181L222.93379982948304,141.61808484507267L223.4325331624349,141.61834594642727L223.93126649538675,141.61865926805274L224.42999982833862,141.6188681491364L224.9287331612905,141.61912925049097L225.42746649424234,141.61944257211647L225.9261998271942,141.61965145320013L226.42493316014608,141.6199125545547L226.92366649309793,141.62012143563837L227.4223998260498,141.62033031672203L227.92113315900167,141.6205391978057L228.4198664919535,141.62080029916027L228.9185998249054,141.62100918024393L229.41733315785729,141.6212180613276L229.91606649080913,141.62137472214033L230.414799823761,141.621583603224L230.91353315671284,141.62179248430766L231.41226648966472,141.6219491451204L231.9109998226166,141.62215802620406L232.40973315556843,141.62231468701683L232.9084664885203,141.62252356810046L233.40719982147218,141.62268022891323L233.90593315442402,141.62283688972596L234.4046664873759,141.62299355053872L234.90339982032776,141.62315021135146L235.4021331532796,141.6233068721642L235.90086648623148,141.62346353297696L236.39959981918335,141.6236201937897L236.8983331521352,141.62377685460245L237.39706648508707,141.62388129514426L237.89579981803897,141.62403795595702L238.39453315099078,141.62414239649885L238.89326648394268,141.6242990573116L239.39199981689455,141.62445571812435L239.8907331498464,141.62456015866616L240.38946648279827,141.624664599208L240.88819981575014,141.62476903974982L241.38693314870198,141.62492570056259L241.88566648165386,141.62503014110442L242.38439981460573,141.62513458164625L242.88313314755757,141.62523902218805L243.38186648050944,141.6253434627299L243.8805998134613,141.62544790327172L244.37933314641316,141.62555234381355L244.87806647936503,141.62565678435539L245.37679981231688,141.62570900462632L245.87553314526875,141.62581344516815L246.37426647822062,141.62591788570995L246.87299981117246,141.62602232625179L247.37173314412433,141.62612676679362L247.87046647707623,141.62617898706455L248.36919981002805,141.62623120733545L248.86793314297995,141.62633564787728L249.36666647593182,141.62649230869005L249.86539980888367,141.62654452896095L250.36413314183554,141.62659674923185L250.8628664747874,141.62664896950278L251.36159980773925,141.62670118977368L251.86033314069113,141.62680563031552L252.359066473643,141.62691007085735L252.85779980659484,141.62696229112828L253.3565331395467,141.62701451139918L253.85526647249858,141.6270667316701L254.35399980545043,141.62711895194101L254.8527331384023,141.62717117221194L255.35146647135417,141.62722339248285L255.85019980430602,141.62727561275375L256.3489331372579,141.62732783302468L256.84766647020973,141.62738005329558L257.3463998031616,141.62748449383741L257.8451331361135,141.62753671410834L258.34386646906535,141.62758893437925L258.8425998020172,141.62758893437925L259.3413331349691,141.62769337492108L259.8400664679209,141.62769337492108L260.3387998008728,141.6277978154629L260.83753313382465,141.6277978154629L261.3362664667765,141.62785003573384L261.8349997997284,141.62790225600475L262.33373313268027,141.62795447627565L262.83246646563214,141.62795447627565L263.331199798584,141.62800669654658L263.8299331315359,141.62805891681748L264.3286664644877,141.62805891681748L264.82739979743957,141.6281111370884L265.32613313039144,141.6281633573593L265.8248664633433,141.6281633573593L266.3235997962952,141.62821557763024L266.82233312924706,141.62826779790115L267.32106646219887,141.62832001817208L267.81979979515074,141.62832001817208L268.3185331281026,141.62837223844298L268.8172664610545,141.6284244587139L269.31599979400636,141.6284244587139L269.8147331269582,141.6284244587139L270.31346645991005,141.6284766789848L270.812199792862,141.62852889925574L271.3109331258138,141.62852889925574L271.80966645876566,141.62858111952664L272.30839979171753,141.62858111952664L272.8071331246694,141.62863333979755L273.3058664576213,141.62863333979755L273.80459979057315,141.62863333979755" fill="none"></path></g></g></g></g></g></g><g transform="translate(30, 177)" clip-path="url(#clip_1)"><clipPath id="clip_1"><rect width="299" height="22"></rect></clipPath><g><g><line x1="0" y1="0" x2="0" y2="5" style="visibility: inherit;" fill="rgb(0, 0, 0)" stroke="rgb(204, 204, 204)" stroke-width="1px"></line><line x1="24.936666647593178" y1="0" x2="24.936666647593178" y2="5" style="visibility: inherit;" fill="rgb(0, 0, 0)" stroke="rgb(204, 204, 204)" stroke-width="1px"></line><line x1="49.873333295186356" y1="0" x2="49.873333295186356" y2="5" style="visibility: inherit;" fill="rgb(0, 0, 0)" stroke="rgb(204, 204, 204)" stroke-width="1px"></line><line x1="74.80999994277954" y1="0" x2="74.80999994277954" y2="5" style="visibility: inherit;" fill="rgb(0, 0, 0)" stroke="rgb(204, 204, 204)" stroke-width="1px"></line><line x1="99.74666659037271" y1="0" x2="99.74666659037271" y2="5" style="visibility: inherit;" fill="rgb(0, 0, 0)" stroke="rgb(204, 204, 204)" stroke-width="1px"></line><line x1="124.68333323796591" y1="0" x2="124.68333323796591" y2="5" style="visibility: inherit;" fill="rgb(0, 0, 0)" stroke="rgb(204, 204, 204)" stroke-width="1px"></line><line x1="149.61999988555908" y1="0" x2="149.61999988555908" y2="5" style="visibility: inherit;" fill="rgb(0, 0, 0)" stroke="rgb(204, 204, 204)" stroke-width="1px"></line><line x1="174.55666653315228" y1="0" x2="174.55666653315228" y2="5" style="visibility: inherit;" fill="rgb(0, 0, 0)" stroke="rgb(204, 204, 204)" stroke-width="1px"></line><line x1="199.49333318074542" y1="0" x2="199.49333318074542" y2="5" style="visibility: inherit;" fill="rgb(0, 0, 0)" stroke="rgb(204, 204, 204)" stroke-width="1px"></line><line x1="224.42999982833862" y1="0" x2="224.42999982833862" y2="5" style="visibility: inherit;" fill="rgb(0, 0, 0)" stroke="rgb(204, 204, 204)" stroke-width="1px"></line><line x1="249.36666647593182" y1="0" x2="249.36666647593182" y2="5" style="visibility: inherit;" fill="rgb(0, 0, 0)" stroke="rgb(204, 204, 204)" stroke-width="1px"></line><line x1="274.30333312352496" y1="0" x2="274.30333312352496" y2="5" style="visibility: inherit;" fill="rgb(0, 0, 0)" stroke="rgb(204, 204, 204)" stroke-width="1px"></line><line x1="299.23999977111816" y1="0" x2="299.23999977111816" y2="5" style="visibility: inherit;" fill="rgb(0, 0, 0)" stroke="rgb(204, 204, 204)" stroke-width="1px"></line></g><g transform="translate(0, 8)"><text style="text-anchor: middle; visibility: hidden; font-family: &quot;Helvetica Neue&quot;, sans-serif; font-size: 12px; font-weight: 200;" x="0" y="0" dx="0em" dy="0.95em" fill="rgb(50, 49, 63)" stroke="none" stroke-width="1px">-50</text><text style="text-anchor: middle; visibility: inherit; font-family: &quot;Helvetica Neue&quot;, sans-serif; font-size: 12px; font-weight: 200;" x="24.936666647593178" y="0" dx="0em" dy="0.95em" fill="rgb(50, 49, 63)" stroke="none" stroke-width="1px">0</text><text style="text-anchor: middle; visibility: hidden; font-family: &quot;Helvetica Neue&quot;, sans-serif; font-size: 12px; font-weight: 200;" x="49.873333295186356" y="0" dx="0em" dy="0.95em" fill="rgb(50, 49, 63)" stroke="none" stroke-width="1px">50</text><text style="text-anchor: middle; visibility: inherit; font-family: &quot;Helvetica Neue&quot;, sans-serif; font-size: 12px; font-weight: 200;" x="74.80999994277954" y="0" dx="0em" dy="0.95em" fill="rgb(50, 49, 63)" stroke="none" stroke-width="1px">100</text><text style="text-anchor: middle; visibility: hidden; font-family: &quot;Helvetica Neue&quot;, sans-serif; font-size: 12px; font-weight: 200;" x="99.74666659037271" y="0" dx="0em" dy="0.95em" fill="rgb(50, 49, 63)" stroke="none" stroke-width="1px">150</text><text style="text-anchor: middle; visibility: inherit; font-family: &quot;Helvetica Neue&quot;, sans-serif; font-size: 12px; font-weight: 200;" x="124.68333323796591" y="0" dx="0em" dy="0.95em" fill="rgb(50, 49, 63)" stroke="none" stroke-width="1px">200</text><text style="text-anchor: middle; visibility: hidden; font-family: &quot;Helvetica Neue&quot;, sans-serif; font-size: 12px; font-weight: 200;" x="149.61999988555908" y="0" dx="0em" dy="0.95em" fill="rgb(50, 49, 63)" stroke="none" stroke-width="1px">250</text><text style="text-anchor: middle; visibility: inherit; font-family: &quot;Helvetica Neue&quot;, sans-serif; font-size: 12px; font-weight: 200;" x="174.55666653315228" y="0" dx="0em" dy="0.95em" fill="rgb(50, 49, 63)" stroke="none" stroke-width="1px">300</text><text style="text-anchor: middle; visibility: hidden; font-family: &quot;Helvetica Neue&quot;, sans-serif; font-size: 12px; font-weight: 200;" x="199.49333318074542" y="0" dx="0em" dy="0.95em" fill="rgb(50, 49, 63)" stroke="none" stroke-width="1px">350</text><text style="text-anchor: middle; visibility: inherit; font-family: &quot;Helvetica Neue&quot;, sans-serif; font-size: 12px; font-weight: 200;" x="224.42999982833862" y="0" dx="0em" dy="0.95em" fill="rgb(50, 49, 63)" stroke="none" stroke-width="1px">400</text><text style="text-anchor: middle; visibility: hidden; font-family: &quot;Helvetica Neue&quot;, sans-serif; font-size: 12px; font-weight: 200;" x="249.36666647593182" y="0" dx="0em" dy="0.95em" fill="rgb(50, 49, 63)" stroke="none" stroke-width="1px">450</text><text style="text-anchor: middle; visibility: inherit; font-family: &quot;Helvetica Neue&quot;, sans-serif; font-size: 12px; font-weight: 200;" x="274.30333312352496" y="0" dx="0em" dy="0.95em" fill="rgb(50, 49, 63)" stroke="none" stroke-width="1px">500</text><text style="text-anchor: middle; visibility: hidden; font-family: &quot;Helvetica Neue&quot;, sans-serif; font-size: 12px; font-weight: 200;" x="299.23999977111816" y="0" dx="0em" dy="0.95em" fill="rgb(50, 49, 63)" stroke="none" stroke-width="1px">550</text></g><line x1="0" y1="0" x2="299.23999977111816" y2="0" fill="rgb(0, 0, 0)" stroke="rgb(204, 204, 204)" stroke-width="1px"></line></g></g></g></g></svg>